<svg version="1" xmlns="http://www.w3.org/2000/svg" width="666.667" height="666.667" viewBox="0 0 500.000000 500.000000"><path d="M309.9 3.7c-.1.5-.1 1.2 0 1.7.1.4-1.1.6-2.6.3-1.5-.4-2.2-.4-1.6-.1 1 .4.9 1.2-.2 3.5-1.5 2.7-2.6 3.8-2.4 2.1.3-1.8-.2-2.6-1-1.4-.7 1.1-.9 1-1.4-.3-.4-.9-.3-1.3.3-1 .6.3 1 .1 1-.4 0-.6-.5-1.1-1.1-1.1-.5 0-.7-.5-.3-1.2.4-.6.3-.8-.4-.5-.5.4-.9 1.8-.7 3.2.3 3-.3 3.1-2.2.7-.8-.9-1.2-1.1-.8-.5.3.7.1 1.3-.6 1.3s-.4.7.7 1.6c1.5 1.3 1.3 1.2-1-.1-2.9-1.7-2.9-1.7-2.3.5.5 2 .4 2.1-1.2.6-1-.9-2.2-1.6-2.7-1.6s-.3.4.5.9c1.2.8 1.2 1.2.2 2.5-.7.9-1.7 1.3-2.2 1-.5-.3-.9 0-.9.7 0 .9-.3.9-1.4 0-1.1-.9-1.6-.9-2.2 0-.4.7-.3.9.4.5.6-.3 1.3-.2 1.7.3.3.6 1.2.8 1.9.5.8-.3 1.6-.1 2 .4.3.5-.8.8-2.4.7-1.7-.1-2.7.2-2.3.8.4.6-.1.8-1.1.4-1.1-.4-1.5-.3-1.1.4.4.6 1.3.8 2.1.5.8-.3 1.4-.1 1.4.4 0 .6-.6 1-1.4 1-.7 0-2 .8-2.7 1.7-1.1 1.5-1.1 1.6.1.5.8-.6 2.1-1.2 3-1.2 1.2.1 1.2.2-.2 1.1-1 .5-1.8 1.5-1.8 2.1 0 .7.6.6 1.5-.2.9-.7 1.8-1 2.2-.6.3.3.1.6-.6.6s-.3.9 1 2.1l2.4 2-2.6-1.5c-1.4-.9-2.9-1.3-3.3-.9-.4.4-1.1.1-1.6-.7-.7-1.1-.8-.7-.6 1.3.1 1.5 1.1 3.3 2.1 4.1 1.5 1.1 1.6 1.4.4 2.1-.8.5-1.1.5-.7 0 .4-.4 0-1.4-1-2.1-1.3-.9-2-1-3.1-.1-1.2.9-1.3.9-.7-.1.4-.6.3-1.2-.3-1.2-.5 0-1.1.3-1.4.7-.2.5-.2.2-.1-.5.4-1.5-.8-1.6-2.3-.1-.7.7-1 .3-.7-1.6.1-1.5-.1-2.4-.4-2-.4.4-.7 1.2-.7 1.8-.1.7-.6 1.1-1.3.9-.7-.1-1.5.5-1.9 1.4-.5 1.3-.7 1.3-1.4.2-1.4-2.2-1-2.9 1.5-2.4 1.9.3 2.3.1 1.9-1.1-.5-1.2-.7-1.2-1.4-.1-.7 1-.9.8-.9-.6 0-1.8-.1-1.8-1.2-.4-1.8 2.2-4.1 2.7-5.6 1.1-1.6-1.5-4.2-1.7-4.2-.3 0 .5.6.7 1.4.4.9-.3 1.9.4 2.6 1.8 1 2.1 1 2.1-.3.5-1.4-1.7-3.3-2.5-2.3-.9.2.4-.3.8-1.3.8-1.2 0-1.6-.8-1.5-2.8.1-1.5-.2-2.8-.7-2.8-.6 0-.9.6-.8 1.2.3 2.5-.1 3.8-1.2 3.8-.5 0-.7-.5-.4-1 .3-.6.1-1-.6-1s-.8-.5-.3-1.3c.5-.7.1-.4-.9.7-1.1 1.2-3.1 2-4.8 2-1.6-.1-2.9.3-2.9.9 0 .6-.2.8-.5.5-.3-.3-.2-1.3.1-2.2.5-1.4.9-1.5 1.5-.4.6.9.8.7.7-.7-.1-1.2-.9-2.1-1.9-2.1-1 0-1.5.4-1.3.8.3.4-.2 1.8-1 3-.9 1.3-1.6 1.6-1.6.9 0-.8-.7-1.1-1.9-.8-1 .2-2.5.1-3.2-.4-1.1-.8-1-1.2.5-2.4 1.8-1.4 1.8-1.4-.1-1.2-2 .1-2.7 2.4-1.2 4.3.5.7.3 1.1-.6 1.1-.8 0-1.2-.4-.9-.9.3-.4 0-.8-.6-.8s-.8-.5-.4-1.3c.6-.9.4-.9-.8.1-1 .8-1.9.9-2.2.3-.4-.5-1.6-.8-2.8-.6-1.2.3-2.8-.1-3.6-.8-1.3-1-1.4-.9-.2 1 .8 1.2 1.9 1.9 2.5 1.4 1.6-1.1 3.8-.8 4.3.8.3 1 0 1.1-1.4.3s-2.5-.5-4.9 1.1c-2.3 1.6-2.7 1.7-1.6.4 1.3-1.6 1.2-2-.4-3.5-1.4-1.3-1.6-1.3-.7-.1 1 1.3.6 2-2.1 3.9l-3.2 2.3 2.4-2.6 2.4-2.6-3.4.3c-1.9.2-4.3.7-5.3 1.2-1.5.6-1.7.4-1.1-.7.7-1.1.6-1.2-.6-.2s-1.8 1-2.9 0c-1.2-1-1.2-.9-.2.4.6.9.8 2 .4 2.5-.4.4 0 .3 1-.4 1.1-.9 1.8-1 2.3-.2.3.5 1.1 1 1.6 1 .6 0 .7-.5.4-1-.3-.6-.2-1 .3-1 .6 0 1.3.8 1.6 1.7.4 1 .4 1.4 0 1.1-.4-.4-1.6-.3-2.7.3-1.3.7-1.7.7-1.3.1.3-.6.2-1.3-.3-1.7-.5-.3-1.4.3-2 1.2-.6 1-1.1 1.2-1.1.6 0-.7-.3-1.2-.7-1.2-1.9.3-3.4-.2-2.9-.9.3-.5-.1-.9-.9-.9s-1.2.4-.9.9c.3.4-.2.8-1.1.8-.9 0-1.4-.4-1.1-.9.4-.5-.1-.8-.9-.7-2.3.3-2.7 1.2-1.1 2.5 1.1.9 2 1 3.5.2s2.2-.8 2.7.1c.4.7.4 1-.1.6-.4-.4-2.1 0-3.7.8-1.9 1-2.7 1.1-2.3.4.5-.8.3-1.1-.6-.8-.8.3-1.3 1-1.2 1.6.2.7-.4.9-1.4.5-1.2-.5-1.4-.3-.8.8.8 1.2.6 1.2-.8 0-1.8-1.4-1.3-3.6.5-2.5.7.4.8.2.4-.4-.5-.8-.1-1 1-.5 1.2.4 1.5.3 1-.5-.4-.7-1.3-1.2-1.9-1.2-1.7 0-3.9 3.8-3.2 5.3.4.7 0 .4-.8-.6-1.3-1.6-1.5-1.6-2.1-.1-.3.9-1.3 1.4-2.1 1-.8-.3-1.7-.1-2 .5-.4.5-1.1.6-1.7.3-.8-.5-.9-.1-.5 1 .5 1.3.3 1.5-1.1.8-.9-.5-2.4-.7-3.2-.5-1.2.4-1.3.3-.1-.5 1-.7.6-.9-1.6-.9-2.6.1-2.9.4-2 1.9.6.9 1.5 1.5 1.9 1.2.4-.3.5.2.1 1.1-.4 1.2-.8 1.3-1.3.5-.6-.9-.9-.9-1.2.1-.3.9-.6.8-1.1-.5-.5-1.1-.3-1.5.5-1 .6.4.8.3.4-.4-.3-.6-1.5-1-2.6-.9-1.8.1-1.8.2-.2 2s1.6 1.8-1 .6c-1.5-.6-2.5-1.7-2.1-2.3.3-.6.2-.7-.2-.3-1.3 1.1-1.5 3.7-.3 3.4.6-.1 1.2.4 1.4 1.1.1.7 0 .8-.3.2-.3-.6-1.2-.3-2.1.8-1 1-1.3 1.2-.9.6.5-.7.4-2.1-.2-3.2-.6-1.1-.7-2.3-.3-2.7.4-.5.2-.5-.5-.1s-1 1.3-.7 2.1c.6 1.4-1.2 1.5-3.2.3-.6-.4-1.1-.1-1.1.7 0 .8.5 1.1 1 .8.6-.4.8 0 .4 1-.4 1.1-.2 1.4.8 1 .8-.3 1.3-.8 1-1.2-.2-.4.3-.8 1.2-.8 1.2 0 1.1.5-.7 1.9-2.5 2-4 2.3-4 .7 0-.5-.4-.7-1-.4-.5.3-1 .1-1-.4 0-.6-.8-.3-1.8.6-1 1-2.7 2.4-3.8 3.1-1 .7-1.4 1-.8.7.7-.2 1.4.2 1.7 1 .8 1.8-2.3.8-4-1.4-.9-1.3-1.4-1.4-2.5-.3-1.1 1.1-1 1.4.2 2.2.8.5 1.8.6 2.2.4.4-.3.8 0 .8.6 0 .7-.8.9-2.1.5-1.6-.5-1.9-.4-1.4.5.5.8.4 1.1-.3.6-.6-.3-1.3-.2-1.7.4-.4.6-1 .8-1.5.5-.4-.3-1.1.2-1.4 1.1-.4.9-.9 1.4-1.2 1.1-1.1-1 1.7-4.9 3.2-4.3.8.3 1.4.1 1.4-.4 0-1.8-2.9-1-4.5 1.2-1.2 1.7-1.9 1.9-2.2 1-.4-1-.9-.8-2 .7-.8 1.2-1.9 1.9-2.4 1.6-.5-.4-.6.2-.2 1.2.6 1.6.5 1.6-1 .4-1-.8-2-1.1-2.4-.7-.3.3-.1.6.6.6s.9.5.5 1.2-.3.8.4.4 1.2-.2 1.2.3c0 .6-.9 1.1-2.1 1.1-1.1 0-1.7.5-1.4 1 .4.6 1.1.7 1.7.4.7-.4.8-.2.4.4-.4.6-1.4.8-2.3.5-1.2-.5-1.4-.3-.8.8.4.8.5 1.1 0 .7-.4-.4-1.4-.3-2.1.3-.9.8-1.5.5-2.3-.9-.6-1.1-.7-2.3-.3-2.7.4-.5.2-.5-.5-.1s-.9 1.4-.6 2.3c.4 1 .2 1.4-.4 1-.7-.5-.9 0-.6 1.1.2 1-.3 2.5-1.2 3.2-1.7 1.4-2.9 1.8-7.2 2.2-1.2.1-2 .5-1.7.9.2.4-.3 1.2-1.1 1.9s-1.5.9-1.5.5-.6-.2-1.3.4c-.8.6-1.6.8-2 .5-.3-.3-.3.4 0 1.6l.6 2.2 1.3-2.3c.7-1.3 1.3-2 1.4-1.5 0 .5.8.2 1.8-.6.9-.8 2.4-1.8 3.2-2.2.9-.5.8-.2-.2.7-1 .8-1.4 1.7-1 2.1.4.4.2.6-.3.4-.6-.1-2.7 1.4-4.8 3.4-2 2.1-3.7 3.4-3.7 3 0-.5.5-1.3 1.2-2 .9-.9.9-1.2 0-1.2-.7 0-1.5.7-1.8 1.5-.8 1.9-2.1 1.9-2.1 0 0-.8.6-1.6 1.4-1.9.7-.3 1.3-1 1.3-1.6 0-.5-.9-.2-1.9.7-1.1.9-1.8 2-1.5 2.4.2.4-.9 1.9-2.6 3.2-1.6 1.4-3 3.2-3 3.9.1.8.6.6 1.5-.6 1.2-1.6 1.5-1.7 1.5-.4 0 .9-.7 1.9-1.6 2.2-2.3.9-3.6.7-2.9-.4.3-.6.1-1-.4-1-1.2 0-1 2.8.3 4.9.7 1 .6 1.2-.4.6s-1.2-.4-.6 1c.5 1.5.4 1.6-.9.5-1.8-1.5-2 0-.2 1.9.6.8 0 .6-1.5-.3-1.6-1-2.9-1.3-3.2-.7-.4.5.2 1.2 1.1 1.5 1 .3.5.4-1 .2-1.8-.2-3.1.2-3.4 1-.3.8-.9 1.1-1.4.8-.5-.3-.6-1-.3-1.6.5-.7.2-.8-.5-.3-.9.5-1 1-.2 1.8 1.4 1.4 1.4 5.7 0 5.7-.5 0-.7.4-.4 1 .3.5 0 .7-.8.4-.8-.3-1.7.2-2 1-.4.9-1.4 1.6-2.2 1.6-.9 0-1.3.5-1 1 .4.6 1.2.7 1.8.3.8-.5.8-.2 0 .9-.7.8-1 1.8-.6 2.1.3.4.1.7-.5.7-.5 0-1.5-1.2-2-2.8-.7-1.8-1.1-2.1-1.1-.9-.1 1.1-.6 1.5-1.3 1.1-.6-.4-.8-.3-.4.4.3.5.1 1.2-.6 1.4-.7.3-.5.7.6 1.1.9.4 1.5.3 1.1-.2-.3-.5 0-1.3.7-1.7.7-.4 1-.4.6.1-.4.4-.3 1.4.4 2.2.9 1.1.8 1.3-.3 1.1-.8-.2-1.3.3-1.1 1 .1.8-.2 1.1-.8.7-.6-.3-.7-1.2-.3-1.8.5-.9.3-.9-.8-.1-.8.6-2.2 1-3.2.9-1.4-.3-1.5 0-.8.9.6.7.9 1.6.6 2-.3.3.1.2.7-.4 1.7-1.4 2.5-1.3 2.5.4 0 .8-.6 1.2-1.4.9-1.4-.5-1.9 1.2-.5 2 .4.2.1.2-.5.1-1.7-.4-1.7.8-.1 2.6 1.1 1.2 1 1.2-.5.1-1.1-.9-1.7-1-1.7-.2 0 .6-.8 1.1-1.7 1-1 0-1.3-.3-.6-.5.7-.3.9-1.3.6-2.1-.6-1.4-.7-1.4-1.3.3-.9 2.4-.1 4.6 1.4 3.7.6-.3.8-.2.3.2-.4.5-1.8 1-3 1.2-1.2.2-2.4.8-2.5 1.3-.2.6-.8.7-1.4.4-.5-.4-.3.5.7 1.9 1.1 1.7 1.3 2.7.5 3.2-.6.3-.8 1-.5 1.5.8 1.3-.9 2-2.5.9-.8-.5-1-.9-.5-.9.6 0 1.1-1.1 1.1-2.5.2-2.8-1.1-3.5-1.4-.8-.4 3.9-.9 5.5-1.8 6.1-1.5 1.2-1.5 3.2.1 2.6.8-.4 1.3-1 1-1.4-1-1.6 1.3-2 2.6-.4 1 1.2 1 1.5-.2 1.2-.8-.2-1.3.2-1.2.9.2.7-.4 1-1.2.7-.9-.4-1.5 0-1.5.9 0 .8-.7 1.8-1.6 2.1-1.4.5-1.5.4-.5-.8.9-1.1.9-1.6 0-2.2-.7-.4-.9-.3-.5.4.6 1-1 2.6-2.6 2.7-.3 0-1 .4-1.5.9s-.3.6.5.2c.7-.4 1.5-.1 1.8.9.5 1.3.9 1.3 2.2.3 1.4-1.2 1.4-1.1.1.9-.8 1.3-1.7 2.3-2.2 2.3-.4 0-.6-.4-.2-.9.3-.5.1-1.2-.4-1.5-.5-.4-.8.6-.6 2 .2 2.3 0 2.5-2.4 2-1.4-.3-2-.3-1.3 0 1 .5 1 .9 0 2.2-.7.9-.8 1.3-.2.9.7-.4 1.4.2 1.7 1.3.3 1.1.1 2-.4 2s-.9-.6-1-1.3c0-.6-.4-.2-1 1.1-.5 1.3-1.3 2.1-1.8 1.8-.5-.3-1.5.1-2.2 1-1 1.2-1 1.5.2 1.2.8-.2 1.4.5 1.4 1.7 0 1.1-.5 1.9-1.2 1.8-.8-.2-1 .4-.6 1.4.5 1.2.3 1.4-.8.8-1-.7-.9-.2.3 1.7 1.5 2.3 1.5 2.8.3 3.8-.8.7-1.5 1.7-1.5 2.3 0 .7.4.7 1.2-.1.7-.7 1.7-1.2 2.2-1.2 1.3.1-2.4 2.3-4.2 2.6-1.3.2-.8-1.1 1.5-3.7 1.2-1.4 1.2-1.7-.2-2.3-.9-.3-1.3-.2-1 .4 1 1.7-.6 3.4-1.7 1.9-.7-1-.8-.8-.3.8.4 1.5 0 2.5-1.2 3.2-1 .6-1.3 1.1-.8 1.1.6 0 1.1.9 1.2 2 .1 1.1-.1 1.9-.5 1.9-2-.3-2.3.3-1.1 1.8 1.2 1.5 1.2 1.6-.3 1-1-.3-2-.1-2.4.6-.4.7-.4.9.1.5.4-.4 1.6-.3 2.5.2 1.5.8 1.8.6 1.6-.8-.3-1.6 1-3.2 2.7-3.2.5 0 .2.7-.7 1.5-.8.8-1.3 2.5-1.1 3.6.4 1.7.2 1.9-1 .9-1.8-1.5-2 .1-.2 1.9 1 1.1.8 1.1-1.1.2-1.7-.9-2.2-.9-2 0 .2.6-.3 1.4-1.1 1.7-.9.3-1.1 0-.6-.8.5-.9.4-1.1-.4-.6-.9.6-.9 1.1 0 2.2 1 1.2 1.3 1.2 2.4-.2.9-1.4 1.4-1.4 2-.4.5.9.4 1.1-.3.6-1.9-1.1-1.4.5.6 2.1 1.5 1.3 1.5 1.3-.6.3-2.2-1.1-2.3-1-1.8.8.4 1.1.3 2.3-.2 2.6-.5.3-.9 1.7-.9 3.1 0 1.5.4 2.2 1.1 1.8.7-.4.6-.1-.1.9-.7.8-.9 1.9-.5 2.3.4.5.1.5-.6.1s-1-1.1-.7-1.6c.3-.5 0-1.2-.6-1.5-1.2-.8-1 4.3.3 6.1.4.6.2 1.1-.7 1.1-.8 0-1.1-.5-.8-1.1.3-.6.3-.8-.2-.4-.4.4-1.7.2-2.9-.4-1.9-1-1.8-.8.3 1.4 1.4 1.4 3.1 2.4 3.8 2.1.7-.3 1.3 0 1.3.6s-.6 1-1.2.8c-.7-.1-1.2.4-1 1.1.1.8-.2 1.1-.8.7-.6-.3-.7-1.1-.4-1.7.4-.7.2-.8-.4-.4-.9.5-.9 1.3-.2 2.6.9 1.6.5 2.2-1.7 3.5-2.1 1.2-2.3 1.4-.6 1 2.2-.6 3.4 1.3 3.8 5.9.2 1.6-.1 1.5-1.6-.5-1-1.3-1.9-1.9-1.9-1.2 0 .6-.9.9-2.2.6-1.8-.4-1.6-.1.7 1.2 3.8 2.1 5.3 3.5 3.6 3.5-.7 0-.9.4-.6 1 .3.6-.1.7-1 .3-1.2-.4-1.3-.8-.5-1.3s.7-.9-.3-1.3c-.9-.3-2.3.4-3.4 1.6-1.6 1.9-1.6 2-.1.8 1-.7 1.9-1.1 1.9-.7.5 2.3.3 3.2-.6 3.9-.6.5-.4.7.5.4.8-.2 1.4-1 1.2-1.7-.3-1.1 0-1.1 1.2 0 .9.7 1.6 1.8 1.6 2.4 0 .6-.4.4-1-.4-.6-1-.9-.6-.8 1.8.1 2 .5 2.9 1.2 2.5.6-.3.7-.2.3.3-.5.5-1.4.9-2 .9-.5 0-1.2.6-1.5 1.4-.3.8 0 1.1.7.7.6-.4 1.1-.2 1.1.5 0 .8.5.7 1.7-.2 1.6-1.3 1.7-1.2.4.3-.7 1-1.7 1.5-2.2 1.2-1.6-.9-1 1.4.9 3.2 1.5 1.6 1.5 1.7 0 1.2-.9-.4-1.9-.4-2.1 0-.2.4-.2 0 0-.8.3-1.1.1-1.2-.8-.3-1.3 1.3-.3 3.7 1.2 2.8.5-.4.9-.1.9.6 0 .8.5.7 1.8-.2 1.5-1.3 1.6-1.2.4.3-.7.9-2.2 1.5-3.2 1.3-1.8-.3-2.2 1.6-.7 3.1 1.3 1.3.7 2.7-.6 1.5-1-.8-1.4-.7-1.4.4 0 .8.4 1.2.9.9 1.5-1 .8.9-.8 2.1-1.5 1.1-1.5 1.2 0 1.2.9 0 1.6-.4 1.6-.9s.5-.6 1.2-.2c.7.4.8.3.4-.4s-.2-2 .4-2.9c.9-1.5 1-1.4.4.6-.3 1.4-.2 2.1.3 1.8.5-.4 1 0 1 .8s-.3 1.2-.7 1c-.4-.3-1.5.4-2.5 1.5s-2.2 1.7-2.8 1.3c-.6-.3-.7-.1-.3.5.5.9 1.5.7 3.4-.5 2.7-1.7 2.7-1.7.9.3-.9 1.1-1.4 2.4-1 2.9.5.4-.1.5-1.1.1-1.6-.5-1.7-.4-.6.9 1 1.2 1 1.5-.1 1.5-1 0-1 .3-.1 1.2 1.7 1.7 1.5 2.8-.6 2.2-1.4-.5-1.4-.4-.2.4.8.6 1.8.8 2.4.5.5-.4.7.1.3 1-.8 2.1.1 4.7 1.6 4.7.7 0 .7-.4-.1-1.2-.7-.7-1.2-1.7-1.2-2.2 0-.6.5-.3 1.1.7.6 1 1.5 1.4 2.2 1 .9-.5.8-.2 0 .9-.7.8-.9 1.8-.5 2.2.4.5-.2.6-1.3.4-1.2-.2-1.9.2-1.8.9.2.7-.2 1.3-.8 1.3-.6 0-.7.5-.2 1.2.4.7.8 2.5.9 4 .1 1.6.3 3 .4 3.3.1.3.3 1 .4 1.7 0 .6.7 1.2 1.4 1.4.7.1.8 0 .3-.2-.6-.3-.7-1.2-.4-2 .3-.8 0-1.4-.7-1.4-.6 0-.8-.5-.3-1.3 1-1.6 1.3-3.8.4-3.3-.4.3-.7-.4-.8-1.4-.1-1 .5-2.1 1.4-2.4 1.3-.5 1.4-.4.4.8-.8.9-.8 1.6-.2 2 .5.4 1.4-.2 2-1.1.9-1.6 1-1.6.8.4 0 1.2-.4 2-.8 1.7-.4-.2-1 0-1.3.5-.4.5-.3 1.2.1 1.4.7.4.8 1.8.4 8.6-.1 1.1-.4 1.1-1.6.1-1.3-1.1-1.4-1-.9.4.3.9 1 1.6 1.5 1.6s.9.5.9 1.1c0 .5-.4.8-.8.5-.4-.2-.8.4-.8 1.5 0 1.9.1 1.9 1.3.2.8-.9 1.1-2.3.9-2.9-.3-.7.3-1.8 1.2-2.6 1.3-1.1 1.4-1.1.7.2-1.2 2-1.5 11.1-.4 13.3.7 1.3.6 1.9-.6 2.3-.8.3-1.5 1.1-1.5 1.6 0 .7.5.6 1.3-.1.8-.6 1.8-.7 2.2-.3.5.4.5.1.1-.5-.5-.9-.2-1.1 1-.6 1.4.5 1.2.8-1 2-2.7 1.4-3.5 2.5-1.5 2 .6-.1 1.4.4 1.7 1.2.2.8 0 1.1-.5.8-.5-.3-1 0-1 .8 0 .9.4 1.1 1.1.6 1.4-1.1 4.6-1 4.6.1 0 .5-.8.8-1.7.6-1.2-.2-1.7.5-1.8 2.4-.1 1.5.2 2.5.6 2.2.4-.2.6-1.3.4-2.4-.2-1.2 0-1.8.5-1.5.5.3.6 1.7.4 3.2-.4 2.2-.3 2.4 1 1.4 1.3-1.1 1.5-.9 1.1 1-.3 1.2-1 2.6-1.7 3.1-1 .6-1 .8 0 .8 1.6 0 1.6 2.7 0 3.4-.7.3-.4.4.8.1 1.2-.3 2.7.1 3.4 1 .7.8 1.6 1.2 2.1.9.5-.3.6.2.3 1-.3.9-1.4 1.6-2.3 1.6-1.2 0-1.3-.2-.3-.9 1.1-.6 1.1-1 0-1.9-1-.8-1.3-.4-1.3 1.8-.1 2 .4 2.7 1.5 2.5.8-.1 2.4.2 3.5.6 1.8.9 1.8.9-.2.5-1.3-.2-2.3 0-2.3.6 0 .5-.4.7-.8.4-.5-.3-.9.1-.9.9 0 .9.4 1.1 1.1.6 1.1-.8 5-1.1 4.1-.3-.2.3 0 1.2.4 2.1 1 2-.5 6.5-1.9 5.6-.5-.3-1-.1-1 .4 0 1.5 2.7 1.4 3.3-.2.2-.6.8-.9 1.2-.5.4.4.2 1.4-.5 2.3-.9 1.1-.9 1.5-.1 1.5.7 0 .9.5.5 1.2s-.3.8.5.4c.6-.4.9-1.1.6-1.6-.3-.5 0-1.2.7-1.6.7-.4 1-.4.6.1-.4.4-.3 1.6.2 2.6.7 1.2.6 2-.2 2.5-.7.4-.8.3-.4-.4.5-.8.1-1-.9-.5-1.3.4-1.4.8-.4 1.3.7.5 1.9.5 2.8.2 1.4-.5 1.4-.4.2 1.2-.8.9-2.1 1.4-3 1.1-1.2-.5-1.3-.3-.5.5.9.9 1.8.9 3.5-.1 2.2-1.1 2.3-1.1 1 .4-.7 1-1 1.7-.5 1.7s.2.5-.6 1.1c-1.3.9-1.2 1 .2.5 2.3-.7 2.3 1 .1 2.3-1 .6-1.4 1.1-.9 1.1.6 0 1.9-.9 3.1-2 1.5-1.4 2.4-1.6 3.5-.9 1.3.9 1.2 1-.2.5-1.6-.5-2-.1-1.7 2 0 .3-.8 1.2-1.8 2-1.5 1.1-1.5 1.3-.2.8 1-.3 2-.1 2.4.5.3.6 1.2 1.1 1.8 1.1.8 0 .8-.3-.1-.9-1.1-.7-1.1-.9.1-1.4.9-.3 1.4.1 1.4 1.1.1 2.8 1.5 6.2 2.4 5.6.8-.5 1.1.1 1.3 3.5.1 1.5 3.6 3.2 5 2.3.5-.3.6-.1.3.5-.4.5.3 2 1.4 3.1 1.1 1.2 1.5 2.2 1 2.2-.6 0-1.4-.7-1.9-1.6-.6-1.1-1.2-1.3-1.6-.6-.3.6.3 1.7 1.5 2.5 1.4 1.1 1.7 1.6.7 2-.7.2-1 .7-.7 1.1.4.4 1.4 0 2.3-.9.9-.9 1.6-1.3 1.6-.8s-.5 1.4-1.2 2.1c-.8.8-.8 1.5.1 2.6s.9 1.5-.1 2c-.7.3-.5.4.6.3 1.2-.1 2 .5 2.2 1.6.4 2.7 1.3 3.3 2.7 1.7 1-1 .9-1.1-.3-.5-.8.5-1.2.5-.8 0 .4-.4.3-1.4-.3-2.2-1.5-1.8-.1-1.7 1.7.2.9.8 1.3 1.9.9 2.4-.3.5-.1 1.2.5 1.6.6.4.8 1 .5 1.5-.3.5.1 1.5.9 2.3.8.8 1.4 1.6 1.3 1.8-.1.3.2.1.7-.3 1.8-1.5 2.8-.8 1.5.9-.8.9-.9 1.4-.3 1 1.4-.8 2.2.9 1.9 4.3-.2 2.1 0 2.2.8.8 1-1.5 1.4-1.3 3.4 1.5 1.3 1.7 2.3 2.6 2.3 2.1 0-.6.7-1.9 1.6-3 .8-1 1.3-1.3.9-.6-.4.7-.2 1.8.4 2.5.7.9.7 1.7-.1 2.7-.8 1.2-.9 1.2-.4-.2.3-1 .1-2-.4-2.3-1.5-.9-1.1 2.8.5 4.9.8 1.1 1.5 1.5 1.5 1 0-.6 1.1-1 2.5-1 3 0 3 0 .8 1.7-1.5 1.2-1.6 1.2-.8-.1.6-1.2.5-1.3-.5-.3-1.2 1.1-1.1 1.5.5 2.7 1.1.8 2.5 1.2 3.2.9.7-.3 1.3 0 1.3.7 0 .6.4.8 1 .5.5-.3.7 0 .4.8-.3.8.2 1.4 1.1 1.4.8 0 1.5-.4 1.5-.9 0-.4.5-.8 1.1-.8.8 0 .8.5-.1 1.5-.7.8-1.8 1.5-2.6 1.5-.7 0-1.6.5-2 1.2-.4.7-.3.8.5.4.6-.4 1.9-.2 2.7.5 1.2 1 1.3.9.8-.7-.6-1.6-.4-1.7.6-.7 1.7 1.6 2.2 4.3.7 4.3-.5 0-.7.3-.4.6.4.4 1.3.1 2.2-.6 2.1-1.7 7-2.3 5.6-.7-.6.8-.5 1.8.3 3 1.3 1.7 3.2 2.5 2.2.8-.3-.5.1-1.2.9-1.5 1.3-.4 1.3-.2.5 1.4-1.4 2.6-1.3 3.5.4 2.1 1.1-.9 1.3-.6 1 1.6-.1 1.5.2 3.4.7 4.3.7 1.1.8.9.4-1l-.6-2.5 2 2.3c1.1 1.2 2.2 1.8 2.5 1.3.4-.5.1-1.2-.4-1.4-.6-.3-.5-.4.2-.3.7.2 1.2 1 1.2 1.9-.1.9.2 1.5.6 1.2.4-.3 1 .1 1.3.9.4.9 1.4 1.2 2.6.9 1.2-.3 1.9-.9 1.6-1.3-.3-.5.3-.7 1.2-.5 1 .1 1.7.8 1.6 1.4-.3 1.3 3.4 3.4 4.7 2.6.6-.3.7.1.4 1-.5 1.1 0 1.8 1.5 2.2 1.1.3 2.1.9 2.1 1.5 0 .5-.8.4-1.9-.2-1.4-.7-2.2-.7-2.7.2-.4.6-.3.8.4.4.6-.3 1.8.1 2.6 1 1 .9 1.6 1.1 1.6.4 0-.7.7-1 1.4-.7 1 .4 1.3.1.9-.9-.3-.7 0-1.4.7-1.4.6 0 .9.4.6.9-.6 1 1.8 3.4 2.6 2.6.3-.3 1 .1 1.6.8.9 1 .8 1.4-.3 1.4-.8 0-1.2-.4-.9-.8.2-.4-.5-.6-1.6-.4-1.3.2-1.8 0-1.4-.7.4-.6-.2-.6-1.5.2-1.8.9-2.1 3-.5 3 .3 0 .2-.5-.1-1-.4-.6.3-.8 1.7-.6 1.3.3 2.5.5 2.8.5.3.1-.2.6-1 1.1-.9.6-1 1-.3 1 .6 0 1.5-.5 1.8-1 .4-.6 1.1-.8 1.6-.4.5.3.7.9.5 1.3-.3.4.9.7 2.7.6 2.1 0 3.1-.5 2.9-1.4-.1-.7.2-1 .8-.6.7.4.7 1.2 0 2.5-1.4 2.6-1.2 3.3.6 2.6 1.1-.4 1.5-.2 1.1.8-.4 1 0 1.4 1.3 1.1 1.1-.2 2.7.4 3.7 1.3 1.3 1.3 1.6 1.4 1.1.2-.3-.9.5-2.3 2.1-3.4 2.6-1.9 2.6-1.9.9 0-1.4 1.6-1.4 2.2-.4 3.7.9 1.1 2 1.5 3.2 1 1.7-.6 1.7-.5.5 1-.7.9-1.8 1.4-2.4 1-.6-.4-.7-.1-.3.6.6.9 1.3.8 2.7-.5 1.7-1.5 2.3-1.3 2.1.7-.1.3.6.6 1.3.6 1.1 0 1.2-.4.4-1.3-.7-.8-.6-1.3.3-1.6.8-.3.6-.7-.6-1.1-1.2-.5-1.5-.3-1 .6.5.9.4.9-.6 0-2-1.9-.5-2.7 2.2-1.2 1.2.7 2.7 1.2 3.1 1.1.5-.1.6.2.2.8-.3.5-.1 1 .5 1s.8.4.5 1c-.3.5-.1 1.1.4 1.1.6.1 1.7.2 2.4.3.6.1 1.1.9 1.1 1.9-.1.9.3 1.4.8 1.1.5-.3.7-1.2.4-1.9-.2-.7.1-1.6.8-1.8.9-.4 1.2.3 1 1.9-.1 1.3.2 2.4.7 2.4.5 0 .9-.4.9-.8 0-.5.6-.9 1.3-.9.6 0 2-.4 3-.8s1.7-.3 1.7.5c0 .6-.3.9-.8.6-.4-.2-1.6.2-2.7 1-1.6 1.2-1.7 1.4-.2 1.4.9 0 1.7-.5 1.7-1.2 0-.6.3-.8.7-.5.3.4 1.3.1 2.2-.5.9-.7 1.3-.9.9-.4s0 1.5.8 2.4c1.1 1.1 1.8 1.2 2.7.3 1.5-1.5 3.2-1.4 1.9.2-.8 1-.2 1.2 2.9.9 2.1-.2 3.6-.8 3.3-1.3-.8-1.4 1.7-.6 3.6 1.1 1.9 1.7 2.2 4.3.5 3.6-.6-.2-1.2.2-1.2.9 0 1 .5 1.1 1.9.4 1-.6 1.6-1.4 1.3-2-.4-.5-.1-.9.5-.9s.9-.4.6-.8c-.2-.4.6-.8 1.9-.8 1.3 0 2.1.4 1.8 1-.4.5.1.7 1.2.2 1.5-.5 1.6-.4.5.9-1.1 1.4-1.4 1.3-2.5-.1-.6-1-1.4-1.3-1.7-.8-.3.5.6 1.8 2 2.8 1.4 1.1 2.2 1.4 1.8.8-.4-.7-.2-1.2.3-1.2.6 0 1.1.6 1.1 1.2 0 1 .3.9.9-.1.7-1 1.3-1.1 3.1-.1 1.5.8 2 .8 1.6.1-.4-.6-.2-1.1.4-1.1.6 0 .9-.4.6-.8-.2-.4 1-.8 2.7-.9 2.2 0 2.4.1.9.4-2.6.5-4 2.9-2.4 4.5.6.6 1.2.6 1.7-.3.5-.8.4-1-.3-.5-.7.4-1.2.1-1.2-.9 0-1.3.4-1.4 2.1-.4 1.2.6 1.9.7 1.6.1-.4-.5.5-1.4 1.8-2 1.4-.6 2.4-.8 2.4-.4-.3 1.9.2 2.6 1 1.3.5-.7 1.4-1 2-.7 1.7 1.1.4 2.5-1.9 2.1-1.3-.3-1.7.1-1.3 1.2.3.8.9 1.1 1.2.6.8-1.1 4-1.6 5.9-.8 1.3.5 1.4.8.3 1.4-1 .7-.9.9.3 1.4.9.4 1.5.1 1.3-.5-.1-.6 1.1-1.2 2.6-1.3 2.2-.2 2.7.2 2.2 1.4-.4 1.4-.4 1.4.7.1.7-.9 2-1.5 2.8-1.5.8.1 2.3-.3 3.3-.7 1.3-.7 1.9-.3 2.7 1.7 1.2 3.1 2 3.3 1.2.3-.4-1.6-.2-1.9.8-1.3.9.5 1.1.4.6-.3-.4-.7-.2-1.2.3-1.2.6 0 1.1.5 1.1 1.2 0 .6.3.8.6.5.4-.4.1-1.3-.6-2.2-.7-.9-1-1.8-.6-2.2.3-.3.6-.2.6.4 0 .7 1.6 1 4.1.8 3.6-.3 3.8-.2 2.3 1-1 .7-2.4 1.1-3.1.8-.7-.3-1.3 0-1.3.5 0 1.6 1.8 2.4 2.5 1.2.4-.6 1.1-.7 1.7-.4.7.4.8.2.4-.4-.5-.8.1-1.2 1.4-1.2 1.2 0 1.9-.4 1.6-.9-.3-.5.1-1.4.9-2.1.9-.8 1.5-.8 1.5-.2 0 .6-.6 1.3-1.2 1.5-.8.3-.5.6.5.6 1 .1 1.5.6 1.2 1.1-.4.6-1 .8-1.4.6-.4-.3-1.3 0-2.1.5-1.2.7-1.1.8.5.6 1.1-.1 2.5-.6 3.1-1 1.7-1 2.5.4 1.1 2.1-1 1.3-.9 1.4.1.8 1.7-1 4.3-6.2 3.4-7-.3-.4.1-.4 1.1 0 .9.3 1.7 1 1.7 1.6 0 .5-.4.7-.8.4-.4-.2-.8.5-.9 1.7 0 1.2.1 1.6.4.9.3-.6.9-1 1.4-.6.5.3.8.2.7-.3-.1-.4.1-1.8.6-3 .7-2.1.8-2.1 2.5-.5 1 .9 1.6 2.1 1.3 2.7-.3.6-.1.6.4.2.5-.5.9-1.4.9-1.9 0-.6.6-1.3 1.4-1.6.8-.3 1.1 0 .7.6-.3.5.2 1.3 1.1 1.6.9.4 2 .1 2.4-.6.6-.9 1-.8 1.5.5.3.9 1 1.7 1.6 1.7.5 0 .7-.4.3-.9-.3-.5 0-1.3.6-1.7.9-.5.6-1.1-.7-2.2-1.8-1.3-1.8-1.4.5-.7 1.8.5 2.2.4 1.6-.5-.5-.9-.4-1.1.4-.6.6.4.8 1.3.4 1.9-.5.8-.2.8.9 0 .8-.7 1.9-.9 2.3-.5.5.4.6 0 .3-.9-.7-2 1.9-2.1 2.6-.2.3.8.1 1.1-.4.8-.6-.3-1-.1-1 .5 0 .7.6 1 1.3.7.6-.2 1.1-1.6 1-3.2-.1-1.5-.1-2.6 0-2.4.2.2.9 1.3 1.7 2.3.8 1.1 1 1.7.4 1.3-1.2-.7-1.2 2.8 0 4 .4.5.7.3.6-.2-.5-2.3.1-3.7 1.3-3.2.8.3 1.4-.1 1.4-.8 0-.7-.6-1.1-1.4-.8-.8.3-1.3-.2-1.3-1.3s.4-1.5.8-.9c.4.5 1.8 1.2 3.2 1.3 1.4.2 3.1.9 3.9 1.5 1.2 1 1.3.9.3-.9-.9-1.6-.7-2.2 1-3.3 1.1-.7 1.8-.9 1.5-.4-.3.4.1 1.4.9 2.1 1.2 1.1 1.4 1 1.1-.5-.1-1-.6-2.5-1.1-3.3-.4-.8.2-.4 1.3.9 2.2 2.5 4.3 2.2 2.2-.3-.9-1.1-.9-1.6 0-2.2.7-.4.9-.3.5.4-.3.6-.2 1.3.4 1.7.5.3 1 .1 1-.5 0-.7.6-.5 1.5.4.9.8 2.3 1.2 3.2.9 1.2-.5 1.4-.3.8.7-.5.9-.4 1.1.4.6.9-.6.9-1.1 0-2.2s-1.4-1.2-1.9-.3c-.6.8-.9.8-1.4 0-.7-1 .6-1.6 2.8-1.2.4.1 1.5-.4 2.3-1.1.8-.7 3-1.1 4.9-.9 1.9.1 3.4-.2 3.4-.8 0-.6-.6-.9-1.2-.7-.7.1-1 .1-.5-.1.4-.3.5-.9.2-1.3-.3-.5.5-.7 1.7-.4 4.1 1 7.7 1.1 7.2.2-.7-1.1.3-1 2.7.2 1 .6 1.9.8 1.9.6 0-1.5-4.1-2.6-6.1-1.6-1.9 1.1-2 1-1-.9.6-1.1 1.6-2.3 2.3-2.7.7-.4.8-.3.4.4s-.4 1.2.1 1.3c.4 0 1.6.2 2.5.4 1.1.2 1.5-.2 1.1-1.1-.3-.8-1-1.1-1.6-.7-.6.4-.7.1-.3-.6.6-.9 1.2-.9 2.4.2 2.1 1.8 5 1.8 5.6 0 .3-.8 1-1.2 1.4-.9.5.3.9-.1.9-.9 0-1-.4-1.2-1.2-.5-.7.5-1.6.6-2 .2-.5-.4-.5-.2-.2.4.4.7 0 1.5-.9 1.8-1.9.7-1.8.9-3.3-2.4l-1.2-2.5 2 2.5c1.7 2.1 2.1 2.2 2.1.7 0-1.1.6-1.7 1.7-1.5 1 .2 1.8-.3 1.8-1.1 0-1.8 2.1-2.6 3-1.2.4.7-.1.8-1.2.4-1-.3-1.5-.3-1.2.1 1.2 1.3 5.3 1.5 6.1.3.6-.9 1.1-.9 1.9.3.9 1.2 1 1.2.5-.4-.5-1.4-.2-1.7.9-1.2 1.1.4 1.4.2.9-.6-.5-.7-.2-.9.9-.5s1.4.2 1.1-.8c-.5-1.1-1.4-.9-4.7 1.2-2.3 1.4-3.7 2-3 1.3.6-.7 1-1.8.9-2.4-.2-.6-.1-.8.1-.4.8 1.5 2.3.8 2.3-1 0-1.4.2-1.5 1-.2.9 1.4 1.1 1.3 1.4-.9 0-.5.4-1.2.9-1.5.4-.3.5-.3.3 0-.6.8 2.6 4.4 3.9 4.4.6 0 .6-.3-.1-.8-1.6-1-2.4-5.1-1.2-5.9.6-.3.8-.2.5.4-.4.6-.1 1.8.6 2.7 1.2 1.6 1.3 1.5 1.2-1.1 0-1.7.5-2.7 1.2-2.6.7.2 1.7-.6 2.3-1.7.7-1.2 1.6-1.7 2.7-1.3 1.2.5 1.4.3.8-.7-.5-.8-.4-1.1.3-.6.6.3 1.5-.1 2-1 .8-1.5 1.2-1.5 4.3.1l3.4 1.7-3.5-3.3c-2.9-2.6-3-2.9-.7-1.5 2.6 1.6 3.5 1.1 2-1-.5-.5.3.2 1.6 1.6 1.6 1.6 2.2 1.9 1.8.8-.4-1.2.1-1.9 1.6-2.4 1.2-.5 2.6-.7 3.1-.5.5.1.3-.5-.4-1.4-1.2-1.4-1.5-1.4-3.2.5-2.2 2.4-2.4 2.4-3.1.6-.4-1.1-.1-1.3 1.1-.9 1.5.6 1.6.5.2-1.2-.9-1.1-1-1.6-.2-1.1.7.4 1.2.2 1.2-.6 0-1 .2-1 .9.1s1.1 1 1.9-.4c.9-1.7 1-1.7 1.6.3.4 1.2 1.2 2.2 1.7 2.2.6 0 .8-.4.4-.9-.3-.5-.1-1.2.5-1.6.6-.4.8-1.1.5-1.6-.4-.5-.2-.9.4-.9.5 0 1.2.8 1.4 1.7.4 1.7.5 1.7.6 0 0-1 .5-1.6 1-1.2.5.3 1.3.1 1.6-.5.4-.6.1-.9-.7-.8-.8.2-1.2-.5-1-1.7.2-1.1.4-2.5.4-3.2.1-.7.5-1 1-.7.5.3.6.9.4 1.3-.3.3.4.7 1.4.7 1 0 1.6-.4 1.3-.9-.3-.4.3-1.4 1.3-2.1 1.1-.8 1.5-2 1.1-3-.4-1-.3-1.5.3-1.1.6.3 1 .1 1-.5s.5-.8 1.1-.4c.6.3.7.9.3 1.3-.5.3-1 1.3-1.2 2.1-.2 1.1.1 1.1 1.1-.3.8-.9 1.3-2.9 1-4.5-.2-1.7 0-2.1.4-1.2.9 1.7 3.7 2 5 .6.4-.5.3-.6-.4-.2-.7.4-1.3.2-1.3-.4 0-.6-.4-.9-.8-.6-.4.2-1.4-.5-2.2-1.7-1.1-1.9-1.1-2 .1-1.1 2.1 1.7 5.8 2.3 6.6 1.2.3-.7.1-.8-.5-.4-1.1.7-1.7-.8-1.2-2.9.1-.6.3-1.6.3-2.2 0-.9.4-1 1.4-.2 1.6 1.4 1.7 2.3.1 1.3-.6-.4-.8-.3-.4.4.3.5 0 1.3-.6 1.5-.8.3-.8.6-.2.6.6.1 2.2-.9 3.5-2.1 1.7-1.4 1.9-1.9.7-1.5-2.1.7-2.5-.8-.4-1.6.7-.3 1.9 0 2.6.6 1 .9 1.1.9.6 0-.4-.7.4-1.9 1.8-2.8 1.6-1.1 2.3-2.2 1.9-3.2-.5-1.2-.3-1.4.7-.8.9.5 1.1.4.6-.4-.5-.7-.9-2.3-1.1-3.7-.2-2 0-2.2 1.2-1.2 1 .8 1.1 1.3.3 1.8s-.7 1 .3 1.8c1.2 1 1.4.8 1.2-1.2-.2-1.4-.7-3.1-1.1-3.8-.4-.7.2-.4 1.5.6 1.2 1.1 1.9 2.6 1.6 3.3-.3.8 0 1.1.6.8.6-.4.8-1.3.5-2.1-.3-.7-.1-1.6.4-1.9.5-.3.8-2.1.6-4-.1-2 .2-3.3.8-3.2.6.1 1-.5.9-1.3-.2-.8.5-2 1.5-2.6 1.5-1 1.8-.8 1.9.8.1 1.4-.3 1.8-1.4 1.4-1.3-.5-1.4-.4-.3.9 1.5 1.8 2.3 1.3 2.5-1.7.1-1.2.7-2.4 1.5-2.6.8-.3 1 0 .5.8-.5.9-.4 1.1.3.6.9-.5.9-1.3.1-2.7-.7-1.5-.7-2.4.1-3.4.7-.8.7-1.5.1-1.9-1.1-.7-.9-3.2.4-4.3.4-.4.5-.3.1.4-.3.6.2 1.6 1.1 2.2 1 .6 1.4 1.1.8 1.1-.5 0-1.1 1.1-1.1 2.5-.2 2.8 1.1 3.5 1.4.7.5-4.4 1-5.6 2.8-6.3 1-.4 1.3-.8.6-.8-.7-.1-1-.7-.7-1.4.4-.6-.2-.1-1.3 1.2l-1.9 2.3.2-2.3c.2-2.5 3.4-3.6 4.8-1.6.4.7.5-.2.1-1.8-.4-1.7-1.2-3.3-1.8-3.7-.7-.5-.7-.8 0-.8.5 0 1.5.5 2.2 1.2.7.7 1.2.8 1.2.2 0-.5-.6-1.6-1.2-2.3-1.1-1-1-1.1.4-.6 1.3.5 1.6.2 1.3-1.4-.2-1.2-.7-2.6-1-3.1-.3-.6.1-.7.9-.4.9.3 1.4.9 1.1 1.3-.2.4.2.8 1 .8 1.3 0 1.3-.4-.1-2.5-1-1.5-1.1-2.1-.3-1.7.9.6 1.1.3.6-.8-.4-1.2-.2-1.4 1.1-1 1.5.6 1.5.4.4-.9-1.1-1.4-1-1.6.7-1.1 1.2.3 1.8 1 1.4 1.6-.3.6-.1.7.5.3.9-.5.9-1.2 0-2.6-.7-1-1.5-1.7-1.8-1.5-.4.2-.7-.3-.7-1.1 0-1.1.5-1 2.1.5s2.5 1.7 3.6 1c1.3-.9 1.2-1-.2-.6-1 .4-2.2-.3-3.3-1.9-1.1-1.7-1.2-2.3-.3-2.2.7.2 1.3-.5 1.3-1.5s.8-2.3 1.8-2.9c1.6-.9 1.7-.7.9.9-.5 1-.7 2.4-.4 3.2.3.8 0 1.1-.6.7-.6-.3-1.3-.2-1.6.3-.4.5-.2 1.2.3 1.5.5.4 1.2.2 1.6-.4.4-.6 1.1-.7 1.7-.4.7.4.7 0 0-1.3-.7-1.2-.7-2.5-.1-3.6 1.1-1.9.3-4.1-1.1-3.2-.5.3-1.2 0-1.6-.6-.4-.8-.3-.9.4-.5 1 .6 1.6-.4 1.4-2.5-.1-.3.5-.6 1.2-.6s1.3.6 1.3 1.3c0 .7-.4 1.1-.9.8-.4-.3-.8-.1-.8.4 0 .6.6 1.2 1.4 1.5.9.4 1.3 0 1.1-1.1-.1-.9.1-2.4.6-3.3.5-1 .3-2.4-.7-3.7-1.1-1.6-1.2-2.2-.2-2.8.7-.4 1-.4.6 0-.4.5-.2 1.4.5 2.1.9.9 1.4.7 2.4-1.3 1.6-3 1.6-3.2.2-3.2-.5 0-.8.4-.4.9.3.5 0 1.3-.6 1.7-.9.5-1 0-.6-1.5.4-1.8.2-2.1-1.1-1.7-1.3.5-1.2.3.2-.9 1.1-.8 1.6-1.5 1.1-1.5s-.1-.6 1-1.3c1.2-1 1.4-1.6.7-2.1-1.6-1-1.5-2.9.1-2.4 1.6.6 1.6 2.8 0 5.4-1.1 1.7-1.1 2.1.1 2.1.8 0 1.2-.6.8-1.5-.3-.9-.1-1.3.5-.9.7.5 1-.5.7-2.8-.2-2.1.1-3.3.6-3 .6.3.7-.1.3-1-.5-1.4-.8-1.4-1.5-.3-.8 1-.9 1-.5-.2.2-.8 1.3-1.5 2.5-1.5 1.1 0 2.5-.4 2.9-.9.4-.4.3-.6-.2-.4-.6.2-1.1-.2-1.3-.7-.2-.6-1.3-1.5-2.4-2.1-1.8-1-1.8-1.2-.4-1.7 1-.4 1.4-1.2 1-1.8-.3-.6 0-1.5.7-2 1.2-.8 1.2-1-.1-1.8-.8-.5-1.8-.7-2.4-.4-.5.3-.6.1-.2-.5.4-.6 1.4-.8 2.3-.5 1.2.5 1.4.3.8-.8-.5-.8-.4-1.1 0-.6 1.2 1 1.5 3.8.7 5.1-1.1 1.9-1 3.5.3 4.6 1 .8 1.5.8 2.1-.1.4-.7.3-.9-.4-.5-.6.3-1.3.2-1.6-.3-.4-.5-.2-1.2.3-1.5.5-.4.8-1.7.6-3.1-.2-2.6 2.5-5.1 4-3.7.5.4.5.1.1-.6-.5-.9-1.2-.9-2.7-.2-2.4 1.3-2.5.3-.1-2.3.9-1.1 1.1-1.7.5-1.3-.8.4-1.3.1-1.3-.9s-.5-1.3-1.2-.9-.8.3-.4-.4 1.4-1.2 2.2-1.2c.8 0 1.3-.6 1.2-1.2-.2-.7.3-1.2 1-1 .6.1 1.2-.3 1.2-.8 0-.6-1.4-.8-3.2-.5-3.3.5-3.3.5-.8-.9 1.4-.8 2.9-1.2 3.4-.9.5.4.6.1.2-.5-.4-.7-.9-2.1-1.1-3.3-.3-1.5 0-1.9 1-1.5.8.3 1.7.1 2-.5.4-.5.3-.9-.2-.8-2.2.4-3.2-.3-2.8-2 .2-1.2-.2-1.8-1.3-1.7-.9 0-1.7-.7-1.8-1.7-.1-1.2 0-1.3.3-.2.2.8.9 1.5 1.4 1.5 1.1 0 .8-3.8-.4-5.7-.8-1.3 1.8-1.2 3 .2.4.4.3.5-.3.2s-1.1 0-1.1.8c0 1.1.4 1.2 1.3.4 1-.8 1.1-1.6.3-3-.5-1.1-.7-2.4-.3-3.1.4-.6.1-.9-.7-.6-.8.3-1.3 1.1-1.1 1.7.1.6-.2 1.1-.7 1.1-.6 0-.9-.9-.8-1.9 0-1.1.5-1.7.9-1.5.4.3.8 0 .8-.6 0-.8.6-.8 2.3 0 2 1 2 1 .5-.3-1-.8-1.4-1.7-1-2.2.4-.4-.4-.5-1.8-.1-1.4.3-1.9.3-1.2 0 .6-.3 1.2-1 1.2-1.5 0-.6-.4-.8-.9-.4-.5.3-1.3 0-1.7-.7-.4-.7-.4-1 .1-.6.4.4 1.4.3 2.1-.3.8-.7 1.4-.6 2 .2.4.8.3.9-.4.5s-1.2-.5-1.2-.2.9 1 2.1 1.6c2 1.1 2 1.1.5-1.9-2.1-4-2-4.4.7-3l2.2 1.1-2.2-2.1c-2.7-2.6-2.7-2.5-.6-4.7 1.6-1.6 1.6-1.6-.7-.9-2.3.7-2.4.7-1-1 1.3-1.7 1.3-1.8-.1-1.3-.9.3-2.2.2-3-.3-1.2-.7-1.2-.9 0-.9.8 0 1.1-.3.8-.7-.4-.3-.2-1.2.4-1.9 1.2-1.5-1.2-5.9-2.6-4.6-.5.4-.5.1-.1-.6s1.1-1 1.6-.7c.5.3 1.1.1 1.5-.4.3-.5-.3-1.4-1.2-2-1.4-.8-1.5-1.1-.3-1.2.8-.1 2 0 2.5.1.6.1 0-.9-1.3-2.3-1.9-2.1-2.1-2.6-.8-3.6 1.1-.9 1.6-.9 2.2 0 .4.7.3.9-.3.6-.5-.3-1 0-1 .8 0 1.5 1.6 2.2 1.8.7 0-.4.2-1.4.4-2.4.2-1.2-.3-1.5-2.1-1.3-1.3.1-2.4-.2-2.4-.6 0-.5.9-.9 2-.9s2-.4 2-.9c0-.4-1.1-.7-2.5-.6-1.4.2-2.3-.1-1.9-.6.3-.5.9-.7 1.4-.4.4.3 1.3-.2 2-1s1.7-1.2 2.3-.8c.6.3.7.1.3-.6-.4-.6-1.1-.9-1.5-.7-.4.3-1.3.1-2.1-.4-1.1-.7-1.1-1.1-.1-2.4 1-1.2 1.1-1.6.1-1.6-.7 0-1-.7-.6-1.6.4-.9.2-1.3-.5-.8-.8.4-.9-.1-.4-1.5.3-1.2.2-2.1-.3-2.1-1.1 0-.9 3.4.3 6.2.8 2-.2 2.3-2.5.8-.9-.6-1-1-.3-1 1.2 0 1.2-3.7 0-5.7-.4-.6-.2-1.5.4-1.9.8-.5.9-.3.4.6-.5.8-.4 1.1.3.6 1.3-.8.7-4.5-.9-6-.9-.8-1-.7-.4.3s.4 1.2-.4.6c-.9-.5-.9-1.1-.3-1.7.6-.6.8-1.7.5-2.6-.4-.8-.2-1.3.3-.9.6.3 1.1-.4 1.1-1.6.2-1.7 0-1.9-.7-.7-.5.8-1 1.3-1.1 1 0-.3-.2-1.3-.4-2.3-.3-1.4.1-1.7 1.3-1.2 1.4.5 1.4.4-.1-1.3-.9-1-1.4-2.2-1-2.7.5-.4.3-.5-.4-.2-1.3.8-4.6-2-3.8-3.3.3-.5-.5-1.6-1.7-2.4-2.9-2-1.6-2 2.5-.1 3 1.5 3.1 1.5 1.2 0-1.1-.9-1.9-2.1-1.7-2.6.1-.6-.2-.8-.8-.4-.5.3-1 0-1-.7 0-1.1-.2-1.1-.9 0-.5.8-.8-.5-.9-3.3-.2-2.9.2-4.4.8-4 .5.3 1 .1 1-.4 0-1.4-1.3-1.4-2.8.1-.9.9-1.5.9-2.4-.1-1.1-1-.9-1.1.6-.5 2 .8 1.8-.2-.8-3.5-.5-.7-1.1-2-1.2-2.8-.2-1.1.1-1.2 1.2-.2.7.6 1.1 1.6.7 2.2-.3.6-.1.7.5.3.7-.4 1.2-1 1.2-1.4 0-1-3.8-3.3-6.2-3.7-4-.8-3.1-1.5 1.3-1.1 3.9.5 4.1.4 1.9-.6-2.8-1.3-3.5-1.5-5.1-1.7-.5 0-.8-.5-.4-1 .3-.5.1-1.2-.5-1.6-.5-.3-1-1.2-1-1.8 0-.7.8 0 1.8 1.6l1.9 2.7 1.9-2.2c1.6-1.9 1.6-2 .1-.9-.9.8-2.1 1.1-2.4.7-.4-.4-.1-1.2.7-1.7 1.2-.9 1.2-1-.3-.5s-1.7.2-1.2-1.4c.4-1.2.2-2-.5-2-.6 0-.9.4-.6.8.2.4-.5.9-1.7.9-1.8.2-1.7-.1.8-1.9 1.7-1.1 2.2-1.7 1.3-1.4-5.4 1.9-5.4 1.8-3.8.7 1.3-.9 1.3-1.1 0-1.2-.8-.1-1.8-.1-2.2 0-.5 0-.8-.3-.8-.9 0-.5.5-1 1.1-1 .6 0 .9-.6.6-1.3-.2-.6-1-1.1-1.6-.9-.7.1-.4-.9.6-2.5l1.7-2.8-2.4 2c-1.3 1.1-2 1.5-1.7.8.4-.6.2-1.3-.5-1.6-.7-.2-.6-.3.2-.2.8.1 2.4-.7 3.5-1.8s1.4-1.6.6-1.2c-1.8 1-6.1 1.5-6 .7.1-.4.1-1.4 0-2.2-.1-1.3-.3-1.3-1.2 0-.9 1.3-1 1.3-.6-.2.5-1.5-1.3-4.2-2.4-3.5-.2.1.4-.6 1.4-1.6.9-1 1.7-2.2 1.7-2.8 0-.6-.7-.3-1.6.6-1.5 1.5-1.8 1.5-3.5-.1-1.1-1-1.7-2-1.4-2.3.4-.3.9-.1 1.3.4.4.6 1.4 1.1 2.2 1.3 1.2.3 1.2 0-.2-1.5-.8-1-1.4-2.6-1.3-3.5.2-1 0-1.7-.3-1.6-1 .3-5.2-2.6-5.2-3.5 0-.4.6-.5 1.3-.1.6.5-.1-.8-1.8-2.7-1.6-2-3.2-3.4-3.4-3.3-.2.2.1 1 .7 1.7.9 1 .8 1.4-.3 1.4-.7 0-1.4-.3-1.3-.6.2-2.1-.4-3.1-1.4-2.5-.7.4-1 .4-.6-.1.4-.4.3-1.6-.2-2.6-.6-1-.6-2-.1-2.3.5-.3 1.1.3 1.4 1.4.3 1.1 1.1 2 1.9 2 .8 0 .9-.3.2-.8-.6-.4-1.3-1.5-1.7-2.5-.4-.9-1-1.6-1.4-1.5-1.4.5-6.3-4.5-5.6-5.6.3-.6.2-.7-.2-.3-1.3 1.1-1.5 3.8-.3 3.1.7-.5.8-.2.3.6s-.4 1.1.3.6c.6-.3 1.3-.3 1.6.2.2.4-.4.9-1.5.9-1 .1-1.9-.1-2-.5-.1-.4-.3-2.4-.4-4.5-.3-3.9-1.5-6.5-1.5-3.4 0 1.1-.5 1.4-1.7 1-1.2-.5-1.4-.3-.8.7.5.8.4 1.1-.3.6-.6-.4-.9-1.3-.6-2.1.4-.8 1-1.2 1.5-.9.5.3.9 0 .9-.6 0-.7-.7-1-1.5-.6-.8.3-2.1-.4-2.9-1.5-.7-1.1-2.2-1.9-3.2-1.7-1 .2-1.9-.2-1.9-.7-.1-2.2-1.7-3.6-2.9-2.6s-1.5-.2-1.6-6.4c-.1-1.5-.3-1.7-1-.6-.4.8-.7 1.9-.6 2.5.2.6.1.8-.1.4-.3-.4-.4-1-.3-1.4.3-1.4-2.5-2.2-4.3-1.2-1.3.6-1.7.7-1.3 0 1-1.7-.5-4.1-2.2-3.5-1.5.4-1.5.3-.2-.6 1.1-.8 1.8-.7 2.6.4.6.8 1.5 1.1 1.9.7.5-.4.5-.2.2.5-.8 1.2 1.7 1.2 3-.1.4-.4.1-.6-.7-.4-.8.2-1.4-.2-1.3-.9.2-.7-.3-1-1.1-.7-.7.3-1.9-.2-2.6-1.1-1-1.2-1.6-1.3-2.8-.3-1.3 1.1-1.4 1.1-.7-.2.4-.8 1.5-2.4 2.4-3.5 1.5-1.9 1.5-1.9-.4-.4-1.1.9-2.7 1.4-3.5 1.2-1.2-.4-1.2-.3-.2.5 1.1.8 1.1 1-.1 1.5-1.2.5-1.5-.1-1.2-2.5.4-2.5.2-2.8-1.1-1.8-.8.7-1.8 1-2.1.6-.4-.4-.2-1 .4-1.4.8-.5.9-1.3.3-2.2-.8-1.3-1-1.3-1 .1 0 2.5-3.5 3-4.9.7-.6-1-1.6-1.6-2.1-1.3-.6.3-1 .1-1-.4 0-1.4 1.3-1.4 2.8.1.8.8 1.2.8 1.2.1 0-.6-1.4-1.7-3.1-2.5-1.7-.9-3-1.8-3-2.2.2-1.8 0-2.4-1.2-2.9-.8-.3-1.4.1-1.4.9 0 .7.5 1 1 .7.6-.4.7-.1.2.7-.6.9-.4 1.1.5.5.9-.6 1.1-.4.5.5-.4.7-.2 1.6.6 2.1 1.1.7 1.1.9.1.9-.7 0-1.5-.7-1.8-1.5-.4-.8-1.1-1.2-1.7-.8-.5.3-.7.2-.4-.3.3-.6.2-1.6-.3-2.4-.8-1.3-1.3-1.3-3.2-.1-2.3 1.4-2.3 1.3-.5-.6 1.6-1.9 1.6-2.1.2-2.7-.9-.3-1.4-1-1.1-1.5.9-1.4-1.9-.7-3.9.9-1.4 1.1-1.6 1.1-1.3-.1.2-.8-.3-1.3-.9-1.1-1.1.2-1.8-2.5-1.4-5.1 0-.4-.3-.7-.9-.7-.5 0-.7 1.3-.5 2.8.2 2-.1 2.9-1.1 2.9s-1.1-.4-.2-1.4c1.3-1.6.7-2.4-2.1-2.6-1.6-.1-2-.6-1.5-2.1s.3-1.8-1-1.3c-1 .4-1.9.1-2.3-.8-.3-1-1.2-1.3-2.5-.9-1.1.3-1.8.2-1.5-.3.3-.5.2-1.5-.2-2.2-.6-1-1-.9-1.4.4-.4.9-.3 1.3.3 1 1.5-.9 1.2.1-.4 1.4-1.2 1-1.4.8-1.1-1.6.3-2.6.1-2.9-2.9-2.9-2.7 0-3.3.4-3.2 2.1.1 2.1 3.1 2.9 3.1.8 0-.6.3-1.5.8-1.9.4-.4.7.2.7 1.4s-.3 2.3-.7 2.3c-.5.1-2 .3-3.5.4-1.5.2-3.5.8-4.6 1.4-1.3.7-2.2.7-3-.1-1.8-1.8-1.4.4.5 3.1.9 1.4 1.2 2.1.6 1.8-.6-.4-1.4-.1-1.7.5-.3.7-.4.4-.3-.7.1-1.1-.3-1.9-.9-1.8-.7.1-.9-.8-.6-2.2.3-2.1.1-2.4-1.8-2-1.6.3-2 0-1.6-1.1.3-.9.6-1.8.6-2 0-.2.4-.4 1-.4.5 0 .6.7.3 1.7-.4 1.1-.3 1.4.5.9.6-.4 1.1-1.8 1-3.1-.1-1.3-.6-2.1-1.1-1.8-.5.3-.7 0-.5-.8.3-.8 1-1.3 1.6-1.2.6.2.9-.4.5-1.3-.5-1.2-.8-1.2-2 .6-.8 1.1-1.2 2.4-.9 2.9.3.5 0 1.1-.7 1.4-.7.3-1.2-.4-1.2-1.8 0-1.3.4-2.1.9-1.8.5.3.6 0 .4-.8-.3-.8-1.1-1.3-1.7-1.1-.7.1-1-.2-.7-.7.4-.5.3-1.1-.1-1.4-.5-.2-.2-.2.5 0 .8.1 1.2-.3.9-.9-.2-.7-1.3-1.2-2.3-1.1-1 .1-1.3 0-.6-.3.6-.3.9-1.1.6-1.6-.5-.7-.2-.8.6-.3 1 .6 1.2.4.7-.9-.4-.9-.3-1.5.2-1.2.5.3 1.5-.2 2.2-1.1 1.2-1.5 1.2-1.6-.4-1-1.6.6-1.6.5-.1-1.8 1.2-1.9 1.3-2.8.4-4.6-.9-1.7-.9-2 0-1.4.8.5 1.1.3.8-.6-.3-.8-1.2-1.3-1.9-1.1-1.1.3-1.1.1-.2-.9 1-1 .9-1.5-.4-2.4-1.4-1-1.3-1.2.5-1 1.2.1 2.5.5 2.9 1 .5.4.1.5-.7 0-.8-.5-1.2-.4-.7 0 1.1 1.2 3.7 1.5 3.7.4 0-.5-.4-.9-1-.9-.5 0-.9-.3-.8-.8.4-1.1-2.4-4.5-4.8-5.9-1.7-.9-2.4-.9-3.4 0s-1.1.9-.4-.3c1.3-2.4 1.2-5.9-.3-6.4-1.1-.4-1.1-.1-.3 1.4.8 1.4.8 2 0 2-.6 0-.9.4-.6.8.3.5-.1.9-.9.9-1.1 0-1.2-.3-.3-1.4.8-1 .8-1.7-.2-2.6-1-1-1.1-.9-.5.2.6 1.1.4 1.3-.9.8-1-.4-2-.7-2.2-.7-.3 0-.2-.6.2-1.3.6-1 .4-1-.7 0-1.6 1.5-3.3 1.7-2.4.3.3-.6.4-1 .1-1-.3 0-.7.3-.7.7zm5.1 4.7c0 .6-.6.2-1.2-.8-1-1.8-1.1-1.8-3 .5-1 1.3-1.7 1.7-1.6.9.5-2.4 3.1-4 4.5-2.8.7.6 1.3 1.6 1.3 2.2zm7.5 3.6c.4.6.1.9-.7.8-.7-.2-1.2.3-1 1 .1.8-.2 1.1-.8.7-.8-.5-.7-1.1.1-2.1 1.4-1.7 1.6-1.7 2.4-.4zm3.8 1.8c1.6 1.8 1.5 1.8-1.6 1.3-1.9-.3-2.5-.6-1.4-.9.9-.2 1.5-.8 1.2-1.3-1-1.5.1-1 1.8.9zM293 15.4c0 .2-.7.7-1.6 1-.8.3-1.2.2-.9-.4.6-1 2.5-1.4 2.5-.6zm30 4.6c0 .5-.2 1-.4 1-.3 0-.8-.5-1.1-1-.3-.6-.1-1 .4-1 .6 0 1.1.4 1.1 1zm2 7.4c0 .2-.7.7-1.6 1-.8.3-1.2.2-.9-.4.6-1 2.5-1.4 2.5-.6zm-39 2c0 .2-.7.6-1.5 1-.8.3-1.5.1-1.5-.4 0-.6.7-1 1.5-1s1.5.2 1.5.4zm-70 1.2c0 .8-1.9 1.3-2.4.6-.3-.5.1-.9.9-.9s1.5.2 1.5.3zm36.8 1.9c-.3.3-.9-.2-1.2-1.2-.6-1.4-.5-1.5.5-.6.7.7 1 1.5.7 1.8zM227 32c0 .5-.2 1-.4 1-.3 0-.8-.5-1.1-1-.3-.6-.1-1 .4-1 .6 0 1.1.4 1.1 1zm94 2c0 .5-.2 1-.4 1-.3 0-.8-.5-1.1-1-.3-.6-.1-1 .4-1 .6 0 1.1.4 1.1 1zm-6.3 1.5c0 .8-.4 1.2-.9.9-.5-.3-.6-1-.3-1.5.9-1.3 1.2-1.1 1.2.6zm-3.7 6.1c0 .8-1.9 1.3-2.4.6-.3-.5.1-.9.9-.9s1.5.2 1.5.3zm11.5.4c.3.5.1 1-.4 1-.6 0-1.1-.5-1.1-1 0-.6.2-1 .4-1 .3 0 .8.4 1.1 1zm18.2 5.5c0 .8-.4 1.2-.9.9-.5-.3-.6-1-.3-1.5.9-1.3 1.2-1.1 1.2.6zm-184.3 3.6c-.3.5-1.1.9-1.7.9-.8 0-.8-.3.2-.9.8-.5.9-1.1.3-1.5-.6-.3-1.3-.2-1.7.4-.3.5-1.1 1-1.8 1-.6 0-.2-.6.9-1.4 2-1.5 5-.3 3.8 1.5zm195 1.3c1.1 1.8 1.3 2.7.4 3.2-.7.4-.8.3-.4-.5.5-.7-.5-1.6-2.5-2.5-2.7-1.2-3-1.5-1.3-1.9 1-.2 2-.5 2-.6.1 0 .9 1 1.8 2.3zM146 52c0 .5-.2 1-.4 1-.3 0-.8-.5-1.1-1-.3-.6-.1-1 .4-1 .6 0 1.1.4 1.1 1zm189.7 1.7c-.9.2-1.4.9-1.1 1.5.4.7.2.8-.5.4-1.5-1-.4-2.6 1.7-2.5 1.5.1 1.5.2-.1.6zM136 59.5c1.4 1.8 1.3 1.9-.1.8-1.6-1.3-2.9-.8-2.9.9 0 .5.5.6 1.2.2.7-.4.8-.3.4.4-.9 1.5-3.8.3-2.9-1.2.9-1.7 2.6-3.7 2.7-3.4.1.2.8 1.2 1.6 2.3zm7-1.5c0 .5-.5 1-1.1 1-.5 0-.7-.5-.4-1 .3-.6.8-1 1.1-1 .2 0 .4.4.4 1zm191.4.2c-.5.8-.1.9 1.2.4 1.4-.5 1.6-.4.7.5-1.3 1.3-3.7.3-2.8-1.2.4-.5.8-.9 1.1-.9.3 0 .2.5-.2 1.2zm-7 1.6c.3.5-.1.9-.9.9s-1.2-.4-.9-.9c.3-.4.7-.8.9-.8.2 0 .6.4.9.8zm41.1 2c-1 1-3.5 1.1-3.5.1 0-.5.5-.9 1.1-.9.5 0 .7-.6.3-1.3-.5-.8-.2-.7.9.2 1 .8 1.5 1.6 1.2 1.9zm-93.8.7c0 .8-.4 1.2-.9.9-.5-.3-.6-1-.3-1.5.9-1.3 1.2-1.1 1.2.6zm63.7-.6c-.8.8-4.3.8-3.8 0 .2-.4 1.3-.7 2.4-.6 1 .1 1.7.3 1.4.6zm-8.1 1.4c.4-.3.7-.1.7.5 0 1.7-1.6 1.5-3.1-.6-1.2-1.5-1.2-1.6.2-.5.9.7 1.9 1 2.2.6zm-19.9 2.9c-.3.4-1.1.5-1.9.1-2.1-.7-1.9-1.2.4-1 1.1 0 1.8.5 1.5.9zm28-.4c.3.5-.1.9-.9.9s-1.2-.4-.9-.9c.3-.4.7-.8.9-.8.2 0 .6.4.9.8zm-3.9 1.1c.3.5.2 1.2-.3 1.5-.5.3-.9-.1-.9-.9 0-1.7.3-1.9 1.2-.6zm-27.1.9c.3.5-.1.9-.9.9s-1.2-.4-.9-.9c.3-.4.7-.8.9-.8.2 0 .6.4.9.8zm21.4 2.7c-.3.3-.9-.2-1.2-1.2-.6-1.4-.5-1.5.5-.6.7.7 1 1.5.7 1.8zM123 70c0 .5-.5 1-1.1 1-.5 0-.7-.5-.4-1 .3-.6.8-1 1.1-1 .2 0 .4.4.4 1zm185.7.7c-1.4 1.4-1.9 1.5-2.9.4-1.1-1-1-1.1.3-.6 1 .4 2 .2 2.4-.4.3-.6.9-1.1 1.3-1.1.3 0-.1.8-1.1 1.7zm30.3-1.3c0 .3-.4.8-1 1.1-.5.3-1 .1-1-.4 0-.6.5-1.1 1-1.1.6 0 1 .2 1 .4zm-219.9 2.9c-.6.8-.7 1.8-.3 2.2.4.5.1.5-.6.1-1-.6-1-1.1-.1-2.2.6-.8 1.4-1.4 1.6-1.4.3 0 0 .6-.6 1.3zm185.3-.5c.3.5-.1.9-.9.9s-1.2-.4-.9-.9c.3-.4.7-.8.9-.8.2 0 .6.4.9.8zm8.3.7c0 .8-.4 1.2-.9.9-.5-.3-.6-1-.3-1.5.9-1.3 1.2-1.1 1.2.6zm-3.7 3.6c0 .4-.9.7-1.9.6-1.1 0-1.8-.4-1.6-.7.6-.9 3.5-.8 3.5.1zm-196.7 1.4c-.3.9-.8 1.4-1 1.1-.3-.3-.2-.9.2-1.5.9-1.6 1.5-1.3.8.4zm276.4 0c0 .8-.4 1.2-.9.9-.5-.3-.6-1-.3-1.5.9-1.3 1.2-1.1 1.2.6zm-122.2.4c-.9.8-3.6 1-3 .2.2-.4 1.1-.8 2-.8.8 0 1.3.3 1 .6zm30.5.6c0 .2-.9.3-1.9.2-1.1 0-1.8-.5-1.5-.9.4-.6 3.4 0 3.4.7zm7.5 2.5c1 1.1 1.6 2 1.3 2-.3 0-1.3-.9-2.3-2-1-1.1-1.6-2-1.3-2 .3 0 1.3.9 2.3 2zm40.5-1c0 .5-.2 1-.4 1-.3 0-.8-.5-1.1-1-.3-.6-.1-1 .4-1 .6 0 1.1.4 1.1 1zm-54 2c0 .5-.2 1-.4 1-.3 0-.8-.5-1.1-1-.3-.6-.1-1 .4-1 .6 0 1.1.4 1.1 1zm10 1.5c1.4 1.9 1.4 1.9-.2.6-1-.7-1.8-1.8-1.8-2.4 0-.6.1-.8.3-.6.1.2.9 1.3 1.7 2.4zm9.6.4c0 1.1-.5 1.7-1.3 1.4-1-.4-1.1-.9-.2-1.9 1.5-1.8 1.5-1.8 1.5.5zm-23.6-.3c0 .8-1.9 1.3-2.4.6-.3-.5.1-.9.9-.9s1.5.2 1.5.3zM97.7 87.4c-1.2 1.3-1.6 1.3-2 .2-.7-1.8 1.4-3.9 2.6-2.7.6.6.4 1.6-.6 2.5zm165-.9c0 .8-.4 1.2-.9.9-.5-.3-.6-1-.3-1.5.9-1.3 1.2-1.1 1.2.6zm22.1 2c-.3.3-.9-.2-1.2-1.2-.6-1.4-.5-1.5.5-.6.7.7 1 1.5.7 1.8zm25.2-.6c0 .4-.6.8-1.3.8-.8 0-1.4-.6-1.4-1.3 0-.7.6-1 1.4-.7.7.3 1.3.8 1.3 1.2zm-35.5 1c.3.5.2 1.2-.3 1.5-.5.3-.9-.1-.9-.9 0-1.7.3-1.9 1.2-.6zM305 90c0 .5-.5 1-1.1 1-.5 0-.7-.5-.4-1 .3-.6.8-1 1.1-1 .2 0 .4.4.4 1zm-10.9 3.7c-1.2 2-1.4 1.4-.5-1.2.4-.9.9-1.4 1.1-1.1.3.2 0 1.3-.6 2.3zm16.4-.8c.3.5.2 1.2-.3 1.5-.5.3-.9-.1-.9-.9 0-1.7.3-1.9 1.2-.6zm-36.1 2.9c.3.5-.1.9-.9.9s-1.2-.4-.9-.9c.3-.4.7-.8.9-.8.2 0 .6.4.9.8zm16.1 2.1c.3.5.2 1.2-.3 1.5-.5.3-.9-.1-.9-.9 0-1.7.3-1.9 1.2-.6zm33.8 1.6c-.3.9-.8 1.4-1 1.1-.3-.3-.2-.9.2-1.5.9-1.6 1.5-1.3.8.4zm91.1.6c-.8 1.4-2.1 1.1-2.1-.5 0-.8.6-1.2 1.4-.9.7.3 1 .9.7 1.4zm-333.6 1.4c0 1.4-.4 2.7-.8 3-.3.2-.5-.6-.4-1.8.1-1.2.3-2.5.3-3 .2-1.8.9-.5.9 1.8zm188.7-1.5c.3.5.1 1-.4 1-.6 0-1.1-.5-1.1-1 0-.6.2-1 .4-1 .3 0 .8.4 1.1 1zm40.5-.6c0 .2-.7.7-1.6 1-.8.3-1.2.2-.9-.4.6-1 2.5-1.4 2.5-.6zm-26 2c0 .3-.4.8-1 1.1-.5.3-1 .1-1-.4 0-.6.5-1.1 1-1.1.6 0 1 .2 1 .4zm135.3 2.1c-.3.9-.8 1.4-1 1.1-.3-.3-.2-.9.2-1.5.9-1.6 1.5-1.3.8.4zM311 105.6c0 .8-1.9 1.3-2.4.6-.3-.5.1-.9.9-.9s1.5.2 1.5.3zm37.1 1.7c-1 .9-1.1.8-.5-.6.3-1 .9-1.5 1.2-1.2.3.3 0 1.1-.7 1.8zm-17.8.2c-.3.9-.8 1.4-1 1.1-.3-.3-.2-.9.2-1.5.9-1.6 1.5-1.3.8.4zm-254 3.5c-.3 1.2-.8 1.9-1.1 1.6-.5-.6.5-3.6 1.2-3.6.2 0 .2.9-.1 2zm186.4-.5c0 .8-.4 1.2-.9.9-.5-.3-.6-1-.3-1.5.9-1.3 1.2-1.1 1.2.6zm164.8-.5c.3.5.1 1-.4 1-.6 0-1.1-.5-1.1-1 0-.6.2-1 .4-1 .3 0 .8.4 1.1 1zm-3.4 2.3c-1 .9-1.1.8-.5-.6.3-1 .9-1.5 1.2-1.2.3.3 0 1.1-.7 1.8zm-181.5 5.3c.1.9 0 1.3-.4 1-.3-.4-.7-1.4-.8-2.2-.1-.9 0-1.3.4-1 .3.4.7 1.4.8 2.2zm-4 2.9c-.1.8-.5 1.7-.8 2.1-.5.4-.4-1.6.1-3.4.3-.9.9.1.7 1.3zm196.8-.7c.2.4-.7.8-2.2.9-2.4.2-2.4.1-.7-.7 1.1-.5 2.1-.9 2.2-.9.1-.1.4.3.7.7zM332 121.6c0 .8-1.9 1.3-2.4.6-.3-.5.1-.9.9-.9s1.5.2 1.5.3zm-19.5 1.3c.3.5.2 1.2-.3 1.5-.5.3-.9-.1-.9-.9 0-1.7.3-1.9 1.2-.6zm122.2 1.3c-.3.8-.6.5-.6-.6-.1-1.1.2-1.7.5-1.3.3.3.4 1.2.1 1.9zm5.8 3.7c-.9.9-3.5 1-3 .1.3-.5.1-1.1-.5-1.5-.6-.4-.8-1.1-.4-1.6.4-.6 1.4-.3 2.5.7 1.1.9 1.7 2 1.4 2.3zm-201.8-1.4c0 .8-.4 1.2-.9.9-.5-.3-.6-1-.3-1.5.9-1.3 1.2-1.1 1.2.6zm32.7-.7c.3.5-.1.9-.9.9s-1.2-.4-.9-.9c.3-.4.7-.8.9-.8.2 0 .6.4.9.8zm60.6-.2c0 .8-1.9 1.3-2.4.6-.3-.5.1-.9.9-.9s1.5.2 1.5.3zm5 .4c0 .5-.2 1-.4 1-.3 0-.8-.5-1.1-1-.3-.6-.1-1 .4-1 .6 0 1.1.4 1.1 1zm-100.4 4.2c.3.4-.1.5-1 .4-.8-.1-1.8-.5-2.2-.8-.3-.4.1-.5 1-.4.8.1 1.8.5 2.2.8zm30.4-.6c0 .8-1.9 1.3-2.4.6-.3-.5.1-.9.9-.9s1.5.2 1.5.3zm-208.3 2.8c0 .8-.8 1.1-2 .8-1.4-.4-1.6-.7-.5-1.3 1.9-1.2 2.5-1.1 2.5.5zm198 .1c0 .8-.4 1.2-.9.9-.5-.3-.6-1-.3-1.5.9-1.3 1.2-1.1 1.2.6zm58.3-.5c0 .5-.5 1-1.1 1-.5 0-.7-.5-.4-1 .3-.6.8-1 1.1-1 .2 0 .4.4.4 1zm-83 5.6c0 .8-1.9 1.3-2.4.6-.3-.5.1-.9.9-.9s1.5.2 1.5.3zm102 2c0 .8-1.9 1.3-2.4.6-.3-.5.1-.9.9-.9s1.5.2 1.5.3zm-107.3 1.9c0 .8-.4 1.2-.9.9-.5-.3-.6-1-.3-1.5.9-1.3 1.2-1.1 1.2.6zm16.3.1c0 .8-1.9 1.3-2.4.6-.3-.5.1-.9.9-.9s1.5.2 1.5.3zm115.7.1c-.4.3-.1 1.3.6 2.2 1.1 1.4 1 1.4-.5.2-1.6-1.2-1.6-3.1-.1-3.1.4 0 .3.3 0 .7zm-25.7 2.1c0 .5-.7.9-1.5.9s-1.2-.4-.9-.9c.3-.4.9-.8 1.5-.8.5 0 .9.4.9.8zm3.5.2c.3.5.1 1-.4 1-.6 0-1.1-.5-1.1-1 0-.6.2-1 .4-1 .3 0 .8.4 1.1 1zM227 146c0 .5-.5 1-1.1 1-.5 0-.7-.5-.4-1 .3-.6.8-1 1.1-1 .2 0 .4.4.4 1zm133.1 2.7c1.3 1.6 1.2 1.7-.3.4-1.7-1.3-2.2-2.1-1.4-2.1.2 0 1 .8 1.7 1.7zm-137.6 2.2c.3.5.2 1.2-.3 1.5-.5.3-.9-.1-.9-.9 0-1.7.3-1.9 1.2-.6zm34 4c.3.5.2 1.2-.3 1.5-.5.3-.9-.1-.9-.9 0-1.7.3-1.9 1.2-.6zm-212.1 1.9c-.5.4-1.2 1.1-1.5 1.5-.3.5-.9.2-1.2-.5-.3-.9.3-1.4 1.5-1.5 1.1-.1 1.6.1 1.2.5zm174.1 5.1c.3.5.2 1.2-.3 1.5-.5.3-.9-.1-.9-.9 0-1.7.3-1.9 1.2-.6zm121.5-.3c0 .8-1.9 1.3-2.4.6-.3-.5.1-.9.9-.9s1.5.2 1.5.3zM39.5 163c-.3.5 0 1 .7 1.1 1 0 1 .2.1.6-.7.2-1.3.9-1.3 1.4 0 .6.5.7 1 .4.6-.3 1-.4 1-.1 0 1.8-2.1 1.2-3.5-1-.9-1.5-1.2-2.4-.7-2 .6.3 1.3.2 1.7-.4.3-.5.8-1 1.1-1 .3 0 .2.4-.1 1zm-2.3 7.7c-.6.3-.9 1-.6 1.5.4.7.2.8-.5.4-.9-.6-.9-1.1 0-2.2.6-.8 1.5-1.2 1.8-.8.3.4 0 .9-.7 1.1zM225 170c0 .5-.2 1-.4 1-.3 0-.8-.5-1.1-1-.3-.6-.1-1 .4-1 .6 0 1.1.4 1.1 1zm140 0c0 .5-.5 1-1.1 1-.5 0-.7-.5-.4-1 .3-.6.8-1 1.1-1 .2 0 .4.4.4 1zm-49.6 3.8c.3.5-.1.9-.9.9s-1.2-.4-.9-.9c.3-.4.7-.8.9-.8.2 0 .6.4.9.8zM367 176c0 .5-.5 1-1.1 1-.5 0-.7-.5-.4-1 .3-.6.8-1 1.1-1 .2 0 .4.4.4 1zm-142 1.4c0 .3-.4.8-1 1.1-.5.3-1 .1-1-.4 0-.6.5-1.1 1-1.1.6 0 1 .2 1 .4zm13.3 2.1c-.7 2.1-1.2 1.9-1-.4 0-1.1.5-1.8.9-1.5.4.3.5 1.1.1 1.9zm100.7-2.1c0 .3-.4.8-1 1.1-.5.3-1 .1-1-.4 0-.6.5-1.1 1-1.1.6 0 1 .2 1 .4zm-306.2 4.8c-.6 1.6-2.1 1.4-2.4-.4-.1-1.1.3-1.5 1.2-1.1.8.3 1.3 1 1.2 1.5zm185.7-1.3c.3.5.2 1.2-.3 1.5-.5.3-.9-.1-.9-.9 0-1.7.3-1.9 1.2-.6zm121.9 2.9c.3.5-.1.9-.9.9s-1.2-.4-.9-.9c.3-.4.7-.8.9-.8.2 0 .6.4.9.8zm-107.9 3.1c.3.5.2 1.2-.3 1.5-.5.3-.9-.1-.9-.9 0-1.7.3-1.9 1.2-.6zm-35.8 1.6c0 .8-.4 1.2-.9.9-.5-.3-.6-1-.3-1.5.9-1.3 1.2-1.1 1.2.6zM371 188c0 .5-.5 1-1.1 1-.5 0-.7-.5-.4-1 .3-.6.8-1 1.1-1 .2 0 .4.4.4 1zm97.8 2.5c-.3.3-.9-.2-1.2-1.2-.6-1.4-.5-1.5.5-.6.7.7 1 1.5.7 1.8zM215.5 192c.3.6-.1.7-.9.4-1.8-.7-2.1-1.4-.7-1.4.6 0 1.3.4 1.6 1zm15.1 2.2c.3.4-.1.5-1 .4-.8-.1-1.8-.5-2.2-.8-.3-.4.1-.5 1-.4.8.1 1.8.5 2.2.8zm243.2 1.6c.2.6-.5 1-1.6.9-1 0-1.9-.6-1.9-1.3 0-1.5 3-1.1 3.5.4zm-156.8-.2c0 .8-1.9 1.3-2.4.6-.3-.5.1-.9.9-.9s1.5.2 1.5.3zm-104 1.9c0 .7-3 1.3-3.4.7-.3-.4.4-.9 1.5-.9 1-.1 1.9 0 1.9.2zm162 .5c0 .5-.2 1-.4 1-.3 0-.8-.5-1.1-1-.3-.6-.1-1 .4-1 .6 0 1.1.4 1.1 1zm97.8.8c1-.8 1.3-.9.9-.1-.4.6-.3 1.4.3 1.8.6.4.8 1.1.4 1.6-.7 1.2-4.4-1.8-4.3-3.5 0-.6.3-.5.6.2.4 1 .8 1 2.1 0zm-266.2 3.4c.4.7.4 1-.1.6-.4-.4-1.5-.2-2.4.5-1.4 1.1-1.4 1-.2-.6 1.6-2 1.8-2.1 2.7-.5zm-178.2 1.4c.3.8.2 1.2-.4.9-.6-.3-1-1-1-1.6 0-1.4.7-1.1 1.4.7zm309 .2c.3.5-.1.9-.9.9s-1.2-.4-.9-.9c.3-.4.7-.8.9-.8.2 0 .6.4.9.8zm3.1.1c.3.5.2 1.2-.3 1.5-.5.3-.9-.1-.9-.9 0-1.7.3-1.9 1.2-.6zm-149.9 3.7c.1.9 0 1.3-.4 1-.3-.4-.7-1.4-.8-2.2-.1-.9 0-1.3.4-1 .3.4.7 1.4.8 2.2zm147.4-.2c0 .2-.8 1-1.7 1.7-1.6 1.3-1.7 1.2-.4-.4 1.3-1.6 2.1-2.1 2.1-1.3zm139 2c0 .2-.7.6-1.5 1-.8.3-1.5.1-1.5-.4 0-.6.7-1 1.5-1s1.5.2 1.5.4zM187 212c0 .5-.5 1-1.1 1-.5 0-.7-.5-.4-1 .3-.6.8-1 1.1-1 .2 0 .4.4.4 1zm33.1 1.3c-1 .9-1.1.8-.5-.6.3-1 .9-1.5 1.2-1.2.3.3 0 1.1-.7 1.8zm158.5.3c.1.9 0 1.3-.4 1-.3-.4-.7-1.4-.8-2.2-.1-.9 0-1.3.4-1 .3.4.7 1.4.8 2.2zm95.9.4c.3.5.1 1-.4 1-.6 0-1.1-.5-1.1-1 0-.6.2-1 .4-1 .3 0 .8.4 1.1 1zM338 215.6c0 .8-1.9 1.3-2.4.6-.3-.5.1-.9.9-.9s1.5.2 1.5.3zm-138 2c0 .8-1.9 1.3-2.4.6-.3-.5.1-.9.9-.9s1.5.2 1.5.3zm178.5.3c.3.5.2 1.2-.3 1.5-.5.3-.9-.1-.9-.9 0-1.7.3-1.9 1.2-.6zm-183.4 2.4c-.6.8-.7 1.8-.3 2.2.4.5.1.5-.6.1-1-.6-1-1.1-.1-2.2.6-.8 1.4-1.4 1.6-1.4.3 0 0 .6-.6 1.3zm-170.1.1c0 .2-.7.9-1.5 1.6-1.3 1.1-1.4 1-.9-.4.5-1.4 2.4-2.3 2.4-1.2zm156 1c0 .3-.4.8-1 1.1-.5.3-1 .1-1-.4 0-.6.5-1.1 1-1.1.6 0 1 .2 1 .4zm159 .2c0 .8-1.9 1.3-2.4.6-.3-.5.1-.9.9-.9s1.5.2 1.5.3zm138.4 2.5c2-.3 2.6 0 2 1-.5.8-.9.8-1.4-.1-.4-.6-1.1-1.1-1.6-1-.5.1-1-.4-1.2-1.2-.3-1.1-.2-1.1.6 0 .5.8 1.2 1.3 1.6 1.3zm-269.4-.7c0 .3-.4.8-1 1.1-.5.3-1 .1-1-.4 0-.6.5-1.1 1-1.1.6 0 1 .2 1 .4zm-30.3 2.1c0 .8-.4 1.2-.9.9-.5-.3-.6-1-.3-1.5.9-1.3 1.2-1.1 1.2.6zm205.8 1.4c.3.5.2 1.2-.3 1.5-.5.3-.9-.1-.9-.9 0-1.7.3-1.9 1.2-.6zm-194 3c.3.5.2 1.2-.3 1.5-.5.3-.9-.1-.9-.9 0-1.7.3-1.9 1.2-.6zm-15.8 4.6c0 .8-.4 1.2-.9.9-.5-.3-.6-1-.3-1.5.9-1.3 1.2-1.1 1.2.6zm16.8-.5c.3.6-.1.7-.9.4-1.8-.7-2.1-1.4-.7-1.4.6 0 1.3.4 1.6 1zm5.2.5c0 .8-.4 1.2-.9.9-.5-.3-.6-1-.3-1.5.9-1.3 1.2-1.1 1.2.6zm7.8 2.4c.3.5.2 1.2-.3 1.5-.5.3-.9-.1-.9-.9 0-1.7.3-1.9 1.2-.6zm-34 1c-.9.8-3.6 1-3 .2.2-.4 1.1-.8 2-.8.8 0 1.3.3 1 .6zm40.5.1c0 .5-.5 1-1.1 1-.5 0-.7-.5-.4-1 .3-.6.8-1 1.1-1 .2 0 .4.4.4 1zm107.6 1.6c.1.9 0 1.3-.4 1-.3-.4-.7-1.4-.8-2.2-.1-.9 0-1.3.4-1 .3.4.7 1.4.8 2.2zm-151.9 1.9c0 .8-.4 1.2-.9.9-.5-.3-.6-1-.3-1.5.9-1.3 1.2-1.1 1.2.6zm38.2 4.9c-.3.3-1.1-.5-1.8-1.7-1.3-2.1-1.2-2.1.5-.5 1 1 1.6 2 1.3 2.2zM479 246c0 .5-.2 1-.4 1-.3 0-.8-.5-1.1-1-.3-.6-.1-1 .4-1 .6 0 1.1.4 1.1 1zm-250 2c0 .5-.2 1-.4 1-.3 0-.8-.5-1.1-1-.3-.6-.1-1 .4-1 .6 0 1.1.4 1.1 1zm3.3 3.5c-.3.9-.8 1.4-1 1.1-.3-.3-.2-.9.2-1.5.9-1.6 1.5-1.3.8.4zm-8.3 2.1c0 .8-1.9 1.3-2.4.6-.3-.5.1-.9.9-.9s1.5.2 1.5.3zm2.7.9c0 .8-.4 1.2-.9.9-.5-.3-.6-1-.3-1.5.9-1.3 1.2-1.1 1.2.6zm255 2c0 .7-.7 1.1-1.4.8-.8-.3-1.1-.8-.9-1.1.3-.3 0-1.2-.7-2-1-1.3-.9-1.4.9-.2 1.1.7 2.1 1.8 2.1 2.5zm-163.4 0c.4.8.3 1.6-.1 1.9-.4.3-.9-.4-.9-1.5-.2-2.3.3-2.5 1-.4zm72.8-.2c-.6.8-.7 1.8-.3 2.2.4.5.1.5-.6.1-1-.6-1-1.1-.1-2.2.6-.8 1.4-1.4 1.6-1.4.3 0 0 .6-.6 1.3zM19 257c0 .5-.5 1-1.1 1-.5 0-.7-.5-.4-1 .3-.6.8-1 1.1-1 .2 0 .4.4.4 1zm220 1c0 .5-.5 1-1.1 1-.5 0-.7-.5-.4-1 .3-.6.8-1 1.1-1 .2 0 .4.4.4 1zm4-.6c0 .3-.4.8-1 1.1-.5.3-1 .1-1-.4 0-.6.5-1.1 1-1.1.6 0 1 .2 1 .4zm100 .6c0 .5-.2 1-.4 1-.3 0-.8-.5-1.1-1-.3-.6-.1-1 .4-1 .6 0 1.1.4 1.1 1zm137.4 3c-.6.6-1 .3-1-1s.4-1.6 1-1c.7.7.7 1.3 0 2zm-157-1.2c.3.5-.1.9-.9.9s-1.2-.4-.9-.9c.3-.4.7-.8.9-.8.2 0 .6.4.9.8zM157 261.4c0 .3-.4.8-1 1.1-.5.3-1 .1-1-.4 0-.6.5-1.1 1-1.1.6 0 1 .2 1 .4zm71.6.8c.3.4-.1.5-1 .4-.8-.1-1.8-.5-2.2-.8-.3-.4.1-.5 1-.4.8.1 1.8.5 2.2.8zm10.4-.8c0 .3-.4.8-1 1.1-.5.3-1 .1-1-.4 0-.6.5-1.1 1-1.1.6 0 1 .2 1 .4zm7.5.6c.3.5.1 1-.4 1-.6 0-1.1-.5-1.1-1 0-.6.2-1 .4-1 .3 0 .8.4 1.1 1zm12.1 6.5c-.1.8-.5 1.7-.8 2.1-.5.4-.4-1.6.1-3.4.3-.9.9.1.7 1.3zm-237.8 2.9c.1 1.7-.1 1.8-.8.6-.8-1.3-1-1.2-1 .2 0 1 .6 1.8 1.3 1.8.8 0 .7.3-.3 1-1.3.8-1.2 1.1.5 2.5 2 1.6 2 1.6-.1.6-2.7-1.3-3.7-3.7-2.4-6 .5-1 .7-2 .5-2.3-.3-.3.1-.5.8-.5.7 0 1.4 1 1.5 2.1zm226.2-2c0 .3-.4.8-1 1.1-.5.3-1 .1-1-.4 0-.6.5-1.1 1-1.1.6 0 1 .2 1 .4zm94 .2c0 .8-1.9 1.3-2.4.6-.3-.5.1-.9.9-.9s1.5.2 1.5.3zM152.5 272c.3.5.1 1-.4 1-.6 0-1.1-.5-1.1-1 0-.6.2-1 .4-1 .3 0 .8.4 1.1 1zm98 2c.3.5.1 1-.4 1-.6 0-1.1-.5-1.1-1 0-.6.2-1 .4-1 .3 0 .8.4 1.1 1zm4.5 0c0 .5-.5 1-1.1 1-.5 0-.7-.5-.4-1 .3-.6.8-1 1.1-1 .2 0 .4.4.4 1zm88-.6c0 .3-.4.8-1 1.1-.5.3-1 .1-1-.4 0-.6.5-1.1 1-1.1.6 0 1 .2 1 .4zm2 8.6c0 .5-.5 1-1.1 1-.5 0-.7-.5-.4-1 .3-.6.8-1 1.1-1 .2 0 .4.4.4 1zm-202 1.6c0 .8-1.9 1.3-2.4.6-.3-.5.1-.9.9-.9s1.5.2 1.5.3zm118-.2c0 .3-.4.8-1 1.1-.5.3-1 .1-1-.4 0-.6.5-1.1 1-1.1.6 0 1 .2 1 .4zm135.7 1.1c0 .8-.4 1.2-.9.9-.5-.3-.6-1-.3-1.5.9-1.3 1.2-1.1 1.2.6zm83.3-.5c-.8.5-1 1-.5 1 .6 0 1.1 1.3 1.1 3 .1 1.6-.2 3-.7 3-1.3 0-2-1.8-.9-2.5.7-.4.7-1.2 0-2.4-1-1.9-.4-3.1 1.4-3.1.6 0 .4.5-.4 1zm-217.6 8.9c-.2.3-1.2-.3-2.2-1.3-1.6-1.7-1.6-1.8.5-.5 1.2.7 2 1.5 1.7 1.8zm-123.8.7c.1.9 0 1.3-.4 1-.3-.4-.7-1.4-.8-2.2-.1-.9 0-1.3.4-1 .3.4.7 1.4.8 2.2zm135.4-2.2c0 .2-.8 1-1.7 1.7-1.6 1.3-1.7 1.2-.4-.4 1.3-1.6 2.1-2.1 2.1-1.3zm66.3 4.1c-.3.9-.8 1.4-1 1.1-.3-.3-.2-.9.2-1.5.9-1.6 1.5-1.3.8.4zm139.7-1c0 .2-1 .9-2.2 1.5-2.2 1.1-2.2 1-.4-.4 2.1-1.7 2.6-1.9 2.6-1.1zM344.5 296c.3.5.1 1-.4 1-.6 0-1.1-.5-1.1-1 0-.6.2-1 .4-1 .3 0 .8.4 1.1 1zm-19.5 2c0 .5-.5 1-1.1 1-.5 0-.7-.5-.4-1 .3-.6.8-1 1.1-1 .2 0 .4.4.4 1zm-44 .4c0 .2-.8 1-1.7 1.7-1.6 1.3-1.7 1.2-.4-.4 1.3-1.6 2.1-2.1 2.1-1.3zm13.6 1.1c-.1.8-.5 1.7-.8 2.1-.5.4-.4-1.6.1-3.4.3-.9.9.1.7 1.3zm50.9.5c.3.6-.1.7-.9.4-1.8-.7-2.1-1.4-.7-1.4.6 0 1.3.4 1.6 1zm132.4 2.1c-2.2 1.3-3.1 1.1-1.7-.5.7-.8 1.7-1.2 2.2-.9.4.3.2.9-.5 1.4zm-349.6 1.4c-.3.9-.8 1.4-1 1.1-.3-.3-.2-.9.2-1.5.9-1.6 1.5-1.3.8.4zm150.5 1c-.3.3-.9-.2-1.2-1.2-.6-1.4-.5-1.5.5-.6.7.7 1 1.5.7 1.8zm19.7-.6c.3.5.2 1.2-.3 1.5-.5.3-.9-.1-.9-.9 0-1.7.3-1.9 1.2-.6zm43.9-.1c.3.5-.1.9-.9.9s-1.2-.4-.9-.9c.3-.4.7-.8.9-.8.2 0 .6.4.9.8zm59.6-.2c0 .8-1.9 1.3-2.4.6-.3-.5.1-.9.9-.9s1.5.2 1.5.3zm-377.5 4.1c-.1 1 .3 2.4.9 3.2.8 1.1.8 1.3-.1.8-.6-.4-1.3-.1-1.6.5-.4 1-.2-4.9.2-6 .4-1 .9.2.6 1.5zm381.5-.3c0 .2-.8 1-1.7 1.7-1.6 1.3-1.7 1.2-.4-.4 1.3-1.6 2.1-2.1 2.1-1.3zM291 310c0 .5-.5 1-1.1 1-.5 0-.7-.5-.4-1 .3-.6.8-1 1.1-1 .2 0 .4.4.4 1zm18 0c0 .5-.5 1-1.1 1-.5 0-.7-.5-.4-1 .3-.6.8-1 1.1-1 .2 0 .4.4.4 1zm-186 2c0 .5-.2 1-.4 1-.3 0-.8-.5-1.1-1-.3-.6-.1-1 .4-1 .6 0 1.1.4 1.1 1zm226.4-.2c.3.5-.1.9-.9.9s-1.2-.4-.9-.9c.3-.4.7-.8.9-.8.2 0 .6.4.9.8zM27 313.4c0 .2-.7.7-1.6 1-.8.3-1.2.2-.9-.4.6-1 2.5-1.4 2.5-.6zm268 .6c0 .5-.2 1-.4 1-.3 0-.8-.5-1.1-1-.3-.6-.1-1 .4-1 .6 0 1.1.4 1.1 1zm25.5 1.2c.5-.4.5-.1.1.6-.6 1-1.1 1-2.2.1-.8-.6-1.4-1.4-1.4-1.6 0-.3.6 0 1.3.6.8.6 1.8.7 2.2.3zm-22 .8c.3.5.1 1-.4 1-.6 0-1.1-.5-1.1-1 0-.6.2-1 .4-1 .3 0 .8.4 1.1 1zm17.5-.6c0 .2-.8 1-1.7 1.7-1.6 1.3-1.7 1.2-.4-.4 1.3-1.6 2.1-2.1 2.1-1.3zm158.6.8c.4.7.3.8-.4.4s-1.2-.2-1.2.4c0 .6-.5.8-1.1.4-.8-.4-.7-.9.2-1.5 1.8-1.1 1.7-1.1 2.5.3zm-69.8 2.3c-.3.3-.9-.2-1.2-1.2-.6-1.4-.5-1.5.5-.6.7.7 1 1.5.7 1.8zm-282.2.9c.1.7-.4 1.3-1.2 1.3-.9 0-1.1-.4-.4-1.2.5-.7.8-1.5.5-1.8-.3-.4-.2-.5.2-.2s.8 1.1.9 1.9zm196.9-.6c-.3.3-1.1 0-1.8-.7-.9-1-.8-1.1.6-.5 1 .3 1.5.9 1.2 1.2zm7.2-.3c0 .8-.4 1.2-.9.9-.5-.3-.6-1-.3-1.5.9-1.3 1.2-1.1 1.2.6zm-300.2 1.4c-.3.5.2 1.2 1 1.4 1.2.4 1.2.5-.1.3-1.9-.1-3.2-2.6-1.4-2.6.6 0 .9.4.5.9zm290.5-.4c0 .7-3 1.3-3.4.7-.3-.4.4-.9 1.5-.9 1-.1 1.9 0 1.9.2zm4.7 1.1c-.3.3-1.2.4-1.9.1-.8-.3-.5-.6.6-.6 1.1-.1 1.7.2 1.3.5zm-3.2 1.4c.4.6-.1.7-1.2.3-1.5-.5-1.6-.3-.5.8.6.7 1.2 1.7 1.2 2.3 0 .5-.6.1-1.4-.9-1.4-2-1.2-3.5.4-3.5.5 0 1.2.4 1.5 1zm6.5-.6c0 .3-.4.8-1 1.1-.5.3-1 .1-1-.4 0-.6.5-1.1 1-1.1.6 0 1 .2 1 .4zm84.1 2.3c1.3 1.6 1.2 1.7-.3.4-1.7-1.3-2.2-2.1-1.4-2.1.2 0 1 .8 1.7 1.7zm-95 1c1.3 1.6 1.2 1.7-.3.4-1.7-1.3-2.2-2.1-1.4-2.1.2 0 1 .8 1.7 1.7zm7.9-1.3c0 .2-.7.7-1.6 1-.8.3-1.2.2-.9-.4.6-1 2.5-1.4 2.5-.6zm3.1.9c-.6.8-.7 1.8-.3 2.2.4.5.1.5-.6.1-1-.6-1-1.1-.1-2.2.6-.8 1.4-1.4 1.6-1.4.3 0 0 .6-.6 1.3zm-2.1 3.1c0 .2-.7.7-1.6 1-.8.3-1.2.2-.9-.4.6-1 2.5-1.4 2.5-.6zm1.6 3.8c0 1-.4 1.8-.8 1.8s-.8-.7-.8-1.6c0-.9-.5-1.2-1.2-.8-.6.4-.8.3-.5-.3 1-1.7 3.3-1.1 3.3.9zm-291.9.3c0 .8-.7 1.7-1.5 2-1.1.4-1.2.8-.2 2 .8.9.8 1.5.2 1.5-1.7 0-2-2.4-.4-4.8 1.7-2.6 1.9-2.7 1.9-.7zm81.7 2.3c.3.5-.1.9-.9.9s-1.2-.4-.9-.9c.3-.4.7-.8.9-.8.2 0 .6.4.9.8zM34.5 338c.3.5.1 1-.4 1-.6 0-1.1-.5-1.1-1 0-.6.2-1 .4-1 .3 0 .8.4 1.1 1zm433.9-.2c.3.5-.1.9-.9.9s-1.2-.4-.9-.9c.3-.4.7-.8.9-.8.2 0 .6.4.9.8zm-56.9 2.2c.3.6-.1.7-.9.4-1.8-.7-2.1-1.4-.7-1.4.6 0 1.3.4 1.6 1zM107 341.6c0 .8-1.9 1.3-2.4.6-.3-.5.1-.9.9-.9s1.5.2 1.5.3zm4.4.2c.3.5-.1.9-.9.9s-1.2-.4-.9-.9c.3-.4.7-.8.9-.8.2 0 .6.4.9.8zm304.7 6.9c1.3 1.6 1.2 1.7-.3.4-1.7-1.3-2.2-2.1-1.4-2.1.2 0 1 .8 1.7 1.7zm-376.4 4.5c-.3.8-.6.5-.6-.6-.1-1.1.2-1.7.5-1.3.3.3.4 1.2.1 1.9zm375 .3c0 .8-.4 1.2-.9.9-.5-.3-.6-1-.3-1.5.9-1.3 1.2-1.1 1.2.6zm-316.4 6c-.7 2.1-1.2 1.9-1-.4 0-1.1.5-1.8.9-1.5.4.3.5 1.1.1 1.9zm-53.8 1.3c-.3.3-1.1 0-1.8-.7-.9-1-.8-1.1.6-.5 1 .3 1.5.9 1.2 1.2zM47 366c0 .5-.2 1-.4 1-.3 0-.8-.5-1.1-1-.3-.6-.1-1 .4-1 .6 0 1.1.4 1.1 1zm47.3 1.5c-.7 2.1-1.2 1.9-1-.4 0-1.1.5-1.8.9-1.5.4.3.5 1.1.1 1.9zm327.7-1.9c0 .8-1.9 1.3-2.4.6-.3-.5.1-.9.9-.9s1.5.2 1.5.3zm31.5 1.2c-.3.3-1.1 0-1.8-.7-.9-1-.8-1.1.6-.5 1 .3 1.5.9 1.2 1.2zM45 368c0 .5-.2 1-.4 1-.3 0-.8-.5-1.1-1-.3-.6-.1-1 .4-1 .6 0 1.1.4 1.1 1zm45.6 2.2c.4.7.4 1-.1.6-.4-.4-1.5-.2-2.4.5-1.4 1.1-1.4 1-.2-.6 1.6-2 1.8-2.1 2.7-.5zm3.5 2.5c1.3 1.6 1.2 1.7-.3.4-1.7-1.3-2.2-2.1-1.4-2.1.2 0 1 .8 1.7 1.7zm-45.1-.2c0 .2-.6.8-1.3 1.4-1 .8-1.4.7-1.4-.2 0-.8.6-1.4 1.4-1.4.7 0 1.3.1 1.3.2zm3.6 5.1c.1.9 0 1.3-.4 1-.3-.4-.7-1.4-.8-2.2-.1-.9 0-1.3.4-1 .3.4.7 1.4.8 2.2zm34.1-.1c0 .8-.4 1.2-.9.9-.5-.3-.6-1-.3-1.5.9-1.3 1.2-1.1 1.2.6zM57 381.4c0 .3-.4.8-1 1.1-.5.3-1 .1-1-.4 0-.6.5-1.1 1-1.1.6 0 1 .2 1 .4zm387.5 2.5c-.9.8-3.6 1-3 .2.2-.4 1.1-.8 2-.8.8 0 1.3.3 1 .6zm-21.9 2.3c.4.7.4 1-.1.6-.4-.4-1.5-.2-2.4.5-1.4 1.1-1.4 1-.2-.6 1.6-2 1.8-2.1 2.7-.5zm21.5 1.4c0 .4-1.3.9-2.8 1l-2.8.3 2.5-1.4c2.5-1.3 3.2-1.3 3.1.1zm-19.1 2.8c0 .2-.8 1-1.7 1.7-1.6 1.3-1.7 1.2-.4-.4 1.3-1.6 2.1-2.1 2.1-1.3zm11.4 6.2c.3.8.2 1.2-.4.9-.6-.3-1-1-1-1.6 0-1.4.7-1.1 1.4.7zM64 398c-1 .6-1.1 1-.2 1 .6 0 1.2.5 1.2 1.1 0 .8-.5.8-1.5-.1-1.6-1.3-1.1-3 .8-3 .7 0 .6.4-.3 1zm372 1c1.2.7 1.2 1.2.2 2.2-.9.9-1.2.9-1.2-.4 0-.9-.6-1.9-1.2-2.1-.7-.3-.8-.6-.3-.6.6 0 1.7.4 2.5.9zm-7 4.5c0 .8-.4 1.5-.8 1.5-.5 0-.9-.7-.9-1.5s.4-1.5.9-1.5c.4 0 .8.7.8 1.5zm-356.3 5.6c-.2 2.4-2 .7-2.2-2.1-.1-1.5.1-1.7 1.1-.9.7.6 1.2 1.9 1.1 3zM423 406c0 .5-.2 1-.4 1-.3 0-.8-.5-1.1-1-.3-.6-.1-1 .4-1 .6 0 1.1.4 1.1 1zm5.8.6c1.9-1.1.6 2.9-1.3 4.4-2.7 2-4.3 2.1-4.9.3-.3-.8-.1-1.1.4-.8.6.3 1.9 0 3-.8 1.7-1.2 1.8-1.6.7-2.6-.8-.6-1.8-.7-2.2-.3-.5.4-.5.1-.1-.6.6-1 1.1-1 2.1-.2.8.7 1.8.9 2.3.6zm-351.5 4.1c-.3.6.5 2.2 1.6 3.4 1.2 1.3 2.1 2.5 2.2 2.8 0 .3.2 1.5.4 2.6.3 1.8.1 1.7-1.7-.5-1.1-1.4-2.4-2.4-2.9-2.3-.4.2-.6-.6-.4-1.7.2-1.1-.1-2-.6-2-.6 0-.7-.5-.3-1.1.3-.6 0-1.5-.7-2-1-.6-.8-.8.8-.7 1.2.1 1.9.7 1.6 1.5zm4.2-.7c.3.6-.1.7-.9.4-1.8-.7-2.1-1.4-.7-1.4.6 0 1.3.4 1.6 1zm1.3 6.5c-.3.3-.9-.2-1.2-1.2-.6-1.4-.5-1.5.5-.6.7.7 1 1.5.7 1.8zm5.2 7.4c0 .5-.7 1.2-1.6 1.5-1.4.5-1.5.4-.4-.9 1.4-1.7 2-1.9 2-.6zm4.7 4.6c0 .8-.4 1.2-.9.9-.4-.3-.8 0-.8.6s-.5.8-1.1.5c-.8-.5 1-2.8 2.7-3.5 0 0 .1.7.1 1.5zM408 430c-1.8 1.2-3 1.3-3 .2 0-.4 1-.9 2.2-.9 1.8-.2 2 0 .8.7zm-9.5 3.9c.3.5.2 1.2-.3 1.5-.5.3-.9-.1-.9-.9 0-1.7.3-1.9 1.2-.6zm-295.8 2.6c.5.4.2.5-.6 0-1.1-.6-1.3-.4-.8.8.3.9.1 1.9-.6 2.3-.7.4-.9.4-.5-.1.4-.4.3-1.6-.2-2.5-.7-1.4-.6-1.8.5-1.6.8.1 1.8.6 2.2 1.1zm298.7.4c.3.5-.2.8-1.1.7-1 0-1.8.4-1.8 1.1 0 1.9-1.2 2.4-1.2.5 0-2.5 2.9-4.2 4.1-2.3zm-286.7 11.8c0 .9-.4 1-1.4.2-.7-.6-1.3-1.2-1.3-1.4 0-.1.6-.2 1.3-.2.8 0 1.4.6 1.4 1.4zm3.3-.2c1.1 1.3 1 1.4-.4.9-.9-.3-1.6-1-1.6-1.5 0-1.3.6-1.1 2 .6zm2.3 3c-.3.9-.8 1.4-1 1.1-.3-.3-.2-.9.2-1.5.9-1.6 1.5-1.3.8.4zm1.7 1.5c-.6 1.1-1.3 2-1.6 2-.2 0 0-.9.6-2s1.3-2 1.6-2c.2 0 0 .9-.6 2zm14.1 6.3c-1 .9-1.1.8-.5-.6.3-1 .9-1.5 1.2-1.2.3.3 0 1.1-.7 1.8zm10.9 7.6c.8 1.6.7 1.9-.8 1.7-.9-.2-1.6-.6-1.4-.9.1-.4.2-1.2.2-1.7 0-1.6.8-1.2 2 .9zm7.8 4.9c.2.7.8 1.2 1.3 1.2.6 0 .8-.4.5-.8-.3-.5.1-.9.9-.9 1.1 0 1.2.4.4 1.3-1.3 1.6-4.7 1.4-5.4-.4-.3-.7-1-1-1.6-.6-.7.4-.9.3-.6-.4.9-1.3 4-.9 4.5.6zm8.6 4.3c-.6 1.1-2.4.2-2.4-1.1 0-.5.7-.7 1.5-.4.8.4 1.2 1 .9 1.5zm166 .1c-.3.4-.9.8-1.5.8-.5 0-.9-.4-.9-.8 0-.5.7-.9 1.5-.9s1.2.4.9.9zm-151.2 3c-1.5 1.5-4.2 1.9-4.2.6 0-.6.7-.8 1.5-.5.8.4 1.7.2 2-.3.4-.6.9-1 1.3-1 .3 0 .1.5-.6 1.2zm6.6 1.3c-.3.3-.9-.2-1.2-1.2-.6-1.4-.5-1.5.5-.6.7.7 1 1.5.7 1.8zm-1.8 1.3c0 .5-.7.9-1.5.9s-1.2-.4-.9-.9c.3-.4.9-.8 1.5-.8.5 0 .9.4.9.8zm10.4 2.1c-1 1-2.1 1.6-2.4 1.4-.3-.3.4-1.1 1.4-1.9 2.8-2 3.3-1.7 1 .5zm5.2.3c.4.7.3.8-.4.4s-1.2-.2-1.2.5-.3 1-.6.6c-.6-.5.3-2.7 1.1-2.7.2 0 .7.5 1.1 1.2zm8.4 1.4c0 .8-1.9 1.3-2.4.6-.3-.5.1-.9.9-.9s1.5.2 1.5.3zm11.7 3.3c-.1 1.2-.8 1.8-2.3 1.7-1.2 0-1.9-.6-1.7-1.3.3-.6 1.1-.9 1.9-.6.8.3 1.4 0 1.4-.6s.2-1.1.4-1.1c.3 0 .4.8.3 1.9zm63.8-.9c.3.5.1 1-.4 1-.6 0-1.1-.5-1.1-1 0-.6.2-1 .4-1 .3 0 .8.4 1.1 1zm6.8.6c.4.1 1.4.2 2.3.3.8 0 1.2.6.9 1.1-.5.8-1.1.8-1.9.1-.8-.7-1.6-.7-2.4-.1-.7.6-1 .7-.7.4.3-.4-.1-1.4-.8-2.2-1-1.3-.9-1.4.3-.7.8.6 1.8 1 2.3 1.1zm-49 3.2c-.6 1.4-.4 1.5.9.4 1.2-1 1.8-1 2.3-.1.6.8.9.8 1.5 0 .7-1.2 4-.5 4 .8 0 1.2-10.4.6-12.5-.7-1.8-1-1.8-1.1-.2-1.2.9 0 1.7.6 1.7 1.2 0 .9.3.8.9-.2.6-.8.7-1.8.4-2.4-.3-.5-.1-.6.5-.2.6.4.8 1.4.5 2.4zm10.2-1.8c.3.5.1 1-.4 1-.6 0-1.1-.5-1.1-1 0-.6.2-1 .4-1 .3 0 .8.4 1.1 1zm22.5 0c0 .5-.6 1-1.2 1-.9 0-.8.4.2 1 .8.5 1 1 .4 1-1.6 0-2.3-1-1.7-2.6.6-1.6 2.3-1.9 2.3-.4zm-18.8 1.9c.7-1.1.9-1.1.6-.1-.5 1.7-2.3 1.7-2.4 0-.1-.9.1-.8.4.1.3 1.2.5 1.2 1.4 0z"/><path d="M437 125.4c0 .2.8 1 1.8 1.7 1.5 1.3 1.6 1.2.3-.4s-2.1-2.1-2.1-1.3zM77 414.4c0 .2.8 1 1.8 1.7 1.5 1.3 1.6 1.2.3-.4s-2.1-2.1-2.1-1.3zM303.3 6.8c0 1.2.5 2.2.9 2.2 1.1 0 1-1.2-.2-3-.7-1.2-.9-1-.7.8zM322.6 6.1c.2.4-.1.9-.7 1.1-.7.2-.4 1 .7 1.8 1.2 1.1 1.5 1.1 1 .2-.5-.8-.2-1.8.9-2.6 1.5-1.1 1.5-1.2-.4-1.2-1.1 0-1.8.3-1.5.7zM285.6 14.1c.5.9 3.1.6 4-.4.4-.4-.4-.6-1.9-.5-1.4.1-2.4.5-2.1.9zM331.3 16.5c0 .8.4 1.2.9.9.5-.3.6-1 .3-1.5-.9-1.3-1.2-1.1-1.2.6zM327.3 20.3c1 .9 1.4 1.8.9 2.1-.5.3-.9 2.2-.8 4.3.1 2.3-.6 4.8-1.6 6.2-1.7 2.3-1.7 2.5-.2 4.3 1.1 1.2 1.3 1.8.5 1.8-.7 0-.9.5-.5 1.1.4.8.9.7 1.5-.2.4-.7.5-1.7.3-2.1-1-1.5.8-.8 2.4 1 1 1 1.3 1.2.7.2-.5-.8-1.8-2.3-3-3.2l-2-1.7 2.1.5c1.2.3 2.5 0 2.9-.6.5-.9.1-1-1.4-.5-1.6.5-2 .3-1.5-.9.3-.9 1.1-1.3 1.7-.9.6.3.7.1.3-.6-.4-.6.2-1.5 1.6-2.1l2.3-1.1-2.3.5c-2.1.4-2.2.2-1.8-3.5.4-3.3.1-4.1-1.7-5-2-.9-2.1-.9-.4.4zM331.3 21.1c-.2 2.3.3 2.5 1 .4.4-.8.3-1.6-.1-1.9-.4-.3-.9.4-.9 1.5zM249 26.1c0 .5-.4.7-1 .4-.5-.3-1-.2-1 .3 0 .6.8 1.3 1.7 1.6 1 .4 1.4.4 1 0-.4-.4-.2-1.3.4-2.1.9-.9.8-1.3 0-1.3-.6 0-1.1.5-1.1 1.1zM261 25.6c0 .2.9.8 2 1.4 1.1.6 2 .7 2 .2 0-.6-.9-1.2-2-1.5-1.1-.3-2-.3-2-.1zM275.6 26.6c-.7 1.9-.8 1.8 2 3.2 2.4 1.3 3.5.7 2.7-1.5-.4-1.1-.8-1.2-1.3-.3-1 1.7-3.1.3-2.3-1.5.3-.8.3-1.5 0-1.5s-.8.7-1.1 1.6z"/><path d="M330.5 26c-.3.6.1.7.9.4 1.8-.7 2.1-1.4.7-1.4-.6 0-1.3.4-1.6 1zM237.4 27.6c-1.8 1.5-1.8 1.5.3.5 2.8-1.4 3.6-1.4 2.7.1-.4.7-.3.8.5.4 1.1-.7.6-2.6-.8-2.6-.4 0-1.6.7-2.7 1.6zM187.7 32.7c-1 .9-.9 2.3.1 2.3.5 0 .9-.7.9-1.5 0-1.7-.1-1.8-1-.8zM331.5 35.1c-.4.6-.5 1.2-.2 1.5.2.3.7-.2 1-1.1.7-1.7.1-2-.8-.4zM181.2 36.6c-.6.7-1.8 1.2-2.5 1-.6-.1-.9-.1-.4.1.4.3.4 1 0 1.6-.4.7.1.6 1-.2.9-.7 1.7-1 1.7-.5s.5.1 1.1-.9c1.3-2.3.8-3-.9-1.1zM184.7 35.7c-1 .9-.9 2.3.1 2.3.5 0 .9-.7.9-1.5 0-1.7-.1-1.8-1-.8zM332.1 44.4c-1.9 1.1-2.1 1.4-.7 1.9.9.4 1.6 1.2 1.6 1.8 0 .8-.5.7-1.7-.2-1.1-1-1.4-1-.9-.2.4.8.2 1.3-.5 1.3s-.5.6.6 1.4c1.4 1 2.5 1.1 4.6.3 1.5-.6 2.5-1.5 2.3-1.9-.3-.5-.9-.6-1.3-.3-.5.2-1.6-.4-2.6-1.5s-1.3-2-.7-2c.6 0 1.4.4 1.7 1 .3.5 1 1 1.6 1 .5 0 .9-.5.9-1 0-.6-.6-.9-1.2-.8-.7.2-1.2-.3-1-1 .3-1.5.3-1.5-2.7.2zm2.9 5.1c0 .7-3 1.3-3.4.7-.3-.4.4-.9 1.5-.9 1-.1 1.9 0 1.9.2zM147.5 49c-.3.6.1.7.9.4 1.8-.7 2.1-1.4.7-1.4-.6 0-1.3.4-1.6 1zM362 55.9c0 .5.7 1.4 1.5 2.1 1 .9 1.5.9 1.5.1 0-.6-.5-1.1-1.1-1.1-.5 0-.7-.5-.4-1 .3-.6.1-1-.4-1-.6 0-1.1.4-1.1.9zM122.9 63.2c0 .2-.2 1.1-.4 2.1-.3 1.5-.1 1.6 1.1.6 1.6-1.3 1.9-2.9.4-2.9-.5 0-1 .1-1.1.2zM379.3 64.5c0 .8.4 1.2.9.9.5-.3.6-1 .3-1.5-.9-1.3-1.2-1.1-1.2.6zM114.8 68c1.6 1.8 1.6 3.5-.1 2.2-.7-.6-1.8-.7-2.6-.3-.9.6-1 1.1-.2 1.5.6.4 1.1.2 1.1-.5 0-.9.3-.9 1.4 0 1.2 1 1.7.8 2.7-1.1.6-1.3.8-2 .4-1.6-.5.4-1.5.2-2.4-.4-1.3-1-1.4-1-.3.2zM384.4 69.9c.4.5.1 1.2-.4 1.4-.6.3-.5.4.2.3 1.5-.3 2.3-2.6.8-2.6-.6 0-.9.4-.6.9zM105.5 74c-.3.5-.1 1 .4 1 .6 0 1.1-.5 1.1-1 0-.6-.2-1-.4-1-.3 0-.8.4-1.1 1zM397.5 78c.3.5.8 1 1.1 1 .2 0 .4-.5.4-1 0-.6-.5-1-1.1-1-.5 0-.7.4-.4 1zM91.5 85c-.3.6.1.7.9.4 1.8-.7 2.1-1.4.7-1.4-.6 0-1.3.4-1.6 1zM406 86.4c0 .2.7.7 1.6 1 .8.3 1.2.2.9-.4-.6-1-2.5-1.4-2.5-.6zM406.3 89.5c0 .8.3 1.3.5 1 .9-.9 4.2 2.7 3.5 3.9-.4.6.1.5 1-.2.9-.8 2.1-1.1 2.6-.7.7.3.8 0 .5-1-.4-1-1-1.2-1.8-.6-.7.6-1.5.4-2.3-.4-.7-.8-.9-1.5-.5-1.8.4-.2.2-.3-.4-.1-.6.1-1.6-.2-2.1-.7-.6-.6-1-.4-1 .6zM87.3 90.6c.4.7 0 1.7-.8 2.4S85 94.8 85 95.4c0 .6.7.3 1.4-.6.7-1 1.6-1.5 1.9-1.2.3.3.4-.1.3-1-.1-.8-.6-1.9-1.1-2.3-.4-.4-.5-.3-.2.3zM415.6 96.2c.3.4.9.8 1.5.8.5 0 .9-.4.9-.8 0-.5-.7-.9-1.5-.9s-1.2.4-.9.9zM75 100.4c0 .2.8 1 1.8 1.7 1.5 1.3 1.6 1.2.3-.4s-2.1-2.1-2.1-1.3zM75.1 104.3c-.1 1-.5 1.6-.9 1.3-.4-.2-.9.5-.9 1.6-.2 1.7 0 1.8 1 .7.7-.8 1.9-2 2.7-2.8.8-.8 1-1.1.3-.7-.6.3-1.4 0-1.6-.6-.3-.8-.6-.6-.6.5zM425 103.9c0 .6.4 1.3 1 1.6.6.3.7-.1.4-.9-.7-1.8-1.4-2.1-1.4-.7zM434.7 116.1c.7.7 1.5 1 1.8.7.3-.3-.2-.9-1.2-1.2-1.4-.6-1.5-.5-.6.5zM61.2 122.2c-.1 2.6.1 3 .9 1.5.6-1 .6-2.3.1-3.3-.7-1.2-.9-.8-1 1.8zM439 122c0 .5.5 1 1.1 1 .5 0 .7-.5.4-1-.3-.6-.8-1-1.1-1-.2 0-.4.4-.4 1zM443 127.9c0 .6.4 1.3 1 1.6.6.3.7-.1.4-.9-.7-1.8-1.4-2.1-1.4-.7zM445.5 135c-.7 1.2 3.5 7.1 4.7 6.4.4-.3.8-1.1.8-1.7 0-.8-.3-.7-.9.2-1.3 2-2.1-.9-.9-3.2.9-1.7.7-1.7-1.3-.7-1.9 1.1-2.1 1-1.6-.4.7-1.8.2-2.2-.8-.6zM452.6 146.9c-.4.5-.1 1.3.5 1.6.5.4.8 1.4.5 2.2-.3.8-.2 1.2.3.8.5-.3 1.1.1 1.3.7.3.8 1 .3 1.8-1.2 1.3-2.4 1.2-2.4-.5-1s-1.8 1.3-1.2-.2c.7-1.9-1.7-4.5-2.7-2.9zM462.6 161.8c-.3.5.1.9.9.9s1.5-.4 1.5-.9c0-.4-.4-.8-.9-.8-.6 0-1.2.4-1.5.8zM466.5 172.1c-.4.6-.5 1.2-.2 1.5.2.3.7-.2 1-1.1.7-1.7.1-2-.8-.4zM468.7 179.9c-.4 1.7-.3 2.1.5 1.3.5-.5.8-1.6.6-2.3-.3-.8-.7-.3-1.1 1zM470.5 182c-.3.6.1.7.9.4 1.8-.7 2.1-1.4.7-1.4-.6 0-1.3.4-1.6 1zM471.5 191c.3.5.8 1 1.1 1 .2 0 .4-.5.4-1 0-.6-.5-1-1.1-1-.5 0-.7.4-.4 1zM23.3 198.4c0 .8.5 1.2 1 .9.7-.4.8.1.3 1.3-.6 1.5-.5 1.7.5.6 1.1-1 1-1.5-.2-2.8-1.4-1.3-1.6-1.3-1.6 0zM21 202.1c0 .5.5.7 1 .4.6-.3 1-.8 1-1.1 0-.2-.4-.4-1-.4-.5 0-1 .5-1 1.1zM23 204c0 .5.5 1 1.1 1 .5 0 .7-.5.4-1-.3-.6-.8-1-1.1-1-.2 0-.4.4-.4 1zM477.5 206c.3.5.8 1 1.1 1 .2 0 .4-.5.4-1 0-.6-.5-1-1.1-1-.5 0-.7.4-.4 1zM21 210c0 .5.5 1 1.1 1 .5 0 .7-.5.4-1-.3-.6-.8-1-1.1-1-.2 0-.4.4-.4 1zM18.5 216.1c-.4.6-.5 1.2-.2 1.5.2.3.7-.2 1-1.1.7-1.7.1-2-.8-.4zM18.6 219.8c-.3.5.1.9.9.9s1.2-.4.9-.9c-.3-.4-.7-.8-.9-.8-.2 0-.6.4-.9.8zM18 226.2c0 .6.3.8.7.5.3-.4 1.2-.2 2 .5 1.1.8 1.2.7.7-.6-.7-1.8-3.4-2.2-3.4-.4zM480.7 239.1c.8.8.9 1.8.3 3-.7 1.1-.7 2 0 2.4.5.3 1 .3 1-.2 0-.4.5-.1 1.1.7.9 1.2.9 1.1.4-.5-.4-1.1-.7-2.8-.7-3.7 0-.9-.7-1.9-1.6-2.3-1.3-.5-1.4-.4-.5.6zM17 240.4c0 .8-.6 1.7-1.2 1.9-.8.4-.9.6-.2.6 1.8.1 3.7-2.6 2.4-3.4-.5-.3-1 0-1 .9zM15.3 248.5c0 .8.4 1.2.9.9.4-.3.8-.9.8-1.5 0-.5-.4-.9-.8-.9-.5 0-.9.7-.9 1.5zM480.6 247.9c-.7 1.1 2.2 2.3 3.5 1.5.5-.3.9-1.1.8-1.7 0-.9-.2-.9-.6 0-.2.7-.9 1.3-1.4 1.3-.6 0-.7-.5-.4-1 .3-.6.2-1-.4-1-.5 0-1.2.4-1.5.9zM482 280c0 .5.5 1 1 1 .6 0 1-.5 1-1 0-.6-.4-1-1-1-.5 0-1 .4-1 1zM15.5 283c-.3.5-.1 1 .4 1 .6 0 1.1-.5 1.1-1 0-.6-.2-1-.4-1-.3 0-.8.4-1.1 1zM19.5 313.9c-.3.5-.2 1.2.3 1.5.5.3.9-.1.9-.9 0-1.7-.3-1.9-1.2-.6zM26 332.4c.7.7 1.3.7 2 0 .6-.6.3-1-1-1s-1.6.4-1 1zM473.6 335.3c.3 1 .9 1.5 1.2 1.2.3-.3 0-1.1-.7-1.8-1-.9-1.1-.8-.5.6zM33.4 349.2c-.4.7-.3.8.4.4 1.5-.9 1.5-.1.1 2.5-1 1.9-.9 2 1 .9 1.7-.9 1.9-1.5 1.1-3-1.2-2.3-1.6-2.4-2.6-.8zM458.6 361.9c-.3.5 0 1.4.7 1.9 1 .8 1.3.6 1.4-.9.2-1.9-1.1-2.6-2.1-1zM457 368c0 .5.5 1 1 1 .6 0 1-.5 1-1 0-.6-.4-1-1-1-.5 0-1 .4-1 1zM454.6 374.2c.3.5 1 .6 1.5.3 1.3-.9 1.1-1.2-.6-1.2-.8 0-1.2.4-.9.9zM47 378.4c0 .2.7.7 1.6 1 .8.3 1.2.2.9-.4-.6-1-2.5-1.4-2.5-.6zM44 380c-.9.6-1 1-.3 1 .6 0 1.5-.5 1.8-1 .8-1.2.4-1.2-1.5 0zM47.7 381.1c.7.7 1.5 1 1.8.7.3-.3-.2-.9-1.2-1.2-1.4-.6-1.5-.5-.6.5zM50.6 384.2c.3.4.9.8 1.5.8.5 0 .9-.4.9-.8 0-.5-.7-.9-1.5-.9s-1.2.4-.9.9zM51 386.4c0 .2.8 1 1.8 1.7 1.5 1.3 1.6 1.2.3-.4s-2.1-2.1-2.1-1.3zM55.4 391c0 1.6.7 3.2 1.4 3.5.9.3 1 0 .2-1.5-.7-1.3-.7-2.1 0-2.5.6-.4.8-1.1.5-1.6-1.2-1.9-2.3-.8-2.1 2.1zM439 398c0 .5.7.7 1.5.4.8-.4 1.5-.8 1.5-1 0-.2-.7-.4-1.5-.4s-1.5.4-1.5 1zM66.5 408c.3.5.8 1 1.1 1 .2 0 .4-.5.4-1 0-.6-.5-1-1.1-1-.5 0-.7.4-.4 1zM80.6 425.8c-.3.5.1.9.9.9s1.2-.4.9-.9c-.3-.4-.7-.8-.9-.8-.2 0-.6.4-.9.8zM91.2 434.4c.7.8 1.5 1.2 1.7 1.1.5-.6-1-2.5-2-2.5-.5 0-.4.6.3 1.4zM101.9 441.7c-1.2 1.4-1.2 1.6 0 .8 1.1-.6 1.3-.4.7 1-.5 1.5-.4 1.6.8.6 1.1-.9 1.5-.9 1.9.1.4 1 .6 1 .6 0 .1-.7-.6-1.5-1.5-1.9-1.3-.5-1.3-.7-.2-1.4.8-.5.9-.9.2-.9-.6 0-1.8.8-2.5 1.7zM107.1 447.6c0 1.1.3 1.4.6.6.3-.7.2-1.6-.1-1.9-.3-.4-.6.2-.5 1.3zM382.5 451c-1 1.2-2.4 1.9-3.1 1.6-.8-.3-1.1.1-.7 1 .4 1.1.9 1.2 1.9.3.7-.6 1.8-.8 2.3-.5.5.4 1.2.2 1.6-.4.4-.6 1.1-.8 1.6-.5.5.4.9.1.9-.4 0-1.4-1.3-1.4-2.8.1-.7.7-1.2.8-1.2.2 0-.6.5-1.5 1.2-2.2.7-.7 1-1.2.7-1.2-.3 0-1.4.9-2.4 2zM124.7 454.7c-.2.5-.2 1.4-.1 2 .1.7.2 1.9.3 2.5.1 1 .3 1 1 0 .6-1.1 1.1-1 2.5.3.9 1 1.9 1.5 2.2 1.2.3-.3-.9-1.5-2.6-2.7-1.6-1.2-2.8-2.6-2.5-3.1.4-.5.4-.9.1-.9-.3 0-.7.3-.9.7zM376.5 454.9c-.3.6-1.1.9-1.6.6-.5-.4-.9-.1-.9.4 0 .6.5 1.1 1.1 1.1.5 0 .7.5.3 1.2-.4.7-.3.8.5.4.6-.4.9-1.1.6-1.6-.3-.4.1-1 .7-1.3.7-.2 1-.7.7-1.1-.4-.4-1-.2-1.4.3zM121.7 456.7c-.4.3-.7 1.1-.7 1.7 0 .6.5.5 1.2-.2.6-.6.9-1.4.7-1.7-.3-.3-.9-.2-1.2.2zM359 468c0 .5.7.7 1.5.4.8-.4 1.5-.8 1.5-1 0-.2-.7-.4-1.5-.4s-1.5.4-1.5 1zM338.6 475.5c.4.8 1.1 1.5 1.6 1.5.6 0 .5-.6-.2-1.5-.7-.8-1.4-1.5-1.6-1.5-.2 0-.1.7.2 1.5zM330.1 478.4c-.8 1-.9 1.6-.1 2.1.5.3 1 .5 1.1.3.4-1.8.7-3.8.4-3.8-.1 0-.8.6-1.4 1.4zM169.6 479.3c.3 1 .9 1.5 1.2 1.2.3-.3 0-1.1-.7-1.8-1-.9-1.1-.8-.5.6zM321.6 483.7c-.6 1.4-.5 1.5.5.6.7-.7 1-1.5.7-1.8-.3-.3-.9.2-1.2 1.2zM186.8 486.7c.7.3 1.6.2 1.9-.1.4-.3-.2-.6-1.3-.5-1.1 0-1.4.3-.6.6zM200.2 487.9c-1 .6-1 1 .3 2.1s1.4 1 .9-.4c-.5-1.2-.2-1.5 1.2-.9 1.2.4 1.5.3 1-.5-.8-1.4-1.6-1.5-3.4-.3zM193.5 490c-.3.6.1.7.9.4 1.8-.7 2.1-1.4.7-1.4-.6 0-1.3.4-1.6 1zM279 491.5c0 .8.4 1.5 1 1.5.5 0 .7-.7.4-1.5-.4-.8-.8-1.5-1-1.5-.2 0-.4.7-.4 1.5zM207.6 491.8c-.3.5.1.9.9.9s1.2-.4.9-.9c-.3-.4-.7-.8-.9-.8-.2 0-.6.4-.9.8zM227 491.7c0 .5.5 1.5 1 2.3.7 1.2.9 1 .7-.8-.1-1.9-1.7-3.3-1.7-1.5zM233.5 494.9c-.3.5-.2 1.2.3 1.5.5.3.9-.1.9-.9 0-1.7-.3-1.9-1.2-.6z"/></svg>