<?xml version="1.0" encoding="UTF-8" standalone="no"?>
<!-- Created with Inkscape (http://www.inkscape.org/) -->

<svg
   xmlns:dc="http://purl.org/dc/elements/1.1/"
   xmlns:cc="http://creativecommons.org/ns#"
   xmlns:rdf="http://www.w3.org/1999/02/22-rdf-syntax-ns#"
   xmlns:svg="http://www.w3.org/2000/svg"
   xmlns="http://www.w3.org/2000/svg"
   xmlns:sodipodi="http://sodipodi.sourceforge.net/DTD/sodipodi-0.dtd"
   xmlns:inkscape="http://www.inkscape.org/namespaces/inkscape"
   width="130.87523mm"
   height="137.92346mm"
   viewBox="0 0 463.73113 488.70518"
   id="svg4198"
   version="1.1"
   inkscape:version="0.91 r13725"
   sodipodi:docname="logo.svg">
  <defs
     id="defs4200" />
  <sodipodi:namedview
     id="base"
     pagecolor="#ffffff"
     bordercolor="#666666"
     borderopacity="1.0"
     inkscape:pageopacity="0.0"
     inkscape:pageshadow="2"
     inkscape:zoom="1"
     inkscape:cx="260.3813"
     inkscape:cy="319.70595"
     inkscape:document-units="px"
     inkscape:current-layer="layer1"
     showgrid="false"
     fit-margin-top="0"
     fit-margin-left="0"
     fit-margin-right="0"
     fit-margin-bottom="0"
     inkscape:window-width="1920"
     inkscape:window-height="1057"
     inkscape:window-x="0"
     inkscape:window-y="23"
     inkscape:window-maximized="0" />
  <metadata
     id="metadata4203">
    <rdf:RDF>
      <cc:Work
         rdf:about="">
        <dc:format>image/svg+xml</dc:format>
        <dc:type
           rdf:resource="http://purl.org/dc/dcmitype/StillImage" />
        <dc:title></dc:title>
      </cc:Work>
    </rdf:RDF>
  </metadata>
  <g
     inkscape:label="Layer 1"
     inkscape:groupmode="layer"
     id="layer1"
     transform="translate(-88.1345,-108.0096)">
    <g
       id="g4181"
       transform="translate(1380.1345,470.2037)">
      <path
         style="fill:#edcf30"
         d="m -1084.5,125.26265 c -27.1738,-3.29832 -52.9518,-10.78721 -77.0442,-22.38245 -52.9274,-25.47311 -93.8827,-69.85462 -114.9547,-124.57175 -10.842,-28.15298 -15.5011,-53.40577 -15.5011,-84.01768 0,-19.18998 0.7283,-27.06056 4.1176,-44.5 22.1682,-114.06468 125.156,-193.76913 241.5271,-186.92307 17.0239,1.00151 19.7389,1.55034 18.7805,3.79645 -0.3817,0.89464 -3.0646,8.37662 -5.962,16.62662 -2.8974,8.25 -5.7597,16.26101 -6.3607,17.80224 -0.601,1.54124 -6.4188,11.66624 -12.9285,22.5 -6.5096,10.83377 -24.2142,40.39776 -39.3436,65.69776 -15.1293,25.3 -51.6335,86.31824 -81.1204,135.59609 -29.487,49.27784 -54.0898,90.67784 -54.6729,92 -0.5832,1.32215 -1.3973,8.61925 -1.8091,16.21577 -0.652,12.02748 -0.5416,13.99931 0.8545,15.26282 0.6627,0.599718 1.9406,4.673681 2.2374,3.259056 0.3581,-1.706797 -0.3133,-9.580579 0.01,-17.312466 l 0.6397,-15.50437 16.3478,-27.25845 c 8.9912,-14.99215 39.2275,-65.50845 67.1918,-112.25845 27.9643,-46.75 62.9698,-105.25 77.7901,-130 l 26.946,-45 6.6269,-18.5 c 6.3689,-17.77933 8.5021,-17.48784 8.5046,-26.43947 0,-7.24967 -1.54,-10.86967 -0.3725,-11.50237 3.0873,-1.67313 32.01971,-10.37179 32.59243,-9.79907 0.32817,0.32818 0.52253,6.84781 1.65411,14.64085 1.64622,11.33719 1.6777,13.07659 0.65791,13.70686 -0.70099,0.43323 -2.88188,0.70204 -6.52699,1.66679 -6.90056,1.82637 -10.49556,3.44546 -9.88466,5.41872 0.1968,0.63582 -0.2912,9.16752 0.05,16.04252 l 0.6202,12.5 -16.3567,11.30212 -17.4617,12.53954 -5.7859,8.99079 c -10.3167,16.03138 -52.23,86.56737 -65.81,108.98651 -7.2544,11.97611 -14.5968,22.18796 -14.318,22.63898 0.8763,1.41799 129.46813,101.704638 134.243,103.219632 l 4.62631,1.467858 c 0.66776,-3.363538 0.16445,-8.618793 -0.68929,-14.44013 -1.15374,-7.866961 -0.84122,-23.982547 -1.62107,-35.807547 -0.77986,-11.825 -1.45267,-30.817413 -2.03529,-42.367413 -0.58261,-11.55 -1.88282,-30.85984 -2.67329,-43.23484 -0.79046,-12.375 -1.69704,-27.45 -2.01461,-33.5 -0.31757,-6.05 -1.18871,-22.51114 -1.98988,-35.98614 -1.21816,-20.4884 -4.50738,-66.50312 -5.12578,-85.52203 l -0.1647,-5.06623 6.5139,-2.18724 c 3.83775,-1.28865 7.49325,-2.08976 8.09612,-1.86259 0.61226,0.23071 1.3681,4.3155 1.71224,9.25347 0.33886,4.86224 1.30372,18.74043 2.14413,30.84043 0.84041,12.1 1.99768,28.3 2.57172,36 0.57403,7.7 0.86089,23.23306 1.66374,35.05806 0.80285,11.825 1.99452,30.94194 2.8102,41.94194 0.81568,11 2.06433,37.09194 3.47697,57.44194 2.99309,43.117442 6.19484,72.811346 7.17076,80.465046 0.89503,7.01935 4.59577,7.678951 3.93016,0.780841 -0.25583,-2.65123 -0.90307,-11.883798 -1.43832,-20.408798 -0.53526,-8.525 -1.09486,-24.335311 -1.94575,-36.160311 -3.83855,-53.345038 -4.27928,-64.865418 -5.64961,-85.621328 -0.80248,-12.1548 -2.26862,-29.99063 -2.82597,-37.69063 -0.55735,-7.7 -2.88298,-23.15676 -3.70965,-35.80676 -0.82667,-12.65 -1.93204,-28.175 -2.45637,-34.5 -2.26598,-27.33418 -2.40581,-32.53988 -0.83915,-31.23967 0.80257,0.66608 1.97921,2.90498 2.61475,4.97536 0.63555,2.07037 2.23896,7.36431 3.56313,11.76431 1.32418,4.4 13.85442,53.71517 28.54716,109.26517 14.69275,55.55 33.722,125.03483 41.58502,154.73483 14.07416,53.1605 12.05749,54.21376 12.75818,67.75 0.39147,7.5625 2.05474,15.121094 3.68404,15.121094 0.94959,0 1.34595,-1.610272 1.95659,-2.442752 0.78272,-1.0671 0.32995,-5.565242 -0.26742,-14.191942 -0.66614,-9.6197 -1.91848,-16.29946 -5.85632,-31.2364 -2.75495,-10.45 -5.81384,-22.15 -6.79753,-26 -0.98369,-3.85 -2.6995,-10.375 -3.81291,-14.5 -2.71925,-10.07444 -50.06877,-188.15976 -51.71387,-194.5 -0.71355,-2.75 -2.72688,-10.4 -4.47407,-17 -1.7472,-6.6 -4.18344,-15.825 -5.41387,-20.5 -1.23043,-4.675 -4.41344,-16.71427 -7.07336,-26.75393 -2.65992,-10.03966 -4.58989,-18.50025 -4.28882,-18.80132 0.71986,-0.71986 16.29769,6.32304 26.88986,12.15719 86.47081,47.62797 133.69357,146.98553 115.89711,243.84966 -15.48232,84.26858 -74.08759,152.09141 -154.77528,179.1187 -30.62931,10.25965 -68.35421,14.46762 -97.73361,10.90158 z m 105.0927,-24.85676 c -0.30396,-3.91332 -0.80069,-13.86512 -1.10383,-22.11512 -0.56893,-15.48315 -2.04908,-46.27353 -3.0886,-64.25 -0.56499,-9.77027 0.30252,-11.875 -1.83084,-11.875 -3.9398,0 -221.99373,32.64754 -222.70033,33.40073 -0.3737,0.39835 -2.3847,12.188 -2.024,20.39368 0.4723,10.75552 4.0122,16.28765 4.9344,16.59307 1.0087,0.33405 1.2202,-4.70518 1,-16.3681 l 1.7208,-13.79178 10.875,-1.64562 c 6.897,-1.043664 19.2,-3.35499 26.625,-4.52755 7.425,-1.17255 21.05,-4.75633 31.5,-6.43616 10.45,-1.67984 24.4,-3.92032 31,-4.97886 6.6,-1.05853 19.0875,-3.06981 27.75,-4.46951 8.6625,-1.39969 22.8375,-3.68014 31.5,-5.06766 8.6625,-1.38751 19.575,-3.15673 24.25,-3.93158 22.40994,-3.71431 30.06494,-4.73472 31.47119,-4.19509 1.09038,0.41842 -0.26845,2.0298538 -0.47119,5.59899 0,0 -1.19034,3.50999 -25.5,6.98733 -74.9324,10.7186 -174.3826,27.28875 -176.1213,28.01583 -2.0645,0.86338 -0.3598,1.82325 0.055,17.71718 0.4679,17.92745 3.0611,20.3301 4.7129,20.3301 0.7841,0 0.9981,-5.19502 0.731,-17.74382 l -0.3777,-17.74383 8,-1.24444 c 11.4202,-1.77647 40.7653,-6.12053 56,-8.28989 26.3728,-3.75539 35.2057,-5.05773 44,-6.48753 4.95,-0.80478 13.95,-2.14117 20,-2.96974 12.9033,-1.76717 40.9684,-5.88731 54.5,-8.00096 5.225,-0.81616 10.91155,-1.49199 12.63678,-1.50185 l 3.13677,-0.0179 0.67582,15.25 c 0.80381,18.13815 2.25767,46.08328 3.16919,60.91604 0.53366,8.68387 0.92227,10.56365 2.09113,10.11512 1.13639,-0.43607 1.32046,-2.03415 0.88301,-7.66604 z m 24.56436,-37.34356 c -1.20991,-17.47436 -1.36992,-38.6442 -1.88335,-47.04409 -0.94504,-15.46087 -2.5259,-17.22747 -4.4765,-17.22747 -0.74079,0 -0.88416,2.45751 -0.45215,7.75 0.34793,4.2625 1.75809,24.175 3.13367,44.25 2.94307,42.95051 3.33086,46.59041 4.80638,45.11489 0.76236,-0.76236 0.4367,-10.24397 -1.12805,-32.84333 z m 15.34925,24.71824 c 0.60912,-0.98558 0.0688,-7.94227 -3.1308,-40.31223 -0.86019,-8.70234 -1.29847,-16.08794 -0.97397,-16.41244 0.74927,-0.74927 4.18235,0.8196 12.77503,5.83799 l 6.82343,3.9851 0.005,6.20589 c 0.002,3.41324 0.29625,11.26839 0.65279,17.45589 0.52151,9.05063 0.94179,11.25 2.14977,11.25 1.29087,0 1.4103,-1.78883 0.85127,-12.75 -0.35765,-7.0125 -0.65209,-15.30684 -0.65432,-18.43187 l -0.004,-5.68186 -11.88148,-6.77529 -11.88148,-6.77529 1.17826,-4.78963 c -0.31445,-3.04679 -2.00529,-6.56875 -1.61852,-6.90991 0.61922,-0.54618 36.72891,20.34852 39.95322,23.11874 0.86481,0.74302 1.25,4.60552 1.25,12.53454 0,6.30331 0.39891,11.46057 0.88646,11.46057 1.49765,0 2.25937,-8.4886 1.54821,-17.25325 l 0.19894,-8.33206 -23.50431,-13.52711 C -946.05191,9.487927 -949.29447,3.55768 -949.86558,5.54366 c -0.33884,1.17832 1.94449,15.85972 2.93519,26.81976 0.9907,10.96004 2.29814,26.00235 2.90541,33.42735 0.60728,7.425 1.35367,15.6375 1.65865,18.25 0.53261,4.56232 1.54798,5.88397 2.87315,3.7398 z M -1184,11.89288 c 10.725,-2.2291 27.0533,-5.62217 36.2851,-7.54017 9.2318,-1.918 19.4693,-3.25563 20,-3.58362 1.147,-0.70891 -0.8893,-122.57179 -2.0351,-122.56461 -0.4125,0.003 -7.4644,12.73108 -15.6709,26.34099 -8.2065,13.60992 -26.5423,44.02862 -40.7461,67.59712 -14.2039,23.5685 -27.2936,43.05743 -26.9494,43.61428 0.7834,1.2676 5.0277,1.14263 29.1164,-3.86399 z m -23,1.04347 c 0,-0.58918 11.7564,-20.55047 26.1253,-44.35841 14.3688,-23.80794 30.9063,-51.26356 36.75,-61.01248 5.8436,-9.74892 9.9934,-15.67392 10.4059,-15.6875 0.4125,-0.0136 -0.031,3.54259 -0.031,9.81232 0,6.29165 1.693,10.98542 -1.5,15.75708 -1.7875,2.67167 -15.1629,24.75582 -29.723,49.07589 l -26.473,44.21831 -5.527,1.10823 c -3.0399,0.60952 -6.5395,1.34437 -7.777,1.63301 -1.2597,0.2938 -2.25,0.0533 -2.25,-0.54645 z m 21,-4.86445 c 0,-1.2317 52.4459,-88.12354 52.9876,-87.78929 0.2818,0.17389 0.3897,17.85318 0.2398,39.2873 l -0.2726,38.97113 -8.2274,1.5631 c -4.5251,0.8597 -15.8774,3.16462 -25.2274,5.12203 -17.9877,3.76571 -19.5,3.98641 -19.5,2.84573 z m 277.77404,-14.0165043 c -2.60319,-10.5526397 -21.66315,-86.0724557 -23.33745,-93.2124757 -0.76861,-3.27774 -1.6818,-1.74765 -5.0418,8.44785 -1.45006,4.4 -3.69665,9.173223 -4.39825,10.823223 -0.70161,1.65 -3.31852,9.348224 -5.9234,17.323224 -2.60487,7.975 -4.89186,15.978553 -5.56833,17.353553 -0.87691,1.7824 -2.10375,5.694724 -1.52987,10.885584 1.04854,9.48411 2.5022,9.303746 5.77249,11.266216 1.51391,0.90849 11.41997,9.130778 22.12148,17.1374377 10.70152,8.00666 21.1707,16.4239023 21.37432,16.2202823 0.20362,-0.20361 -1.79504,-9.45836426 -3.46919,-16.2448943 z m -9.90107,0.3483459 -7.37833,-6.0657996 -2.52195,-12.001484 c -1.44397,-6.871586 -3.78373,-17.670688 -5.27188,-24.545688 -6.06798,-28.0329 -6.95068,-23.95608 -3.37327,-34.04465 1.74485,-4.92063 3.45889,-8.94857 3.80896,-8.95098 0.35008,-0.002 0.8733,1.23313 1.16273,2.74563 0.28943,1.5125 1.43476,6.35 2.54518,10.75 1.11042,4.4 4.05147,22.355806 8.26413,39.955806 4.21266,17.6 8.34149,32.5344222 8.79707,34.3219222 0.45558,1.7875 0.5271,3.24732997 0.15893,3.24406997 -0.36816,-0.003 -1.78153,-2.68110937 -6.19157,-5.40882657 z m -21.8713,-15.0722016 c -4.79932,-3.61918 -8.78212,-7.41673 -9.15032,-8.7247 -1.68713,-5.99322 -0.80543,-13.45707 2.89803,-24.53293 2.06284,-6.16927 4.07955,-11.23177 4.48157,-11.25 0.40202,-0.0182 0.93383,0.97936 1.18179,2.21686 0.24797,1.2375 1.36555,6.525 2.48352,11.75 4.6363,21.6685 7.25348,33.60118 7.73133,35.25 0.80775,2.78709 -0.59571,2.10048 -9.62592,-4.70923 z m -152.90387,14.5223584 c 12.1844,-2.50558 26.8022,-5.5619914 33.4022,-6.9000514 36.9184,-7.48471 54.6761,-12.005827 55.2423,-12.572087 0.3504,-0.35035 -0.2443,-1.25429 -1.3214,-2.00876 -1.0772,-0.75448 -16.776,-14.767938 -36.2907,-30.654898 -19.5147,-15.88696 -45.1692,-36.013913 -56.1458,-44.942632 -10.9766,-8.92871 -18.1727,-17.61928 -21.4419,-15.65407 -5.2138,-0.22197 -1.9672,27.149518 -0.4191,73.257758 1.1201,33.36204 -0.1597,44.661612 0.7947,44.661612 0.2885,0 13.3191,-2.1620491 25.4281,-5.0100949 z m -21.465,-15.7676484 c -0.4595,-10.045612 -1.1868,-30.930315 -1.7362,-48.530315 -0.5493,-17.6 -0.999,-33.350065 -1.2694,-36.512565 -0.5507,-6.44037 0.8499,-6.7442 2.5915,-5.0026 1.1642,1.16421 2.2492,4.14015 2.8341,20.382583 0.3565,9.9 0.5649,32.67879 1.4352,50.99764 0.8703,18.31884 1.067,31.5534308 0.8691,31.7328308 -0.1979,0.1794 -0.3697,2.8186041 -1.9524,2.0933344 l -2.123,-0.9728945 z m 8.9673,5.45452 c -0.3186,-4.5375 -1.0443,-21.3 -1.6126,-37.25 -0.5684,-15.95 -1.3222,-34.61662 -1.6752,-41.48138 l -0.6418,-12.48137 2.0776,1.48137 c 1.1427,0.81476 8.7544,6.93878 16.9148,13.60894 8.1604,6.67015 24.0621,19.62675 35.3371,28.79244 11.275,9.16569 25.8109,20.98734 32.3021,26.27033 6.4912,5.283 11.4412,9.95568 11,10.38373 -0.4411,0.42806 -11.1521,2.88473 -23.8021,5.45927 -12.65,2.57454 -32.675,6.65184 -44.5,9.06066 -11.825,2.40882 -22.2471,4.38559 -23.1602,4.39284 -1.3676,0.0109 -1.7624,-1.44131 -2.2397,-8.23683 z m 155.04835,-64.507857 c 1.80549,-5.04737 4.33652,-10.703183 5.08437,-12.136363 0.74784,-1.43318 0.25763,-3.18877 0.26102,-3.9013 0.003,-0.71254 1.70955,-5.19032 4.33913,-11.0734 l 4.68652,-10.48498 -3.6349,-15.04532 c -17.24539,-71.38109 -30.03953,-129.04203 -31.77726,-130.10844 -1.51953,-0.9325 -1.93134,3.583 -0.59684,17.92962 0.81577,8.77 2.90226,26.65304 3.98846,39.57804 1.0862,12.925 0.89221,28.71114 1.45944,34.48614 1.11568,11.35893 6.11034,59.27367 7.76498,79.51386 1.38876,16.98772 1.9861,22.540908 3.0735,22.540908 2.33334,0 3.54609,-6.251395 5.35158,-11.298765 z m -3.6573,-4.125984 c 0.45882,-3.211748 -0.55162,-4.694679 -0.93909,-9.679529 -0.70405,-9.05764 -0.56966,-8.93507 3.03019,-15.7207 3.20536,-6.04203 3.80566,-7.1032 2.95069,-10.34824 -0.52843,-2.0057 -2.79981,-11.69447 -4.77743,-21.04447 -1.97762,-9.35 -4.45808,-21.64064 -5.78221,-27.69064 -2.00723,-9.1711 -6.36538,-46.65422 -6.89878,-54.91131 -0.17677,-2.73655 1.25979,0.40591 7.83904,27.85325 3.88921,16.225 9.82301,39.24398 12.90868,52.55624 l 5.39546,23.2772 -5.81705,16.2202 c -6.24526,17.375202 -7.00982,18.991953 -7.9095,19.487999 z m -2.99617,-28.366159 c -0.003,-1.2375 -0.71904,-9.9 -1.59173,-19.25 -2.02579,-21.70431 -2.0806,-22.22885 -2.82124,-27 -1.41591,-9.12113 3.50457,12.15452 5.98141,25.86301 2.27268,12.57853 2.50644,15.46045 1.52087,18.75 -1.2738,4.25155 -3.08134,5.20935 -3.08931,1.63699 z m -44.39268,69.04684 c -6.325,-4.9598 -35.0332,-26.37761 -64.2821,-48.89149 l -51.1911,-40.97853 15.4457,-27.79356 c 8.8105,-15.85375 23.3046,-39.65826 31.4515,-53.13326 8.1469,-13.475 19.9642,-31.21043 25.085,-40.32258 l 10.14,-15.51321 15.5494,-10.79617 c 7.3033,-5.0708 15.889,-9.07739 16.0058,-6.64967 0.162,3.36637 -0.2613,3.93167 -11.093,11.05524 -10.5274,6.92353 -11.4497,6.44922 -15.7282,13.5625 -2.5147,4.18077 -12.1241,24.11389 -22.462,41.16389 -59.5652,98.2394 -55.3655,85.53299 -52.9849,87.75503 1.0365,0.96745 28.7116,23.03512 58.9616,46.98668 30.25,23.95156 55.08298,44.91337 55.99462,45.93362 1.91016,2.13772 3.13256,5.515408 1.65183,5.922478 -0.55,0.15119 -6.2192,-3.341168 -12.54415,-8.300968 z M -997,-52.58383 c -6.6067,-5.40783 -29.4284,-23.54347 -76.8331,-61.05667 -14.4833,-11.46114 -26.5628,-21.43678 -26.8434,-22.16809 -0.2806,-0.73131 0.3626,-2.58312 1.4294,-4.11515 1.0668,-1.53202 6.6819,-10.66049 12.4779,-20.28549 5.796,-9.625 17.6248,-29.2 26.2862,-43.5 8.6613,-14.3 20.1636,-33.29063 25.5605,-42.20141 5.397,-8.91077 10.5409,-17.31273 11.4309,-18.67101 1.4397,-2.19738 16.3248,-12.85885 19.8317,-14.20459 1.5976,-0.61305 1.911,2.80173 4.13758,45.07701 0.8111,15.4 1.94982,34.75 2.5305,43 0.58068,8.25 1.95755,31.2 3.05971,51 1.10217,19.8 2.653,47.25 3.4463,61 1.68156,29.14581 1.73681,31.50905 0.73581,31.47295 -0.4125,-0.0149 -3.675,-2.42128 -7.25,-5.34755 z m 15.25768,-277.3163 c -1.4417,-3.10464 -4.59037,-23.43389 -4.03371,-26.04346 0.8518,-3.99317 3.97941,5.34963 5.63048,16.81938 1.70887,11.87128 1.14503,15.12844 -1.59677,9.22408 z"
         id="path4185"
         inkscape:connector-curvature="0"
         sodipodi:nodetypes="cssssscssssscscsscssscscscssscccccsscscssssssscssssssssssssssssssssssssssssssssssssscssssccscsssssssssscssscsssssscsssccscssssscsssccsssscccscsssscsssssccssccsscsssscscscscsssscsssssssssssscsssssscsssscsssccssssscscsscsssscsssscscscsscsssscssccsscccsssssssssccsssssscssccssscsssssscscsssssscsssssssscssssscssssssss" />
      <path
         style="fill:#0b0b0b"
         d="m -1086,124.73687 c -36.3866,-4.45187 -71.4423,-17.07917 -101,-36.38093 -67.352,-43.98217 -107.2021,-120.29159 -104.7147,-200.51972 3.2194,-103.83928 73.132,-191.69394 173.184,-217.62916 22.218,-5.75931 32.0867,-6.89936 59.0307,-6.81943 24.4181,0.0724 33.0561,0.90697 31.7143,3.06395 -0.5383,0.86529 -3.0123,0.90107 -9.7182,0.14056 -9.8559,-1.11775 -48.1395,-0.36924 -55.4961,1.08504 -18.1615,3.59024 -22.4629,4.55193 -30,6.70734 -9.5683,2.73626 -9.886,2.84726 -23,8.0366 -50.1311,19.83734 -92.6308,58.43318 -117.135,106.37534 -7.1042,13.89922 -9.0037,18.45738 -14.2567,34.21043 -12.9308,38.7786 -14.9807,82.54646 -5.7504,122.78388 8.4004,36.62011 27.1074,72.92276 51.636,100.20449 l 4.2963,4.7785 0.7009,-15.7415 0.7009,-15.74149 10.733,-18 c 5.9031,-9.9 26.4856,-44.325 45.7389,-76.5 19.2533,-32.175 55.8315,-93.375 81.2848,-136 25.4533,-42.625 47.2643,-79.075 48.4689,-81 1.2045,-1.925 5.2387,-12.24559 8.9647,-22.93463 6.5724,-18.85451 6.7659,-19.68774 6.4816,-27.91347 l -0.2931,-8.47884 16.4646,-5.32139 c 9.05554,-2.92676 16.73794,-5.3282 17.07202,-5.33653 0.54932,-0.0137 4.39258,24.44155 4.39258,27.95063 0,0.95437 -3.1401,2.52442 -9,4.5 l -9,3.03423 0.08,4 c 0.044,2.2 0.2668,8.70145 0.4949,14.44766 l 0.4146,10.44765 -16.3384,11.18156 c -8.986,6.14985 -16.9315,11.79841 -17.6564,12.55234 -0.725,0.75393 -4.583,6.77079 -8.5734,13.37079 -14.3753,23.77658 -71.2727,118.10368 -73.9711,122.63269 l -2.7602,4.63269 66.1549,50.95923 c 36.3852,28.02758 67.1767,51.50118 68.42557,52.16356 3.26093,1.72954 4.2477,0.61025 3.68657,-4.18168 -0.27092,-2.31357 -1.16463,-17.03149 -1.98603,-32.70649 -0.8214,-15.675 -1.9371,-35.7 -2.47934,-44.5 -0.54224,-8.8 -1.65266,-27.7 -2.4676,-42 -3.09574,-54.3218 -5.61512,-97.8424 -7.0046,-121 -0.79201,-13.2 -1.73537,-29.85 -2.09637,-37 l -0.6564,-13 5.90733,-1.70111 c 3.24905,-0.9356 6.64361,-1.98362 7.54346,-2.32893 2.07164,-0.79496 2.13367,-0.30636 4.7648,37.53004 1.12828,16.225 2.94705,42.1 4.04172,57.5 5.18203,72.90205 6.06766,85.50013 7.48684,106.5 0.83631,12.375 1.94159,27.675 2.45619,34 0.5146,6.325 1.19981,15.775 1.52268,21 1.29787,21.00271 2.78996,36.59252 3.6609,38.25 0.50575,0.9625 1.41182,1.75 2.01349,1.75 0.75424,0 0.89026,-2.4066 0.43804,-7.75 -0.36075,-4.2625 -1.31123,-17.65 -2.11218,-29.75 -0.80096,-12.1 -2.36699,-35.05 -3.48007,-51 -4.66139,-66.79558 -6.10511,-87.53267 -8.07595,-116 -1.14232,-16.5 -2.91356,-41.69376 -3.93608,-55.98614 -1.02252,-14.29237 -1.6713,-26.17396 -1.44173,-26.40354 0.55144,-0.55143 3.36418,6.23608 4.92707,11.88968 1.12319,4.06303 5.3285,19.71702 11.95454,44.5 1.32345,4.95 15.30457,57.6 31.06916,117 32.48936,122.41787 30.67813,115.62275 37.58333,141 4.72895,17.37929 5.22891,20.25717 5.86121,33.73813 0.61976,13.2135 1.55521,18.3951 2.73067,15.12564 0.22467,-0.62493 2.94144,-4.43768 6.03725,-8.47277 9.37751,-12.2227 18.26283,-26.62677 24.89572,-40.35869 11.1604,-23.1051 15.18036,-35.757 21.61628,-68.03231 1.60054,-8.02652 1.61369,-57.87662 0.0174,-66 -4.13678,-21.05182 -7.48294,-33.65824 -12.74078,-48 -4.24305,-11.57374 -15.8961,-34.32425 -23.30557,-45.5 -6.79596,-10.25038 -25.60039,-33.50368 -30.33104,-37.50693 -1.30437,-1.10382 -5.68963,-4.85417 -9.745,-8.33412 -16.07083,-13.79051 -32.99509,-24.87645 -50.72401,-33.22587 -14.43742,-6.79929 -13.72877,-6.41166 -14.17639,-7.75452 -0.80772,-2.42315 3.47082,-0.9867 17.17762,5.76709 60.66833,29.89326 105.33427,85.03494 121.54725,150.05435 9.78181,39.22833 9.77049,76.43806 -0.0351,115.39877 -9.85815,39.16948 -31.49313,77.14666 -60.43433,106.08403 -33.41558,33.41115 -74.62199,54.88378 -122.98162,64.08561 -12.0296,2.28899 -17.1667,2.70834 -36.5,2.97961 -12.375,0.17364 -25.875,-0.0972 -30,-0.60192 z m 57.1535,-4.05398 c 19.1107,-2.7411 47.37081,-10.27123 49.63322,-13.22517 0.50562,-0.66016 0.56583,-5.5098 0.13865,-11.16695 -0.41531,-5.5 -1.53357,-27.775 -2.48501,-49.5 -0.95144,-21.725 -2.10042,-40.50412 -2.55329,-41.73137 -0.65107,-1.76435 -1.40562,-2.13309 -3.60523,-1.76182 -1.53001,0.25826 -8.40684,1.35673 -15.28184,2.44105 -6.875,1.08432 -20.825,3.30939 -31,4.94459 -10.175,1.6352 -29.975,4.81688 -44,7.07042 -14.025,2.25353 -32.25,5.19039 -40.5,6.52635 -38.0899,6.16809 -47.0153,7.60796 -61.5,9.92136 -8.525,1.36155 -17.75,2.78293 -20.5,3.15863 -7.7799,1.06286 -7.6884,0.84749 -7.3816,17.36634 0.2522,13.58704 0.8591,17.06445 2.978,17.06445 0.4683,0 0.9757,-6.83268 1.1276,-15.18373 l 0.276,-15.18372 104,-16.7373 c 57.2,-9.20551 105.84886,-17.01586 108.10858,-17.35634 l 4.10859,-0.61904 0.6487,4.73278 c 0.35678,2.60303 0.29526,5.08622 -0.13672,5.5182 -0.43199,0.43199 -16.29775,3.0594 -35.25725,5.8387 -18.9596,2.7793 -40.3219,5.93133 -47.4719,7.00452 -7.15,1.07319 -20.875,3.10399 -30.5,4.51289 -9.625,1.40891 -23.125,3.40081 -30,4.42644 -6.875,1.02563 -21.05,3.09076 -31.5,4.58916 -10.45,1.49841 -20.6875,3.13166 -22.75,3.62945 l -3.75,0.90508 0,6.30445 c 0,3.46745 0.2958,11.8066 0.6574,18.53144 l 0.6575,12.22699 5.5925,3.61335 c 12.05,7.7855 33.4797,17.75831 49.8179,23.18396 15.4853,5.14244 43.7567,10.40882 61.2747,11.41421 9.9245,0.56958 27.2577,-0.46626 41.1535,-2.45937 z m 76.13651,-25.2055 c 0.2772,-0.72236 0.33138,-2.40986 0.1204,-3.75 -0.36285,-2.30478 -2.05078,-28.65063 -4.48073,-69.93662 -1.10741,-18.81555 -1.86874,-23 -4.18467,-23 -0.88191,0 -1.20984,1.20184 -1.02323,3.75 1.50396,20.53604 4.45277,62.27957 5.40404,76.5 0.85553,12.78901 1.53296,17.75 2.4238,17.75 0.68002,0 1.4632,-0.59102 1.74039,-1.31338 z m 25.86499,-15.30438 7.655,-5.38609 -0.39546,-5.74808 c -0.2175,-3.16144 -0.66511,-11.37307 -0.9947,-18.24807 l -0.59925,-12.5 -11.6603,-6.5 -11.66029,-6.5 -0.2999,-5.75 c -0.16495,-3.1625 -0.0676,-5.75 0.21643,-5.75 0.28399,0 9.27563,5.22173 19.98143,11.60385 l 19.4651,11.60385 0.6891,6.43474 c 0.379,3.53911 0.48371,8.91149 0.23268,11.93862 -0.47716,5.75387 0.20053,7.34642 2.13452,5.0161 0.75668,-0.91173 1.04995,-5.38533 0.86331,-13.1687 L -901.5,35.43136 -924.43529,21.61106 c -12.6144,-7.60116 -23.3019,-13.82029 -23.75,-13.82029 -1.20064,0 -1.02217,4.38627 1.12154,27.5647 1.06494,11.51441 2.42943,27.2353 3.0322,34.9353 0.60278,7.7 1.33679,15.21278 1.63114,16.69507 l 0.53519,2.69506 3.68261,-2.0609 c 2.02544,-1.13349 7.12736,-4.48464 11.33761,-7.44699 z m -249.8047,-69.45542 c 15.9907,-3.34024 31.5661,-6.5188 34.6119,-7.06345 3.0458,-0.54465 7.2253,-1.42907 9.2878,-1.96537 l 3.75,-0.97509 0,-60.96145 c 0,-33.5288 -0.3375,-60.94519 -0.75,-60.9253 -0.4125,0.0199 -8.4952,12.9574 -17.9614,28.75 -9.4663,15.79261 -27.8038,46.2618 -40.75,67.70931 -12.9462,21.4475 -23.5386,39.56 -23.5386,40.25 0,2.17432 5.3907,1.43951 35.3503,-4.81865 z m -29.7926,2.16653 c -0.2162,-0.34986 7.4812,-13.67649 17.1053,-29.61473 9.6242,-15.93824 26.1247,-43.30163 36.6678,-60.80754 l 19.1692,-31.82891 0.2816,10.95118 0.2815,10.95119 -29.3188,48.84945 -29.3189,48.84946 -7.2373,1.643 c -3.9805,0.90366 -7.4142,1.35676 -7.6304,1.0069 z m 301.03004,-6.34335 c -0.35504,-1.2375 -5.15002,-20.7 -10.6555,-43.25 -5.50548,-22.55 -11.117,-45.5 -12.47004,-51 -1.35305,-5.5 -2.46056,-10.825 -2.46114,-11.83333 -5.9e-4,-1.01367 -0.55993,-1.65397 -1.25106,-1.43216 -1.02405,0.32867 -3.48715,6.35669 -8.07634,19.76549 -13.19447,38.55196 -13.43751,39.4026 -13.00006,45.5 0.23675,3.3 0.62657,6.95653 0.86626,8.12562 0.28294,1.38 8.14726,7.79907 22.41947,18.29938 12.09102,8.89556 22.24805,16.60153 22.57118,17.12437 1.17377,1.8992 2.69859,0.93611 2.05723,-1.29937 z m -13.51378,-11.67343 c -3.53431,-2.63781 -6.73064,-5.64664 -7.10294,-6.68629 -0.3723,-1.03965 -3.52945,-15.29939 -7.01589,-31.68831 l -6.33898,-29.79803 2.92977,-8.45197 c 2.76566,-7.97851 4.45408,-10.54596 4.45408,-6.77297 0,0.92345 0.43548,3.06095 0.96774,4.75 0.53225,1.68905 2.77142,10.721 4.97592,20.071 2.20451,9.35 6.49403,27.26637 9.53227,39.81416 3.03824,12.54778 5.52407,23.01028 5.52407,23.25 0,1.07764 -1.9444,-0.0233 -7.92604,-4.48759 z M -1075,-10.171 c 18.975,-3.93098 42.7219,-8.81021 52.771,-10.84273 12.1438,-2.45622 18.1801,-4.09598 18,-4.88971 -0.1491,-0.65681 -18.946,-16.35255 -41.771,-34.87941 -22.825,-18.52687 -48.1801,-39.13947 -56.3446,-45.8058 -8.1645,-6.66632 -15.2672,-12.27562 -15.7836,-12.46512 -0.5165,-0.1895 -1.5817,0.1888 -2.3671,0.84066 -1.096,0.90954 -1.3136,2.96672 -0.936,8.84454 0.4196,6.52955 3.4313,98.89203 3.4313,105.22941 0,1.99413 0.3802,2.14197 4.25,1.65271 2.3375,-0.29552 19.775,-3.75357 38.75,-7.68455 z m -39.4825,3.64095 c -0.201,-0.64855 -0.632,-11.30418 -0.9577,-23.67918 -0.3258,-12.375 -1.0928,-36.12973 -1.7044,-52.78829 -0.6117,-16.65855 -0.8322,-30.56829 -0.4899,-30.91053 0.3422,-0.34224 1.4902,0.16323 2.551,1.12327 2.4561,2.22273 2.7056,5.25722 4.6099,56.07555 0.8245,22 1.6058,42.20946 1.7363,44.9099 0.223,4.61372 0.068,4.95631 -2.5713,5.67918 -1.877,0.51414 -2.9297,0.37819 -3.1739,-0.4099 z m 164.02637,-75.17918 c 2.01996,-5.5 5.59811,-15.44711 7.95144,-22.10469 2.35333,-6.65758 4.73623,-12.95944 5.29534,-14.00413 0.76294,-1.42557 -0.0525,-6.26428 -3.26855,-19.39531 -5.43948,-22.20917 -12.68902,-52.10157 -20.97708,-86.49587 -7.48217,-31.05001 -9.50718,-38.35858 -10.85974,-39.19451 -1.06669,-0.65925 -0.94546,1.21308 2.82901,43.69451 1.34385,15.125 3.59287,40.55 4.99782,56.5 1.40495,15.95 3.41802,38.675 4.47351,50.5 1.05548,11.825 2.22229,25.775 2.59291,31 1.01837,14.35696 1.52216,14.32079 6.96534,-0.5 z m -3.57097,-2.75 c -0.0149,-0.1375 -0.43888,-4.50871 -0.94217,-9.71381 l -0.91508,-9.4638 3.52139,-6.70123 3.5214,-6.70123 -6.71458,-30.83496 c -3.69302,-16.95924 -7.08376,-34.65997 -7.53498,-39.33497 -0.45122,-4.675 -1.30727,-13.675 -1.90233,-20 -0.59506,-6.325 -1.34255,-13.525 -1.66109,-16 -0.90321,-7.01776 1.17978,-3.67027 3.11128,5 1.6845,7.56155 3.64607,15.69282 16.49951,68.39525 l 7.04718,28.89526 -6.62255,18.35474 c -5.64674,15.65027 -7.24947,19.56725 -7.40798,18.10475 z m -99.1707,0.50994 c -35.5837,-27.36797 -64.7212,-50.07709 -64.75,-50.46471 -0.029,-0.38762 3.175,-6.01262 7.1193,-12.5 3.9444,-6.48738 21.4164,-35.42023 38.8267,-64.29523 17.4103,-28.875 32.8415,-54.37732 34.2916,-56.67182 1.9086,-3.01989 6.7195,-6.98934 17.4234,-14.37581 8.1327,-5.6122 15.3016,-10.40223 15.9308,-10.64451 0.7306,-0.2813 1.2796,1.26368 1.5191,4.27483 l 0.375,4.71534 -11.2571,7.49738 -11.2572,7.49737 -6.3575,10.60361 c -3.4965,5.83199 -10.8645,18.02861 -16.3732,27.10361 -55.2431,91.00733 -57.3109,94.4822 -57.2262,96.16826 0.037,0.73246 15.1693,13.25674 33.6279,27.83174 90.05802,71.11018 83.55621,65.65349 83.13626,69.77263 l -0.33106,3.24725 z m 71.1509,-245.29201 c -1.18986,-2.34195 -4.09401,-23.9893 -3.91591,-27.46793 0.0282,-0.55 1.18101,0.041 2.25632,2.07711 1.77154,3.35447 5.28468,26.17803 4.25616,27.20655 -0.22121,0.22121 -1.80217,-0.25212 -2.59657,-1.81573 z"
         id="path4183"
         inkscape:connector-curvature="0"
         sodipodi:nodetypes="csssscsssssssscccssscsscsssscsccscsscsssssssscsssssssssssssscssssscssssssssssssssssccsssssssssssscsccsscsssssssscsscsssscsssssscscsscccssscsssscssssscssssscscssssssscccccsssssscssssssssscssssssssscsscccssscssccssccssssssssssscscccsssssscscscsscscsccccscsscsscsss" />
    </g>
  </g>
</svg>
