<svg xmlns="http://www.w3.org/2000/svg" viewBox="0 0 463.73113 488.70518" height="521.286" width="494.647"><path d="M207.5 487.457c-27.174-3.299-52.952-10.787-77.044-22.383C77.528 439.601 36.573 395.22 15.5 340.503 4.66 312.35 0 287.097 0 256.485c0-19.19.728-27.06 4.118-44.5C26.286 97.92 129.274 18.215 245.645 25.062c17.024 1.001 19.739 1.55 18.78 3.796-.381.895-3.064 8.377-5.962 16.627-2.897 8.25-5.76 16.26-6.36 17.802-.601 1.541-6.42 11.666-12.929 22.5a51056.83 51056.83 0 0 0-39.344 65.698c-15.129 25.3-51.633 86.318-81.12 135.596-29.487 49.278-54.09 90.678-54.673 92-.583 1.322-1.397 8.62-1.809 16.216-.652 12.027-.542 13.999.855 15.263.662.6 1.94 4.673 2.237 3.259.358-1.707-.313-9.581.01-17.313l.64-15.504 16.347-27.259a179285.02 179285.02 0 0 0 67.192-112.258c27.965-46.75 62.97-105.25 77.79-130l26.946-45 6.627-18.5c6.37-17.78 8.502-17.488 8.505-26.44 0-7.25-1.54-10.87-.373-11.502 3.088-1.673 32.02-10.372 32.593-9.799.328.328.522 6.848 1.654 14.64 1.646 11.338 1.678 13.077.658 13.708-.701.433-2.882.702-6.527 1.666-6.9 1.827-10.496 3.446-9.885 5.42.197.635-.291 9.167.05 16.042l.62 12.5-16.356 11.302-17.462 12.54-5.786 8.99c-10.317 16.032-52.23 86.568-65.81 108.987-7.254 11.976-14.597 22.188-14.318 22.639.876 1.418 129.468 101.704 134.243 103.22l4.626 1.467c.668-3.363.165-8.619-.689-14.44-1.154-7.867-.841-23.983-1.621-35.808s-1.453-30.817-2.035-42.367c-.583-11.55-1.883-30.86-2.674-43.235-.79-12.375-1.697-27.45-2.014-33.5-.318-6.05-1.189-22.51-1.99-35.986-1.218-20.488-4.508-66.503-5.126-85.522l-.165-5.066 6.514-2.187c3.838-1.29 7.494-2.09 8.096-1.863.613.23 1.369 4.315 1.713 9.253l2.144 30.84c.84 12.1 1.997 28.3 2.572 36 .574 7.7.86 23.234 1.663 35.059.803 11.825 1.995 30.942 2.81 41.942.816 11 2.065 37.092 3.477 57.442 2.994 43.117 6.195 72.811 7.171 80.465.895 7.02 4.596 7.679 3.93.78-.255-2.65-.903-11.883-1.438-20.408-.535-8.525-1.095-24.335-1.946-36.16-3.838-53.345-4.279-64.866-5.65-85.622-.802-12.155-2.268-29.99-2.825-37.69-.558-7.7-2.883-23.157-3.71-35.807-.827-12.65-1.932-28.175-2.456-34.5-2.266-27.334-2.406-32.54-.84-31.24.803.666 1.98 2.905 2.615 4.976.636 2.07 2.24 7.364 3.563 11.764 1.325 4.4 13.855 53.715 28.548 109.265 14.692 55.55 33.722 125.035 41.585 154.735 14.074 53.16 12.057 54.214 12.758 67.75.391 7.562 2.055 15.121 3.684 15.121.95 0 1.346-1.61 1.956-2.443.783-1.067.33-5.565-.267-14.192-.666-9.62-1.919-16.3-5.856-31.236-2.755-10.45-5.814-22.15-6.798-26-.984-3.85-2.7-10.375-3.813-14.5-2.719-10.075-50.069-188.16-51.714-194.5-.713-2.75-2.727-10.4-4.474-17-1.747-6.6-4.183-15.825-5.414-20.5-1.23-4.675-4.413-16.714-7.073-26.754-2.66-10.04-4.59-18.5-4.289-18.801.72-.72 16.298 6.323 26.89 12.157 86.47 47.628 133.694 146.985 115.897 243.85-15.482 84.268-74.087 152.09-154.775 179.118-30.63 10.26-68.354 14.468-97.734 10.902zM312.593 462.6c-.304-3.913-.801-13.865-1.104-22.115-.57-15.483-2.05-46.274-3.089-64.25-.565-9.77.303-11.875-1.83-11.875-3.94 0-221.994 32.647-222.7 33.4-.375.399-2.386 12.189-2.025 20.394.472 10.756 4.012 16.288 4.934 16.593 1.01.334 1.22-4.705 1-16.368l1.721-13.792 10.875-1.645c6.897-1.044 19.2-3.355 26.625-4.528 7.425-1.172 21.05-4.756 31.5-6.436 10.45-1.68 24.4-3.92 31-4.979 6.6-1.058 19.088-3.07 27.75-4.47 8.663-1.399 22.838-3.68 31.5-5.067a5934.369 5934.369 0 0 0 24.25-3.931c22.41-3.715 30.065-4.735 31.471-4.196 1.09.419-.268 2.03-.47 5.6 0 0-1.191 3.51-25.5 6.987-74.933 10.718-174.383 27.289-176.122 28.016-2.065.863-.36 1.823.055 17.717.468 17.927 3.061 20.33 4.713 20.33.784 0 .998-5.195.73-17.744l-.377-17.744 8-1.244c11.42-1.777 40.765-6.12 56-8.29 26.373-3.755 35.206-5.058 44-6.488 4.95-.804 13.95-2.14 20-2.97 12.903-1.767 40.969-5.887 54.5-8 5.225-.816 10.912-1.492 12.637-1.502l3.137-.018.676 15.25c.803 18.138 2.257 46.083 3.169 60.916.533 8.684.922 10.564 2.09 10.115 1.137-.436 1.321-2.034.884-7.666zm24.564-37.344c-1.21-17.474-1.37-38.644-1.883-47.044-.945-15.46-2.526-17.227-4.477-17.227-.74 0-.884 2.457-.452 7.75.348 4.262 1.758 24.175 3.134 44.25 2.943 42.95 3.33 46.59 4.806 45.115.762-.763.437-10.244-1.128-32.844zm15.35 24.719c.608-.986.068-7.943-3.131-40.313-.86-8.702-1.299-16.087-.974-16.412.749-.75 4.182.82 12.775 5.838l6.823 3.985.005 6.206c.002 3.413.296 11.268.653 17.456.521 9.05.942 11.25 2.15 11.25 1.29 0 1.41-1.789.85-12.75-.357-7.013-.651-15.307-.653-18.432l-.004-5.682-11.882-6.775-11.881-6.775 1.178-4.79c-.315-3.047-2.005-6.569-1.619-6.91.62-.546 36.73 20.349 39.954 23.119.864.743 1.25 4.605 1.25 12.534 0 6.304.398 11.46.886 11.46 1.498 0 2.26-8.488 1.548-17.252l.2-8.332-23.505-13.528c-21.182-12.19-24.424-18.12-24.996-16.134-.338 1.178 1.945 15.86 2.936 26.82.99 10.96 2.298 26.002 2.905 33.427.607 7.425 1.354 15.637 1.659 18.25.532 4.562 1.548 5.884 2.873 3.74zM108 374.087c10.725-2.23 27.053-5.622 36.285-7.54 9.232-1.918 19.47-3.256 20-3.584 1.147-.709-.89-122.572-2.035-122.564-.412.003-7.464 12.73-15.67 26.34a433936.67 433936.67 0 0 0-40.747 67.598c-14.204 23.568-27.294 43.057-26.95 43.614.784 1.268 5.028 1.143 29.117-3.864zm-23 1.043c0-.589 11.756-20.55 26.125-44.358 14.37-23.808 30.907-51.264 36.75-61.012 5.844-9.75 9.994-15.674 10.406-15.688.413-.014-.03 3.543-.03 9.812 0 6.292 1.692 10.986-1.5 15.757-1.788 2.672-15.164 24.756-29.724 49.076l-26.473 44.219-5.527 1.108c-3.04.61-6.54 1.344-7.777 1.633-1.26.294-2.25.053-2.25-.547zm21-4.864c0-1.232 52.446-88.124 52.988-87.79.281.175.39 17.854.24 39.288l-.273 38.971-8.228 1.563c-4.525.86-15.877 3.165-25.227 5.122-17.988 3.766-19.5 3.987-19.5 2.846zm277.774-14.017c-2.603-10.552-21.663-86.072-23.337-93.212-.769-3.278-1.682-1.748-5.042 8.448-1.45 4.4-3.697 9.173-4.398 10.823-.702 1.65-3.319 9.348-5.924 17.323-2.605 7.975-4.892 15.979-5.568 17.354-.877 1.782-2.104 5.695-1.53 10.885 1.048 9.485 2.502 9.304 5.772 11.267 1.514.908 11.42 9.13 22.122 17.137 10.701 8.007 21.17 16.424 21.374 16.22.204-.203-1.795-9.458-3.469-16.245zm-9.901.349l-7.378-6.066-2.522-12.001c-1.444-6.872-3.784-17.671-5.272-24.546-6.068-28.033-6.95-23.956-3.373-34.045 1.744-4.92 3.458-8.948 3.809-8.95.35-.003.873 1.232 1.162 2.745.29 1.512 1.435 6.35 2.545 10.75 1.11 4.4 4.052 22.356 8.265 39.956 4.212 17.6 8.341 32.534 8.797 34.322.455 1.787.527 3.247.159 3.244-.369-.003-1.782-2.681-6.192-5.41zm-21.871-15.072c-4.8-3.62-8.782-7.417-9.15-8.725-1.688-5.993-.806-13.457 2.897-24.533 2.063-6.17 4.08-11.232 4.482-11.25.402-.018.934.98 1.182 2.217.248 1.237 1.365 6.525 2.483 11.75 4.637 21.668 7.254 33.601 7.732 35.25.807 2.787-.596 2.1-9.626-4.71zm-152.904 14.522c12.184-2.506 26.802-5.562 33.402-6.9 36.918-7.485 54.676-12.006 55.242-12.572.35-.35-.244-1.254-1.321-2.009-1.077-.754-16.776-14.768-36.29-30.655-19.515-15.887-45.17-36.014-56.147-44.942-10.976-8.93-18.172-17.62-21.442-15.654-5.213-.222-1.967 27.149-.419 73.257 1.12 33.362-.16 44.662.795 44.662.289 0 13.32-2.162 25.428-5.01zm-21.465-15.768c-.46-10.045-1.187-30.93-1.736-48.53-.55-17.6-1-33.35-1.27-36.513-.55-6.44.85-6.744 2.592-5.002 1.164 1.164 2.249 4.14 2.834 20.382.356 9.9.565 32.68 1.435 50.998.87 18.319 1.067 31.554.87 31.733-.199.18-.37 2.819-1.953 2.093l-2.123-.973zm8.967 5.455c-.319-4.538-1.044-21.3-1.613-37.25-.568-15.95-1.322-34.617-1.675-41.482l-.642-12.48 2.078 1.48c1.143.815 8.755 6.94 16.915 13.61 8.16 6.67 24.062 19.626 35.337 28.792 11.275 9.166 25.81 20.987 32.302 26.27 6.491 5.283 11.441 9.956 11 10.384-.441.428-11.152 2.885-23.802 5.46-12.65 2.574-32.675 6.651-44.5 9.06-11.825 2.409-22.247 4.385-23.16 4.393-1.368.01-1.763-1.442-2.24-8.237zm155.048-64.508c1.806-5.047 4.337-10.703 5.085-12.136.748-1.434.257-3.19.26-3.902.004-.712 1.71-5.19 4.34-11.073l4.686-10.485-3.634-15.045c-17.246-71.381-30.04-129.042-31.778-130.109-1.52-.932-1.931 3.583-.597 17.93.816 8.77 2.903 26.653 3.989 39.578 1.086 12.925.892 28.711 1.46 34.486 1.115 11.359 6.11 59.274 7.764 79.514 1.39 16.988 1.986 22.54 3.074 22.54 2.333 0 3.546-6.25 5.351-11.298zm-3.657-4.126c.459-3.212-.551-4.695-.939-9.68-.704-9.057-.57-8.935 3.03-15.72 3.206-6.042 3.806-7.103 2.95-10.348-.527-2.006-2.799-11.695-4.776-21.045-1.978-9.35-4.459-21.64-5.783-27.69-2.007-9.172-6.365-46.655-6.898-54.912-.177-2.736 1.26.406 7.839 27.853 3.889 16.225 9.823 39.244 12.908 52.557l5.396 23.277-5.817 16.22c-6.246 17.375-7.01 18.992-7.91 19.488zm-2.996-28.366c-.003-1.238-.72-9.9-1.592-19.25-2.026-21.704-2.08-22.229-2.821-27-1.416-9.121 3.505 12.154 5.981 25.863 2.273 12.578 2.507 15.46 1.521 18.75-1.274 4.251-3.081 5.21-3.089 1.637zm-44.393 69.047c-6.325-4.96-35.033-26.378-64.282-48.892l-51.19-40.978 15.445-27.794c8.81-15.854 23.304-39.658 31.451-53.133 8.147-13.475 19.964-31.21 25.085-40.323l10.14-15.513 15.55-10.796c7.303-5.07 15.889-9.077 16.005-6.65.162 3.367-.26 3.932-11.093 11.055-10.527 6.924-11.45 6.45-15.728 13.563-2.514 4.18-12.124 24.114-22.462 41.164-59.565 98.24-55.365 85.533-52.985 87.755 1.037.967 28.712 23.035 58.962 46.987 30.25 23.951 55.083 44.913 55.995 45.933 1.91 2.138 3.132 5.516 1.651 5.923-.55.15-6.219-3.341-12.544-8.301zM295 309.61c-6.607-5.408-29.428-23.543-76.833-61.056-14.483-11.462-26.563-21.437-26.844-22.168-.28-.732.363-2.584 1.43-4.116 1.067-1.532 6.682-10.66 12.478-20.285 5.796-9.625 17.625-29.2 26.286-43.5 8.661-14.3 20.164-33.29 25.56-42.202 5.397-8.91 10.541-17.312 11.431-18.67 1.44-2.198 16.325-12.86 19.832-14.205 1.598-.613 1.911 2.802 4.138 45.077.81 15.4 1.95 34.75 2.53 43 .58 8.25 1.958 31.2 3.06 51s2.653 47.25 3.446 61c1.682 29.146 1.737 31.509.736 31.473-.413-.015-3.675-2.421-7.25-5.348zm15.258-277.316c-1.442-3.105-4.59-23.434-4.034-26.043.852-3.994 3.98 5.35 5.63 16.819 1.71 11.871 1.145 15.128-1.596 9.224z" fill="#edcf30"/><path d="M206 486.931c-36.387-4.452-71.442-17.08-101-36.381C37.648 406.568-2.202 330.258.285 250.03 3.505 146.191 73.417 58.336 173.47 32.401c22.218-5.76 32.087-6.9 59.031-6.82 24.418.073 33.056.908 31.714 3.065-.538.865-3.012.9-9.718.14-9.856-1.118-48.14-.369-55.496 1.085-18.162 3.59-22.463 4.552-30 6.708-9.568 2.736-9.886 2.847-23 8.036-50.131 19.838-92.63 58.433-117.135 106.376-7.104 13.899-9.004 18.457-14.257 34.21-12.93 38.779-14.98 82.546-5.75 122.784 8.4 36.62 27.107 72.923 51.636 100.204l4.296 4.779.701-15.742.701-15.741 10.733-18c5.903-9.9 26.486-44.325 45.739-76.5 19.253-32.175 55.831-93.375 81.285-136 25.453-42.625 47.264-79.075 48.469-81 1.204-1.925 5.238-12.246 8.964-22.935 6.573-18.854 6.766-19.687 6.482-27.913l-.293-8.48 16.464-5.32C293.091 2.41 300.773.008 301.107 0c.55-.014 4.393 24.442 4.393 27.95 0 .955-3.14 2.525-9 4.5l-9 3.035.08 4c.044 2.2.267 8.701.495 14.448l.415 10.447-16.339 11.182c-8.986 6.15-16.931 11.798-17.656 12.552-.725.754-4.583 6.77-8.574 13.37-14.375 23.777-71.272 118.105-73.97 122.634l-2.761 4.632 66.155 50.96c36.385 28.027 67.177 51.5 68.425 52.163 3.261 1.73 4.248.61 3.687-4.182-.27-2.313-1.165-17.031-1.986-32.706-.821-15.675-1.937-35.7-2.48-44.5-.542-8.8-1.652-27.7-2.467-42-3.096-54.322-5.615-97.843-7.005-121-.792-13.2-1.735-29.85-2.096-37l-.656-13 5.907-1.701c3.25-.936 6.644-1.984 7.543-2.33 2.072-.794 2.134-.306 4.765 37.53 1.129 16.226 2.947 42.1 4.042 57.5 5.182 72.903 6.068 85.501 7.487 106.5.836 12.376 1.941 27.676 2.456 34 .515 6.326 1.2 15.776 1.523 21 1.298 21.004 2.79 36.593 3.66 38.25.506.963 1.412 1.75 2.014 1.75.754 0 .89-2.406.438-7.75-.36-4.262-1.311-17.65-2.112-29.75-.801-12.1-2.367-35.05-3.48-51-4.661-66.795-6.105-87.532-8.076-116-1.142-16.5-2.914-41.693-3.936-55.985-1.023-14.293-1.671-26.174-1.442-26.404.552-.551 3.364 6.236 4.927 11.89 1.123 4.063 5.329 19.717 11.955 44.5 1.323 4.95 15.304 57.6 31.069 117 32.49 122.418 30.678 115.623 37.583 141 4.73 17.38 5.23 20.257 5.861 33.738.62 13.214 1.556 18.395 2.731 15.126.225-.625 2.942-4.438 6.037-8.473 9.378-12.223 18.263-26.627 24.896-40.359 11.16-23.105 15.18-35.757 21.616-68.032 1.6-8.027 1.614-57.877.018-66-4.137-21.052-7.483-33.658-12.741-48-4.243-11.574-15.896-34.324-23.306-45.5-6.796-10.25-25.6-33.504-30.33-37.507-1.305-1.104-5.69-4.854-9.746-8.334-16.07-13.79-32.995-24.877-50.724-33.226-14.437-6.8-13.728-6.412-14.176-7.755-.808-2.423 3.47-.986 17.178 5.768 60.668 29.893 105.334 85.034 121.547 150.054 9.782 39.228 9.77 76.438-.035 115.399-9.858 39.17-31.493 77.146-60.435 106.084-33.415 33.41-74.622 54.883-122.981 64.085-12.03 2.29-17.167 2.709-36.5 2.98-12.375.174-25.875-.097-30-.602zm57.154-4.054c19.11-2.741 47.37-10.271 49.633-13.225.505-.66.566-5.51.138-11.167-.415-5.5-1.533-27.775-2.485-49.5-.951-21.725-2.1-40.504-2.553-41.731-.651-1.765-1.406-2.134-3.605-1.762-1.53.258-8.407 1.356-15.282 2.44-6.875 1.085-20.825 3.31-31 4.945-10.175 1.636-29.975 4.817-44 7.07a43077.18 43077.18 0 0 0-40.5 6.527c-38.09 6.168-47.015 7.608-61.5 9.921-8.525 1.362-17.75 2.783-20.5 3.16-7.78 1.062-7.688.847-7.382 17.365.253 13.587.86 17.065 2.978 17.065.469 0 .976-6.833 1.128-15.184l.276-15.184 104-16.737c57.2-9.205 105.849-17.016 108.109-17.356l4.108-.62.649 4.734c.357 2.603.295 5.086-.137 5.518-.432.432-16.298 3.06-35.257 5.838A20569.67 20569.67 0 0 0 222.5 392c-7.15 1.073-20.875 3.104-30.5 4.513-9.625 1.409-23.125 3.4-30 4.426a7050.56 7050.56 0 0 1-31.5 4.59c-10.45 1.498-20.688 3.131-22.75 3.629l-3.75.905v6.304c0 3.468.296 11.807.657 18.532l.658 12.227 5.592 3.613c12.05 7.786 33.48 17.759 49.818 23.184 15.486 5.143 43.757 10.409 61.275 11.414 9.925.57 27.258-.466 41.154-2.459zm76.136-25.206c.277-.722.331-2.41.12-3.75-.362-2.304-2.05-28.65-4.48-69.936-1.108-18.816-1.87-23-4.185-23-.882 0-1.21 1.202-1.023 3.75 1.504 20.536 4.453 62.28 5.404 76.5.855 12.789 1.533 17.75 2.424 17.75.68 0 1.463-.591 1.74-1.314zm25.865-15.304l7.655-5.386-.395-5.748c-.218-3.161-.666-11.373-.995-18.248l-.6-12.5-11.66-6.5-11.66-6.5-.3-5.75c-.165-3.163-.068-5.75.217-5.75.284 0 9.275 5.222 19.981 11.604l19.465 11.604.69 6.434c.378 3.54.483 8.912.232 11.939-.477 5.754.2 7.346 2.134 5.016.757-.912 1.05-5.385.864-13.169l-.283-11.788-22.935-13.82c-12.615-7.601-23.302-13.82-23.75-13.82-1.2 0-1.022 4.386 1.121 27.565 1.065 11.514 2.43 27.235 3.032 34.935.603 7.7 1.337 15.213 1.632 16.695l.535 2.695 3.682-2.06c2.026-1.134 7.128-4.486 11.338-7.448zM115.35 372.912c15.991-3.34 31.566-6.52 34.612-7.064 3.046-.544 7.225-1.429 9.288-1.965l3.75-.975v-60.962c0-33.528-.338-60.945-.75-60.925-.413.02-8.495 12.957-17.961 28.75a31605.205 31605.205 0 0 1-40.75 67.71C90.592 358.927 80 377.04 80 377.73c0 2.174 5.39 1.439 35.35-4.82zm-29.792 2.166c-.217-.35 7.48-13.676 17.105-29.615a74238.38 74238.38 0 0 0 36.668-60.807l19.169-31.829.282 10.951.281 10.951-29.319 48.85-29.319 48.85-7.237 1.642c-3.98.904-7.414 1.357-7.63 1.007zm301.03-6.343c-.355-1.238-5.15-20.7-10.656-43.25a53837.39 53837.39 0 0 0-12.47-51c-1.353-5.5-2.46-10.825-2.46-11.833-.002-1.014-.56-1.654-1.252-1.433-1.024.33-3.487 6.357-8.076 19.766-13.195 38.552-13.438 39.402-13 45.5.236 3.3.626 6.956.866 8.125.283 1.38 8.147 7.8 22.42 18.3 12.09 8.895 22.247 16.601 22.57 17.124 1.174 1.9 2.7.936 2.058-1.3zm-13.514-11.674c-3.534-2.637-6.73-5.646-7.103-6.686-.372-1.04-3.53-15.3-7.016-31.688l-6.339-29.798 2.93-8.452c2.766-7.979 4.454-10.546 4.454-6.773 0 .923.435 3.06.968 4.75.532 1.689 2.771 10.72 4.976 20.07 2.204 9.35 6.494 27.267 9.532 39.815 3.038 12.548 5.524 23.01 5.524 23.25 0 1.078-1.944-.023-7.926-4.488zM217 352.023c18.975-3.93 42.722-8.81 52.771-10.843 12.144-2.456 18.18-4.096 18-4.89-.15-.656-18.946-16.352-41.771-34.879-22.825-18.527-48.18-39.14-56.345-45.806-8.164-6.666-15.267-12.275-15.783-12.465-.517-.19-1.582.19-2.367.841-1.096.91-1.314 2.967-.936 8.845.42 6.53 3.431 98.892 3.431 105.229 0 1.994.38 2.142 4.25 1.653 2.337-.296 19.775-3.754 38.75-7.685zm-39.483 3.641c-.2-.648-.632-11.304-.957-23.68-.326-12.374-1.093-36.129-1.705-52.787-.611-16.659-.832-30.569-.49-30.91.343-.343 1.49.162 2.551 1.122 2.457 2.223 2.706 5.258 4.61 56.076.825 22 1.606 42.21 1.737 44.91.223 4.613.068 4.956-2.572 5.679-1.877.514-2.93.378-3.174-.41zm164.027-75.18c2.02-5.5 5.598-15.446 7.951-22.104 2.354-6.657 4.737-12.96 5.296-14.004.763-1.426-.053-6.264-3.269-19.395-5.44-22.21-12.689-52.102-20.977-86.496-7.482-31.05-9.507-38.359-10.86-39.195-1.066-.659-.945 1.213 2.83 43.695 1.343 15.125 3.592 40.55 4.997 56.5 1.405 15.95 3.418 38.675 4.474 50.5 1.055 11.825 2.222 25.775 2.593 31 1.018 14.357 1.522 14.32 6.965-.5zm-3.571-2.75c-.015-.137-.439-4.508-.942-9.713l-.915-9.464 3.521-6.701 3.521-6.701-6.714-30.835c-3.693-16.96-7.084-34.66-7.535-39.335-.451-4.675-1.307-13.675-1.902-20-.596-6.325-1.343-13.525-1.662-16-.903-7.018 1.18-3.67 3.112 5 1.684 7.561 3.646 15.693 16.5 68.395l7.046 28.895-6.622 18.355c-5.647 15.65-7.25 19.567-7.408 18.105zm-99.17.51c-35.585-27.367-64.722-50.076-64.75-50.464-.03-.388 3.174-6.013 7.118-12.5 3.945-6.487 21.417-35.42 38.827-64.295 17.41-28.875 32.842-54.377 34.292-56.672 1.908-3.02 6.72-6.99 17.423-14.376 8.133-5.612 15.302-10.402 15.931-10.644.73-.282 1.28 1.263 1.52 4.275l.374 4.715-11.257 7.497-11.257 7.498-6.358 10.603a7292.448 7292.448 0 0 1-16.373 27.104c-55.243 91.007-57.31 94.482-57.226 96.168.037.733 15.17 13.257 33.628 27.832 90.058 71.11 83.556 65.653 83.136 69.773l-.331 3.247zm71.15-245.291c-1.19-2.342-4.094-23.99-3.916-27.468.028-.55 1.181.04 2.257 2.077 1.771 3.354 5.284 26.178 4.256 27.207-.222.22-1.803-.253-2.597-1.816z" fill="#0b0b0b"/></svg>